<svg xmlns="http://www.w3.org/2000/svg" width="790" height="714" viewBox="1525.5 617.45 790 714"><g data-name="Balls Pattern" clip-path="url(&quot;#a&quot;)"><g data-name="Group 5"><path d="M1849.5 688.4a71 71 0 1 1 0 .1z" stroke-linejoin="round" stroke-linecap="round" stroke="#bf9447" fill="transparent" data-name="Ellipse 3" stroke-width=".99301"/><path d="M1768.5 831.4a71 71 0 1 1 0 .1z" stroke-linejoin="round" stroke-linecap="round" stroke="#bf9447" fill="transparent" data-name="Ellipse 4" stroke-width=".99301"/><path d="M1849.5 974.4a71 71 0 1 1 0 .1z" stroke-linejoin="round" stroke-linecap="round" stroke="#bf9447" fill="transparent" data-name="Ellipse 6" stroke-width=".99301"/><path d="M1930.5 1117.4a71 71 0 1 1 0 .1z" stroke-linejoin="round" stroke-linecap="round" stroke="#bf9447" fill="transparent" data-name="Ellipse 9" stroke-width=".99301"/><path d="M2011.5 1260.4a71 71 0 1 1 0 .1z" stroke-linejoin="round" stroke-linecap="round" stroke="#bf9447" fill="transparent" data-name="Ellipse 15" stroke-width=".99301"/><path d="M1687.5 974.4a71 71 0 1 1 0 .1z" stroke-linejoin="round" stroke-linecap="round" stroke="#bf9447" fill="transparent" data-name="Ellipse 8" stroke-width=".99301"/><path d="M1768.5 1117.4a71 71 0 1 1 0 .1z" stroke-linejoin="round" stroke-linecap="round" stroke="#bf9447" fill="transparent" data-name="Ellipse 10" stroke-width=".99301"/><path d="M1849.5 1260.4a71 71 0 1 1 0 .1z" stroke-linejoin="round" stroke-linecap="round" stroke="#bf9447" fill="transparent" data-name="Ellipse 14" stroke-width=".99301"/><path d="M1606.5 1117.4a71 71 0 1 1 0 .1z" stroke-linejoin="round" stroke-linecap="round" stroke="#bf9447" fill="transparent" data-name="Ellipse 12" stroke-width=".99301"/><path d="M1687.5 1260.4a71 71 0 1 1 0 .1z" stroke-linejoin="round" stroke-linecap="round" stroke="#bf9447" fill="transparent" data-name="Ellipse 13" stroke-width=".99301"/><path d="M1525.5 1260.4a71 71 0 1 1 0 .1z" stroke-linejoin="round" stroke-linecap="round" stroke="#bf9447" fill="transparent" data-name="Ellipse 17" stroke-width=".99301"/><path d="M1930.5 831.4a71 71 0 1 1 0 .1z" stroke-linejoin="round" stroke-linecap="round" stroke="#bf9447" fill="transparent" data-name="Ellipse 5" stroke-width=".99301"/><path d="M2011.5 974.4a71 71 0 1 1 0 .1z" stroke-linejoin="round" stroke-linecap="round" stroke="#bf9447" fill="transparent" data-name="Ellipse 7" stroke-width=".99301"/><path d="M2092.5 1117.4a71 71 0 1 1 0 .1z" stroke-linejoin="round" stroke-linecap="round" stroke="#bf9447" fill="transparent" data-name="Ellipse 11" stroke-width=".99301"/><path d="M2173.5 1260.4a71 71 0 1 1 0 .1z" stroke-linejoin="round" stroke-linecap="round" stroke="#bf9447" fill="transparent" data-name="Ellipse 16" stroke-width=".99301"/></g></g><defs><clipPath id="a"><path d="M1770.211 1099.523 193.964 1299.082C91.291 1312.082.5 1232.059.5 1128.567V.497h1920v928.511c0 86.578-64.397 159.641-150.289 170.515Z" data-name="Path 24" transform="translate(0 .004)"/></clipPath></defs></svg>