<svg width="238.118774" height="120.057617" viewBox="0 0 238.119 120.058" fill="none" xmlns="http://www.w3.org/2000/svg" xmlns:xlink="http://www.w3.org/1999/xlink">
	<desc>
			Created with Pixso.
	</desc>
	<defs/>
	<g style="mix-blend-mode:normal">
		<path id="Path 65" d="M92.5 110.28C91.7 110.28 91.22 110.39 91.08 110.59C90.95 110.79 90.88 111.51 90.88 112.74C90.88 113.64 90.96 114.19 91.12 114.37C91.27 114.56 91.75 114.65 92.51 114.65C93.28 114.65 93.71 114.55 93.84 114.34C94 114.14 94.07 113.51 94.07 112.45C94.07 111.39 94 110.76 93.86 110.57C93.72 110.39 93.28 110.28 92.5 110.28Z" fill="#FFFFFF" fill-opacity="1.000000" fill-rule="nonzero"/>
		<path id="Path 65" d="M91.08 110.59C90.95 110.79 90.88 111.51 90.88 112.74C90.88 113.64 90.96 114.19 91.12 114.37C91.27 114.56 91.75 114.65 92.51 114.65C93.28 114.65 93.71 114.55 93.84 114.34C94 114.14 94.07 113.51 94.07 112.45C94.07 111.39 94 110.76 93.86 110.57C93.72 110.39 93.28 110.28 92.5 110.28C91.7 110.28 91.22 110.39 91.08 110.59Z" stroke="#707070" stroke-opacity="0" stroke-width="1.000000"/>
	</g>
	<g style="mix-blend-mode:normal">
		<path id="Path 66" d="M147.59 93.25L157.65 93.25C154.36 87.48 152.69 84.53 152.62 84.38L147.59 93.25Z" fill="#FFFFFF" fill-opacity="1.000000" fill-rule="nonzero"/>
		<path id="Path 66" d="M157.65 93.25C154.36 87.48 152.69 84.53 152.62 84.38L147.59 93.25L157.65 93.25Z" stroke="#707070" stroke-opacity="0" stroke-width="1.000000"/>
	</g>
	<g style="mix-blend-mode:normal">
		<path id="Path 67" d="M95 93.13C94.75 93.08 94.56 93.06 94.42 93.06C85.22 93.13 80.37 93.18 79.88 93.18L79.88 97.25L94.32 97.13C94.99 97.13 95.55 96.98 96.01 96.66C96.37 96.4 96.61 96.06 96.73 95.65C96.76 95.46 96.79 95.31 96.79 95.17C96.79 94.65 96.57 94.08 96.13 93.66C95.86 93.42 95.48 93.25 95 93.13Z" fill="#FFFFFF" fill-opacity="1.000000" fill-rule="nonzero"/>
		<path id="Path 67" d="M94.42 93.06C85.22 93.13 80.37 93.18 79.88 93.18L79.88 97.25L94.32 97.13C94.99 97.13 95.55 96.98 96.01 96.66C96.37 96.4 96.61 96.06 96.73 95.65C96.76 95.46 96.79 95.31 96.79 95.17C96.79 94.65 96.57 94.08 96.13 93.66C95.86 93.42 95.48 93.25 95 93.13C94.75 93.08 94.56 93.06 94.42 93.06Z" stroke="#707070" stroke-opacity="0" stroke-width="1.000000"/>
	</g>
	<g style="mix-blend-mode:normal">
		<path id="Path 68" d="M103.84 110.31L102.03 110.31L102.03 112.48L103.75 112.48C104.16 112.48 104.43 112.41 104.57 112.26C104.71 112.11 104.77 111.82 104.77 111.37C104.77 110.93 104.72 110.64 104.6 110.5C104.48 110.37 104.23 110.31 103.84 110.31Z" fill="#FFFFFF" fill-opacity="1.000000" fill-rule="nonzero"/>
		<path id="Path 68" d="M102.03 110.31L102.03 112.48L103.75 112.48C104.16 112.48 104.43 112.41 104.57 112.26C104.71 112.11 104.77 111.82 104.77 111.37C104.77 110.93 104.72 110.64 104.6 110.5C104.48 110.37 104.23 110.31 103.84 110.31L102.03 110.31Z" stroke="#707070" stroke-opacity="0" stroke-width="1.000000"/>
	</g>
	<g style="mix-blend-mode:normal">
		<path id="Path 69" d="M96.67 85.34C96.38 85.1 95.98 84.91 95.45 84.81C95.24 84.77 95.07 84.76 94.94 84.76C94.13 84.76 89.12 84.79 79.88 84.86L79.88 88.64C90.06 88.58 95.16 88.54 95.16 88.52C95.46 88.49 95.7 88.46 95.87 88.39C96.44 88.22 96.85 87.94 97.1 87.59C97.27 87.31 97.36 87.04 97.36 86.73C97.36 86.22 97.14 85.75 96.67 85.34Z" fill="#FFFFFF" fill-opacity="1.000000" fill-rule="nonzero"/>
		<path id="Path 69" d="M95.45 84.81C95.24 84.77 95.07 84.76 94.94 84.76C94.13 84.76 89.12 84.79 79.88 84.86L79.88 88.64C90.06 88.58 95.16 88.54 95.16 88.52C95.46 88.49 95.7 88.46 95.87 88.39C96.44 88.22 96.85 87.94 97.1 87.59C97.27 87.31 97.36 87.04 97.36 86.73C97.36 86.22 97.14 85.75 96.67 85.34C96.38 85.1 95.98 84.91 95.45 84.81Z" stroke="#707070" stroke-opacity="0" stroke-width="1.000000"/>
	</g>
	<g style="mix-blend-mode:normal">
		<path id="Path 70" d="M157.16 113.54L159.32 113.54L158.23 110.25L157.16 113.54Z" fill="#FFFFFF" fill-opacity="1.000000" fill-rule="nonzero"/>
		<path id="Path 70" d="M159.32 113.54L158.23 110.25L157.16 113.54L159.32 113.54Z" stroke="#707070" stroke-opacity="0" stroke-width="1.000000"/>
	</g>
	<g style="mix-blend-mode:normal">
		<path id="Path 71" d="M225.56 86.1C225.29 85.91 225.04 85.78 224.78 85.68C224.34 85.51 223.83 85.42 223.26 85.42L209.81 85.42L209.81 96.23L223.42 96.23C224.34 96.23 225.16 95.89 225.87 95.23C226.2 94.92 226.38 94.71 226.43 94.59C226.89 93.93 227.13 93.25 227.13 92.55L227.13 89.05C227.13 88.27 226.86 87.52 226.31 86.82C226.01 86.48 225.77 86.24 225.56 86.1Z" fill="#FFFFFF" fill-opacity="1.000000" fill-rule="nonzero"/>
		<path id="Path 71" d="M224.78 85.68C224.34 85.51 223.83 85.42 223.26 85.42L209.81 85.42L209.81 96.23L223.42 96.23C224.34 96.23 225.16 95.89 225.87 95.23C226.2 94.92 226.38 94.71 226.43 94.59C226.89 93.93 227.13 93.25 227.13 92.55L227.13 89.05C227.13 88.27 226.86 87.52 226.31 86.82C226.01 86.48 225.77 86.24 225.56 86.1C225.29 85.91 225.04 85.78 224.78 85.68Z" stroke="#707070" stroke-opacity="0" stroke-width="1.000000"/>
	</g>
	<g style="mix-blend-mode:normal">
		<path id="Path 72" d="M169.52 110.31L167.71 110.31L167.71 112.48L169.43 112.48C169.84 112.48 170.11 112.41 170.25 112.26C170.39 112.11 170.46 111.82 170.46 111.37C170.46 110.93 170.4 110.64 170.28 110.5C170.17 110.37 169.89 110.31 169.52 110.31Z" fill="#FFFFFF" fill-opacity="1.000000" fill-rule="nonzero"/>
		<path id="Path 72" d="M167.71 110.31L167.71 112.48L169.43 112.48C169.84 112.48 170.11 112.41 170.25 112.26C170.39 112.11 170.46 111.82 170.46 111.37C170.46 110.93 170.4 110.64 170.28 110.5C170.17 110.37 169.89 110.31 169.52 110.31L167.71 110.31Z" stroke="#707070" stroke-opacity="0" stroke-width="1.000000"/>
	</g>
	<g style="mix-blend-mode:normal">
		<path id="Path 73" d="M235.81 80.95C235.49 80.51 234.94 79.86 234.21 79.03C234.11 78.94 234 78.86 233.92 78.77C233.34 78.23 232.85 77.85 232.45 77.61C230.1 75.97 227.56 75.16 224.85 75.16L13.33 75.16C10.75 75.16 8.32 75.91 6.01 77.42C5.55 77.7 4.99 78.11 4.34 78.65C3.7 79.33 3.23 79.85 2.94 80.19C0.98 82.69 0 85.47 0 88.54L0 93.06C0 95.69 0.71 98.09 2.13 100.31C2.4 100.8 2.89 101.45 3.63 102.23C4.36 102.95 4.92 103.48 5.33 103.79C7.77 105.58 10.45 106.46 13.33 106.46L63.95 106.46L63.95 120.05L176.25 120.05L176.25 106.46L224.76 106.46C226.93 106.46 228.97 105.95 230.92 104.93C231.72 104.52 232.49 104.01 233.24 103.38C233.66 103.05 234.23 102.54 234.89 101.81C237.04 99.23 238.11 96.28 238.11 92.97L238.11 88.64C238.11 85.83 237.38 83.27 235.81 80.95ZM36.69 92.36C36.69 94.73 35.92 96.85 34.39 98.69C33.91 99.22 33.5 99.59 33.19 99.81C32.66 100.26 32.1 100.63 31.54 100.92C30.14 101.65 28.68 102.01 27.12 102.01L15.65 102.01C13.58 102.01 11.68 101.36 9.92 100.1C9.63 99.88 9.22 99.5 8.69 98.99C8.16 98.43 7.8 97.97 7.62 97.61C6.59 96.04 6.08 94.3 6.08 92.43L6.08 89.19C6.08 86.99 6.78 85 8.2 83.2C8.4 82.97 8.73 82.61 9.2 82.11C9.66 81.72 10.06 81.43 10.4 81.23C12.03 80.15 13.77 79.61 15.63 79.61L27.16 79.61C29.1 79.61 30.91 80.19 32.6 81.36C32.87 81.53 33.23 81.81 33.64 82.2C33.71 82.25 33.77 82.32 33.84 82.37C34.37 82.97 34.75 83.43 34.98 83.75C36.11 85.42 36.67 87.25 36.67 89.26L36.69 92.36ZM68.3 101.64C68.15 101.74 67.94 101.84 67.71 101.91C67.55 101.98 67.28 102.01 66.89 102.01L63.49 102.01C63.36 102.01 62.39 101.23 60.56 99.68C58.74 98.12 56.69 96.35 54.42 94.36C52.15 92.36 50.13 90.59 48.37 89.04L45.73 86.72L45.73 102L42.2 102C41.67 102 41.24 101.89 40.92 101.67C40.53 101.4 40.24 101.04 40.07 100.58C39.98 100.36 39.93 100.12 39.93 99.86L39.93 81.79C39.93 81.06 40.22 80.48 40.82 80.03C41.17 79.74 41.62 79.61 42.09 79.61L45.71 79.61C45.83 79.61 46.8 80.39 48.61 81.94C50.42 83.49 52.46 85.27 54.73 87.26C57 89.26 59.01 91.03 60.77 92.58L63.41 94.92L63.41 79.62L67.02 79.62C67.79 79.62 68.39 79.93 68.81 80.53C69.07 80.89 69.21 81.31 69.21 81.77L69.21 99.86C69.21 100.58 68.92 101.14 68.3 101.64ZM73.42 115.3C73.09 115.53 72.38 115.67 71.29 115.67C70.3 115.67 69.63 115.55 69.31 115.31C68.98 115.07 68.81 114.58 68.81 113.85L68.81 113.61L69.97 113.61L69.97 113.74C69.97 114.19 70.06 114.46 70.21 114.54C70.36 114.65 70.79 114.7 71.47 114.7C72 114.7 72.34 114.65 72.5 114.53C72.65 114.41 72.72 114.15 72.72 113.74C72.72 113.44 72.67 113.23 72.55 113.13C72.43 113.03 72.19 112.96 71.81 112.94L71.15 112.91C70.16 112.86 69.51 112.7 69.24 112.5C68.97 112.28 68.83 111.82 68.83 111.08C68.83 110.35 69 109.86 69.32 109.62C69.67 109.38 70.33 109.26 71.32 109.26C72.27 109.26 72.91 109.36 73.23 109.6C73.55 109.82 73.72 110.27 73.72 110.91L73.72 111.15L72.56 111.15C72.56 111.15 72.56 111.05 72.56 111.02C72.53 110.66 72.46 110.43 72.33 110.35C72.19 110.27 71.9 110.21 71.41 110.21C70.84 110.21 70.47 110.27 70.3 110.37C70.13 110.47 70.04 110.69 70.04 111.03C70.04 111.42 70.11 111.66 70.25 111.75C70.38 111.83 70.86 111.89 71.64 111.94C72.58 111.99 73.2 112.12 73.47 112.35C73.74 112.57 73.88 113.01 73.88 113.69C73.88 114.53 73.72 115.06 73.42 115.3ZM84.06 113.15C83.77 113.42 83.2 113.56 82.33 113.56L80.65 113.56L80.65 115.6L79.45 115.6L79.45 109.29L82.3 109.29C83.15 109.29 83.73 109.45 84.02 109.74C84.31 110.03 84.47 110.61 84.47 111.46C84.47 112.31 84.35 112.86 84.06 113.15ZM94.8 115.09C94.48 115.47 93.67 115.65 92.4 115.65C91.25 115.65 90.5 115.47 90.18 115.09C89.84 114.72 89.67 113.9 89.67 112.64C89.67 111.13 89.84 110.2 90.16 109.8C90.49 109.41 91.3 109.22 92.58 109.22C93.72 109.22 94.46 109.41 94.8 109.79C95.12 110.16 95.29 111.02 95.29 112.35C95.29 113.79 95.12 114.72 94.8 115.09ZM98.23 101.62C97.27 101.86 95.77 102 93.74 102L76.15 102C75.58 102 75.07 101.77 74.61 101.31C74.39 101.07 74.24 100.82 74.15 100.56C74.08 100.36 74.03 100.07 74.03 99.66L74.03 81.94C74.03 81.46 74.08 81.12 74.18 80.9C74.41 80.39 74.76 80.03 75.24 79.81C75.53 79.67 75.8 79.61 76.08 79.61L93.95 79.61C96.15 79.61 97.75 79.78 98.74 80.13C99.4 80.36 99.95 80.6 100.38 80.85C101.38 81.45 102.1 82.25 102.51 83.27C102.83 84.11 103 85.03 103 86.02C103 87.54 102.56 88.75 101.67 89.63C101.31 89.99 101.06 90.21 100.89 90.31C100.63 90.5 100.39 90.64 100.19 90.72C100.05 90.78 100 90.81 100 90.83C100.22 90.91 100.49 91.05 100.8 91.25C100.99 91.37 101.25 91.58 101.53 91.85C101.86 92.19 102.08 92.48 102.23 92.7C102.75 93.5 103 94.48 103 95.63C103 96.79 102.76 97.9 102.3 98.84C102.15 99.11 101.94 99.4 101.65 99.74C101.26 100.14 100.99 100.39 100.84 100.48C100.56 100.67 100.26 100.85 99.88 101.04C99.44 101.26 98.91 101.42 98.23 101.62ZM105.9 114.2L105.9 115.6L104.71 115.6L104.71 114.46C104.71 113.81 104.38 113.49 103.75 113.49L102.03 113.49L102.03 115.62L100.84 115.62L100.84 109.31L103.94 109.31C104.71 109.31 105.25 109.45 105.54 109.72C105.83 109.99 105.99 110.47 105.99 111.17C105.99 111.8 105.92 112.24 105.76 112.48C105.61 112.72 105.32 112.87 104.86 112.98C105.56 113.03 105.9 113.42 105.9 114.2ZM116.05 110.37L114.15 110.37L114.15 115.6L112.96 115.6L112.96 110.37L111.13 110.37L111.13 109.29L116.03 109.29L116.05 110.37ZM125.73 115.3C125.41 115.53 124.69 115.67 123.6 115.67C122.61 115.67 121.95 115.55 121.62 115.31C121.3 115.07 121.13 114.58 121.13 113.85L121.13 113.61L122.29 113.61L122.29 113.74C122.29 114.19 122.37 114.46 122.52 114.54C122.68 114.65 123.1 114.7 123.79 114.7C124.32 114.7 124.66 114.65 124.81 114.53C124.96 114.41 125.03 114.15 125.03 113.74C125.03 113.44 124.98 113.23 124.86 113.13C124.74 113.03 124.5 112.96 124.13 112.94L123.46 112.91C122.47 112.86 121.83 112.7 121.55 112.5C121.28 112.28 121.14 111.82 121.14 111.08C121.14 110.35 121.31 109.86 121.64 109.62C121.98 109.38 122.64 109.26 123.63 109.26C124.62 109.26 125.22 109.36 125.54 109.6C125.87 109.82 126.04 110.27 126.04 110.91L126.04 111.15L124.86 111.15C124.86 111.15 124.86 111.05 124.86 111.02C124.83 110.66 124.76 110.43 124.62 110.35C124.49 110.27 124.2 110.21 123.7 110.21C123.14 110.21 122.76 110.27 122.59 110.37C122.42 110.47 122.34 110.69 122.34 111.03C122.34 111.42 122.41 111.66 122.54 111.75C122.68 111.83 123.16 111.89 123.94 111.94C124.88 111.99 125.49 112.12 125.76 112.35C126.04 112.57 126.17 113.01 126.17 113.69C126.17 114.53 126.04 115.06 125.73 115.3ZM126.31 102L114.83 102C112.77 102 110.86 101.35 109.11 100.09C108.82 99.86 108.41 99.49 107.88 98.98C107.35 98.41 106.99 97.95 106.8 97.6C105.78 96.03 105.27 94.29 105.27 92.41L105.27 89.17C105.27 86.97 105.97 84.98 107.38 83.19C107.59 82.95 107.91 82.59 108.37 82.1C108.83 81.7 109.22 81.41 109.57 81.21C111.2 80.13 112.94 79.59 114.8 79.59L126.33 79.59C128.27 79.59 130.08 80.17 131.77 81.35C132.04 81.52 132.4 81.79 132.81 82.18C132.87 82.23 132.94 82.3 133.01 82.35C133.54 82.95 133.91 83.41 134.15 83.73C135.28 85.4 135.84 87.23 135.84 89.24L135.84 92.34C135.84 94.71 135.07 96.83 133.54 98.67C133.06 99.2 132.65 99.57 132.35 99.79C131.82 100.24 131.25 100.61 130.69 100.9C129.29 101.64 127.84 102 126.31 102ZM138.96 115.6L137.19 115.6L136.32 112.36C136.23 112.07 136.15 111.68 136.03 111.19L135.94 110.79L135.82 111.19L135.74 111.58C135.67 111.83 135.6 112.11 135.53 112.36L134.63 115.58L132.87 115.58L131.24 109.28L132.47 109.28L133.37 112.74C133.42 112.96 133.49 113.27 133.57 113.66L133.68 114.12L133.76 114.58C133.81 114.37 133.88 114.22 133.91 114.12L134.02 113.66C134.07 113.42 134.15 113.11 134.25 112.74L135.23 109.28L136.63 109.28L137.58 112.74C137.67 113.03 137.73 113.33 137.82 113.66L137.92 114.12L138.04 114.58L138.18 114.12L138.28 113.66C138.37 113.28 138.43 112.98 138.5 112.74L139.44 109.28L140.67 109.28L138.96 115.6ZM150.15 115.6L145.8 115.6L145.8 109.29L150.11 109.29L150.11 110.3L146.99 110.3L146.99 111.92L149.94 111.92L149.94 112.81L146.99 112.81L146.99 114.6L150.13 114.6L150.15 115.6ZM159.99 115.6L159.58 114.39L156.85 114.39L156.46 115.6L155.19 115.6L157.29 109.29L159.08 109.29L161.21 115.6L159.99 115.6ZM161.57 100.14C161.13 99.39 160.8 98.82 160.6 98.46C160.43 98.16 160.33 97.99 160.31 97.97L144.93 97.97C144.89 97.99 144.81 98.07 144.81 98.14L143.36 100.68C142.71 101.57 141.84 102.01 140.75 102.01L135.84 102.01C138.21 97.8 140.24 94.17 142 91.08C143.39 88.63 144.52 86.65 145.37 85.13C146.7 82.78 147.4 81.57 147.47 81.46C147.64 81.14 147.83 80.85 148.02 80.61C148.63 79.95 149.38 79.61 150.23 79.61L154.94 79.61C155.89 79.61 156.7 80 157.34 80.8C157.51 81.04 157.74 81.4 157.99 81.89C158.03 81.96 158.08 82.03 158.11 82.08C158.21 82.23 159.03 83.68 160.58 86.43C161.03 87.21 161.52 88.1 162.1 89.1C165.63 95.33 167.44 98.52 167.54 98.65L169.42 102.01L164.45 102.01C163.14 102.01 162.2 101.38 161.57 100.14ZM171.56 114.2L171.56 115.6L170.37 115.6L170.37 114.46C170.37 113.81 170.05 113.49 169.42 113.49L167.69 113.49L167.69 115.62L166.5 115.62L166.5 109.31L169.6 109.31C170.37 109.31 170.92 109.45 171.21 109.72C171.5 109.99 171.65 110.47 171.65 111.17C171.65 111.8 171.58 112.24 171.43 112.48C171.27 112.72 170.98 112.87 170.52 112.98C171.22 113.03 171.56 113.42 171.56 114.2ZM200.72 88.06C200.72 89.21 200.48 90.3 199.99 91.3C199.83 91.59 199.65 91.92 199.43 92.28C199.24 92.53 199 92.8 198.73 93.09C198.59 93.25 198.47 93.38 198.33 93.49L198.18 93.66L198.04 93.76L197.81 93.95C197.62 94.08 197.38 94.25 197.09 94.42C197.04 94.44 197 94.48 196.95 94.51C196.66 94.66 196.41 94.8 196.17 94.92C196.05 94.97 195.93 95.02 195.83 95.07C195.4 95.24 194.97 95.4 194.51 95.53C195.84 96.9 196.75 97.9 197.24 98.52C197.57 98.89 197.91 99.27 198.21 99.62C198.83 100.34 199.41 100.99 199.97 101.6C200.14 101.76 200.24 101.88 200.28 101.94L193.34 101.94C192.95 101.94 192.62 101.89 192.4 101.81C192.33 101.77 192.28 101.74 192.23 101.71C192.18 101.67 192.11 101.64 192.06 101.59C191.84 101.43 191.58 101.18 191.31 100.84C190.29 99.62 189.21 98.29 188.07 96.86L187.51 96.13C187.51 96.13 187.4 96.13 187.32 96.16C186.65 96.16 184.66 96.16 181.32 96.2L177.22 96.2L177.22 99.85C177.22 100.53 176.93 101.11 176.34 101.59C175.98 101.82 175.57 101.96 175.11 101.96L171.43 101.96L171.43 81.81C171.43 81.45 171.48 81.16 171.56 80.94C171.61 80.8 171.68 80.66 171.79 80.48C171.85 80.37 171.96 80.27 172.06 80.17C172.5 79.74 173.01 79.54 173.58 79.54L189.88 79.54C192.08 79.54 193.97 79.88 195.57 80.56C195.9 80.68 196.15 80.8 196.32 80.89C196.59 81.04 196.87 81.21 197.17 81.41C198.61 82.28 199.61 83.51 200.21 85.1C200.53 85.95 200.69 86.84 200.69 87.79L200.72 88.06ZM232.91 92.31C232.91 94.37 232.35 96.23 231.23 97.85C231.04 98.16 230.7 98.57 230.22 99.1C229.76 99.54 229.37 99.88 229.03 100.1C228.67 100.36 228.29 100.6 227.9 100.82C226.47 101.59 224.93 101.98 223.3 101.98L206.11 101.98C205.58 101.98 205.12 101.77 204.69 101.38C204.42 101.09 204.27 100.85 204.2 100.67C204.17 100.6 204.13 100.51 204.1 100.38L204 100.38L204 81.77C204 80.97 204.34 80.36 205.04 79.9C205.41 79.69 205.73 79.59 206.01 79.59L223.33 79.59C225.39 79.59 227.3 80.22 229.03 81.46C229.3 81.65 229.66 81.96 230.12 82.39C230.65 82.95 231 83.37 231.19 83.66C231.57 84.23 231.89 84.79 232.16 85.39C232.23 85.59 232.32 85.81 232.4 86.09C232.45 86.26 232.52 86.43 232.57 86.61C232.79 87.4 232.91 88.32 232.91 89.34L232.91 92.31Z" fill="#FFFFFF" fill-opacity="1.000000" fill-rule="nonzero"/>
		<path id="Path 73" d="M234.21 79.03C234.11 78.94 234 78.86 233.92 78.77C233.34 78.23 232.85 77.85 232.45 77.61C230.1 75.97 227.56 75.16 224.85 75.16L13.33 75.16C10.75 75.16 8.32 75.91 6.01 77.42C5.55 77.7 4.99 78.11 4.34 78.65C3.7 79.33 3.23 79.85 2.94 80.19C0.98 82.69 0 85.47 0 88.54L0 93.06C0 95.69 0.71 98.09 2.13 100.31C2.4 100.8 2.89 101.45 3.63 102.23C4.36 102.95 4.92 103.48 5.33 103.79C7.77 105.58 10.45 106.46 13.33 106.46L63.95 106.46L63.95 120.05L176.25 120.05L176.25 106.46L224.76 106.46C226.93 106.46 228.97 105.95 230.92 104.93C231.72 104.52 232.49 104.01 233.24 103.38C233.66 103.05 234.23 102.54 234.89 101.81C237.04 99.23 238.11 96.28 238.11 92.97L238.11 88.64C238.11 85.83 237.38 83.27 235.81 80.95C235.49 80.51 234.94 79.86 234.21 79.03ZM34.39 98.69C33.91 99.22 33.5 99.59 33.19 99.81C32.66 100.26 32.1 100.63 31.54 100.92C30.14 101.65 28.68 102.01 27.12 102.01L15.65 102.01C13.58 102.01 11.68 101.36 9.92 100.1C9.63 99.88 9.22 99.5 8.69 98.99C8.16 98.43 7.8 97.97 7.62 97.61C6.59 96.04 6.08 94.3 6.08 92.43L6.08 89.19C6.08 86.99 6.78 85 8.2 83.2C8.4 82.97 8.73 82.61 9.2 82.11C9.66 81.72 10.06 81.43 10.4 81.23C12.03 80.15 13.77 79.61 15.63 79.61L27.16 79.61C29.1 79.61 30.91 80.19 32.6 81.36C32.87 81.53 33.23 81.81 33.64 82.2C33.71 82.25 33.77 82.32 33.84 82.37C34.37 82.97 34.75 83.43 34.98 83.75C36.11 85.42 36.67 87.25 36.67 89.26L36.69 92.36C36.69 94.73 35.92 96.85 34.39 98.69ZM67.71 101.91C67.55 101.98 67.28 102.01 66.89 102.01L63.49 102.01C63.36 102.01 62.39 101.23 60.56 99.68C58.74 98.12 56.69 96.35 54.42 94.36C52.15 92.36 50.13 90.59 48.37 89.04L45.73 86.72L45.73 102L42.2 102C41.67 102 41.24 101.89 40.92 101.67C40.53 101.4 40.24 101.04 40.07 100.58C39.98 100.36 39.93 100.12 39.93 99.86L39.93 81.79C39.93 81.06 40.22 80.48 40.82 80.03C41.17 79.74 41.62 79.61 42.09 79.61L45.71 79.61C45.83 79.61 46.8 80.39 48.61 81.94C50.42 83.49 52.46 85.27 54.73 87.26C57 89.26 59.01 91.03 60.77 92.58L63.41 94.92L63.41 79.62L67.02 79.62C67.79 79.62 68.39 79.93 68.81 80.53C69.07 80.89 69.21 81.31 69.21 81.77L69.21 99.86C69.21 100.58 68.92 101.14 68.3 101.64C68.15 101.74 67.94 101.84 67.71 101.91ZM71.29 115.67C70.3 115.67 69.63 115.55 69.31 115.31C68.98 115.07 68.81 114.58 68.81 113.85L68.81 113.61L69.97 113.61L69.97 113.74C69.97 114.19 70.06 114.46 70.21 114.54C70.36 114.65 70.79 114.7 71.47 114.7C72 114.7 72.34 114.65 72.5 114.53C72.65 114.41 72.72 114.15 72.72 113.74C72.72 113.44 72.67 113.23 72.55 113.13C72.43 113.03 72.19 112.96 71.81 112.94L71.15 112.91C70.16 112.86 69.51 112.7 69.24 112.5C68.97 112.28 68.83 111.82 68.83 111.08C68.83 110.35 69 109.86 69.32 109.62C69.67 109.38 70.33 109.26 71.32 109.26C72.27 109.26 72.91 109.36 73.23 109.6C73.55 109.82 73.72 110.27 73.72 110.91L73.72 111.15L72.56 111.15C72.56 111.15 72.56 111.05 72.56 111.02C72.53 110.66 72.46 110.43 72.33 110.35C72.19 110.27 71.9 110.21 71.41 110.21C70.84 110.21 70.47 110.27 70.3 110.37C70.13 110.47 70.04 110.69 70.04 111.03C70.04 111.42 70.11 111.66 70.25 111.75C70.38 111.83 70.86 111.89 71.64 111.94C72.58 111.99 73.2 112.12 73.47 112.35C73.74 112.57 73.88 113.01 73.88 113.69C73.88 114.53 73.72 115.06 73.42 115.3C73.09 115.53 72.38 115.67 71.29 115.67ZM82.33 113.56L80.65 113.56L80.65 115.6L79.45 115.6L79.45 109.29L82.3 109.29C83.15 109.29 83.73 109.45 84.02 109.74C84.31 110.03 84.47 110.61 84.47 111.46C84.47 112.31 84.35 112.86 84.06 113.15C83.77 113.42 83.2 113.56 82.33 113.56ZM92.4 115.65C91.25 115.65 90.5 115.47 90.18 115.09C89.84 114.72 89.67 113.9 89.67 112.64C89.67 111.13 89.84 110.2 90.16 109.8C90.49 109.41 91.3 109.22 92.58 109.22C93.72 109.22 94.46 109.41 94.8 109.79C95.12 110.16 95.29 111.02 95.29 112.35C95.29 113.79 95.12 114.72 94.8 115.09C94.48 115.47 93.67 115.65 92.4 115.65ZM93.74 102L76.15 102C75.58 102 75.07 101.77 74.61 101.31C74.39 101.07 74.24 100.82 74.15 100.56C74.08 100.36 74.03 100.07 74.03 99.66L74.03 81.94C74.03 81.46 74.08 81.12 74.18 80.9C74.41 80.39 74.76 80.03 75.24 79.81C75.53 79.67 75.8 79.61 76.08 79.61L93.95 79.61C96.15 79.61 97.75 79.78 98.74 80.13C99.4 80.36 99.95 80.6 100.38 80.85C101.38 81.45 102.1 82.25 102.51 83.27C102.83 84.11 103 85.03 103 86.02C103 87.54 102.56 88.75 101.67 89.63C101.31 89.99 101.06 90.21 100.89 90.31C100.63 90.5 100.39 90.64 100.19 90.72C100.05 90.78 100 90.81 100 90.83C100.22 90.91 100.49 91.05 100.8 91.25C100.99 91.37 101.25 91.58 101.53 91.85C101.86 92.19 102.08 92.48 102.23 92.7C102.75 93.5 103 94.48 103 95.63C103 96.79 102.76 97.9 102.3 98.84C102.15 99.11 101.94 99.4 101.65 99.74C101.26 100.14 100.99 100.39 100.84 100.48C100.56 100.67 100.26 100.85 99.88 101.04C99.44 101.26 98.91 101.42 98.23 101.62C97.27 101.86 95.77 102 93.74 102ZM105.9 115.6L104.71 115.6L104.71 114.46C104.71 113.81 104.38 113.49 103.75 113.49L102.03 113.49L102.03 115.62L100.84 115.62L100.84 109.31L103.94 109.31C104.71 109.31 105.25 109.45 105.54 109.72C105.83 109.99 105.99 110.47 105.99 111.17C105.99 111.8 105.92 112.24 105.76 112.48C105.61 112.72 105.32 112.87 104.86 112.98C105.56 113.03 105.9 113.42 105.9 114.2L105.9 115.6ZM114.15 110.37L114.15 115.6L112.96 115.6L112.96 110.37L111.13 110.37L111.13 109.29L116.03 109.29L116.05 110.37L114.15 110.37ZM123.6 115.67C122.61 115.67 121.95 115.55 121.62 115.31C121.3 115.07 121.13 114.58 121.13 113.85L121.13 113.61L122.29 113.61L122.29 113.74C122.29 114.19 122.37 114.46 122.52 114.54C122.68 114.65 123.1 114.7 123.79 114.7C124.32 114.7 124.66 114.65 124.81 114.53C124.96 114.41 125.03 114.15 125.03 113.74C125.03 113.44 124.98 113.23 124.86 113.13C124.74 113.03 124.5 112.96 124.13 112.94L123.46 112.91C122.47 112.86 121.83 112.7 121.55 112.5C121.28 112.28 121.14 111.82 121.14 111.08C121.14 110.35 121.31 109.86 121.64 109.62C121.98 109.38 122.64 109.26 123.63 109.26C124.62 109.26 125.22 109.36 125.54 109.6C125.87 109.82 126.04 110.27 126.04 110.91L126.04 111.15L124.86 111.15C124.86 111.15 124.86 111.05 124.86 111.02C124.83 110.66 124.76 110.43 124.62 110.35C124.49 110.27 124.2 110.21 123.7 110.21C123.14 110.21 122.76 110.27 122.59 110.37C122.42 110.47 122.34 110.69 122.34 111.03C122.34 111.42 122.41 111.66 122.54 111.75C122.68 111.83 123.16 111.89 123.94 111.94C124.88 111.99 125.49 112.12 125.76 112.35C126.04 112.57 126.17 113.01 126.17 113.69C126.17 114.53 126.04 115.06 125.73 115.3C125.41 115.53 124.69 115.67 123.6 115.67ZM114.83 102C112.77 102 110.86 101.35 109.11 100.09C108.82 99.86 108.41 99.49 107.88 98.98C107.35 98.41 106.99 97.95 106.8 97.6C105.78 96.03 105.27 94.29 105.27 92.41L105.27 89.17C105.27 86.97 105.97 84.98 107.38 83.19C107.59 82.95 107.91 82.59 108.37 82.1C108.83 81.7 109.22 81.41 109.57 81.21C111.2 80.13 112.94 79.59 114.8 79.59L126.33 79.59C128.27 79.59 130.08 80.17 131.77 81.35C132.04 81.52 132.4 81.79 132.81 82.18C132.87 82.23 132.94 82.3 133.01 82.35C133.54 82.95 133.91 83.41 134.15 83.73C135.28 85.4 135.84 87.23 135.84 89.24L135.84 92.34C135.84 94.71 135.07 96.83 133.54 98.67C133.06 99.2 132.65 99.57 132.35 99.79C131.82 100.24 131.25 100.61 130.69 100.9C129.29 101.64 127.84 102 126.31 102L114.83 102ZM137.19 115.6L136.32 112.36C136.23 112.07 136.15 111.68 136.03 111.19L135.94 110.79L135.82 111.19L135.74 111.58C135.67 111.83 135.6 112.11 135.53 112.36L134.63 115.58L132.87 115.58L131.24 109.28L132.47 109.28L133.37 112.74C133.42 112.96 133.49 113.27 133.57 113.66L133.68 114.12L133.76 114.58C133.81 114.37 133.88 114.22 133.91 114.12L134.02 113.66C134.07 113.42 134.15 113.11 134.25 112.74L135.23 109.28L136.63 109.28L137.58 112.74C137.67 113.03 137.73 113.33 137.82 113.66L137.92 114.12L138.04 114.58L138.18 114.12L138.28 113.66C138.37 113.28 138.43 112.98 138.5 112.74L139.44 109.28L140.67 109.28L138.96 115.6L137.19 115.6ZM145.8 115.6L145.8 109.29L150.11 109.29L150.11 110.3L146.99 110.3L146.99 111.92L149.94 111.92L149.94 112.81L146.99 112.81L146.99 114.6L150.13 114.6L150.15 115.6L145.8 115.6ZM159.58 114.39L156.85 114.39L156.46 115.6L155.19 115.6L157.29 109.29L159.08 109.29L161.21 115.6L159.99 115.6L159.58 114.39ZM160.6 98.46C160.43 98.16 160.33 97.99 160.31 97.97L144.93 97.97C144.89 97.99 144.81 98.07 144.81 98.14L143.36 100.68C142.71 101.57 141.84 102.01 140.75 102.01L135.84 102.01C138.21 97.8 140.24 94.17 142 91.08C143.39 88.63 144.52 86.65 145.37 85.13C146.7 82.78 147.4 81.57 147.47 81.46C147.64 81.14 147.83 80.85 148.02 80.61C148.63 79.95 149.38 79.61 150.23 79.61L154.94 79.61C155.89 79.61 156.7 80 157.34 80.8C157.51 81.04 157.74 81.4 157.99 81.89C158.03 81.96 158.08 82.03 158.11 82.08C158.21 82.23 159.03 83.68 160.58 86.43C161.03 87.21 161.52 88.1 162.1 89.1C165.63 95.33 167.44 98.52 167.54 98.65L169.42 102.01L164.45 102.01C163.14 102.01 162.2 101.38 161.57 100.14C161.13 99.39 160.8 98.82 160.6 98.46ZM171.56 115.6L170.37 115.6L170.37 114.46C170.37 113.81 170.05 113.49 169.42 113.49L167.69 113.49L167.69 115.62L166.5 115.62L166.5 109.31L169.6 109.31C170.37 109.31 170.92 109.45 171.21 109.72C171.5 109.99 171.65 110.47 171.65 111.17C171.65 111.8 171.58 112.24 171.43 112.48C171.27 112.72 170.98 112.87 170.52 112.98C171.22 113.03 171.56 113.42 171.56 114.2L171.56 115.6ZM199.99 91.3C199.83 91.59 199.65 91.92 199.43 92.28C199.24 92.53 199 92.8 198.73 93.09C198.59 93.25 198.47 93.38 198.33 93.49L198.18 93.66L198.04 93.76L197.81 93.95C197.62 94.08 197.38 94.25 197.09 94.42C197.04 94.44 197 94.48 196.95 94.51C196.66 94.66 196.41 94.8 196.17 94.92C196.05 94.97 195.93 95.02 195.83 95.07C195.4 95.24 194.97 95.4 194.51 95.53C195.84 96.9 196.75 97.9 197.24 98.52C197.57 98.89 197.91 99.27 198.21 99.62C198.83 100.34 199.41 100.99 199.97 101.6C200.14 101.76 200.24 101.88 200.28 101.94L193.34 101.94C192.95 101.94 192.62 101.89 192.4 101.81C192.33 101.77 192.28 101.74 192.23 101.71C192.18 101.67 192.11 101.64 192.06 101.59C191.84 101.43 191.58 101.18 191.31 100.84C190.29 99.62 189.21 98.29 188.07 96.86L187.51 96.13C187.51 96.13 187.4 96.13 187.32 96.16C186.65 96.16 184.66 96.16 181.32 96.2L177.22 96.2L177.22 99.85C177.22 100.53 176.93 101.11 176.34 101.59C175.98 101.82 175.57 101.96 175.11 101.96L171.43 101.96L171.43 81.81C171.43 81.45 171.48 81.16 171.56 80.94C171.61 80.8 171.68 80.66 171.79 80.48C171.85 80.37 171.96 80.27 172.06 80.17C172.5 79.74 173.01 79.54 173.58 79.54L189.88 79.54C192.08 79.54 193.97 79.88 195.57 80.56C195.9 80.68 196.15 80.8 196.32 80.89C196.59 81.04 196.87 81.21 197.17 81.41C198.61 82.28 199.61 83.51 200.21 85.1C200.53 85.95 200.69 86.84 200.69 87.79L200.72 88.06C200.72 89.21 200.48 90.3 199.99 91.3ZM231.23 97.85C231.04 98.16 230.7 98.57 230.22 99.1C229.76 99.54 229.37 99.88 229.03 100.1C228.67 100.36 228.29 100.6 227.9 100.82C226.47 101.59 224.93 101.98 223.3 101.98L206.11 101.98C205.58 101.98 205.12 101.77 204.69 101.38C204.42 101.09 204.27 100.85 204.2 100.67C204.17 100.6 204.13 100.51 204.1 100.38L204 100.38L204 81.77C204 80.97 204.34 80.36 205.04 79.9C205.41 79.69 205.73 79.59 206.01 79.59L223.33 79.59C225.39 79.59 227.3 80.22 229.03 81.46C229.3 81.65 229.66 81.96 230.12 82.39C230.65 82.95 231 83.37 231.19 83.66C231.57 84.23 231.89 84.79 232.16 85.39C232.23 85.59 232.32 85.81 232.4 86.09C232.45 86.26 232.52 86.43 232.57 86.61C232.79 87.4 232.91 88.32 232.91 89.34L232.91 92.31C232.91 94.37 232.35 96.23 231.23 97.85Z" stroke="#707070" stroke-opacity="0" stroke-width="1.000000"/>
	</g>
	<g style="mix-blend-mode:normal">
		<path id="Path 74" d="M128.17 85.95C127.57 85.59 126.94 85.42 126.26 85.42L114.92 85.42C113.68 85.42 112.65 85.95 111.83 86.99C111.61 87.31 111.46 87.6 111.37 87.84C111.2 88.23 111.12 88.73 111.12 89.34L111.12 92.28C111.12 93.06 111.29 93.72 111.61 94.25C111.68 94.44 111.87 94.71 112.19 95.07C112.96 95.84 113.88 96.23 114.95 96.23L126.22 96.23C127.49 96.23 128.49 95.72 129.28 94.7C129.5 94.41 129.69 94.12 129.81 93.81C129.98 93.4 130.06 92.86 130.06 92.21L130.06 89.48C130.06 88.78 129.99 88.27 129.84 87.93C129.5 87.08 128.95 86.41 128.17 85.95Z" fill="#FFFFFF" fill-opacity="1.000000" fill-rule="nonzero"/>
		<path id="Path 74" d="M126.26 85.42L114.92 85.42C113.68 85.42 112.65 85.95 111.83 86.99C111.61 87.31 111.46 87.6 111.37 87.84C111.2 88.23 111.12 88.73 111.12 89.34L111.12 92.28C111.12 93.06 111.29 93.72 111.61 94.25C111.68 94.44 111.87 94.71 112.19 95.07C112.96 95.84 113.88 96.23 114.95 96.23L126.22 96.23C127.49 96.23 128.49 95.72 129.28 94.7C129.5 94.41 129.69 94.12 129.81 93.81C129.98 93.4 130.06 92.86 130.06 92.21L130.06 89.48C130.06 88.78 129.99 88.27 129.84 87.93C129.5 87.08 128.95 86.41 128.17 85.95C127.57 85.59 126.94 85.42 126.26 85.42Z" stroke="#707070" stroke-opacity="0" stroke-width="1.000000"/>
	</g>
	<g style="mix-blend-mode:normal">
		<path id="Path 75" d="M28.98 85.95C28.39 85.59 27.75 85.42 27.07 85.42L15.73 85.42C14.49 85.42 13.47 85.95 12.65 86.99C12.43 87.31 12.27 87.6 12.19 87.84C12.02 88.23 11.93 88.73 11.93 89.34L11.93 92.28C11.93 93.06 12.1 93.72 12.43 94.25C12.49 94.44 12.68 94.71 13 95.07C13.77 95.84 14.69 96.23 15.77 96.23L27.04 96.23C28.3 96.23 29.31 95.72 30.09 94.7C30.31 94.41 30.5 94.12 30.62 93.81C30.79 93.4 30.87 92.86 30.87 92.21L30.87 89.48C30.87 88.78 30.81 88.27 30.65 87.93C30.31 87.08 29.77 86.41 28.98 85.95Z" fill="#FFFFFF" fill-opacity="1.000000" fill-rule="nonzero"/>
		<path id="Path 75" d="M27.07 85.42L15.73 85.42C14.49 85.42 13.47 85.95 12.65 86.99C12.43 87.31 12.27 87.6 12.19 87.84C12.02 88.23 11.93 88.73 11.93 89.34L11.93 92.28C11.93 93.06 12.1 93.72 12.43 94.25C12.49 94.44 12.68 94.71 13 95.07C13.77 95.84 14.69 96.23 15.77 96.23L27.04 96.23C28.3 96.23 29.31 95.72 30.09 94.7C30.31 94.41 30.5 94.12 30.62 93.81C30.79 93.4 30.87 92.86 30.87 92.21L30.87 89.48C30.87 88.78 30.81 88.27 30.65 87.93C30.31 87.08 29.77 86.41 28.98 85.95C28.39 85.59 27.75 85.42 27.07 85.42Z" stroke="#707070" stroke-opacity="0" stroke-width="1.000000"/>
	</g>
	<g style="mix-blend-mode:normal">
		<path id="Path 76" d="M192.79 85.95C192.69 85.88 192.57 85.81 192.45 85.76C192.42 85.76 192.38 85.75 192.35 85.71C192.16 85.61 191.85 85.52 191.46 85.46C191.34 85.46 191.16 85.46 190.93 85.42L177.26 85.42L177.26 90.49L190.42 90.49C191.45 90.49 192.23 90.31 192.78 89.96C193.17 89.7 193.44 89.38 193.63 88.97C193.78 88.66 193.85 88.3 193.85 87.91C193.85 87.13 193.51 86.48 192.79 85.95Z" fill="#FFFFFF" fill-opacity="1.000000" fill-rule="nonzero"/>
		<path id="Path 76" d="M192.45 85.76C192.42 85.76 192.38 85.75 192.35 85.71C192.16 85.61 191.85 85.52 191.46 85.46C191.34 85.46 191.16 85.46 190.93 85.42L177.26 85.42L177.26 90.49L190.42 90.49C191.45 90.49 192.23 90.31 192.78 89.96C193.17 89.7 193.44 89.38 193.63 88.97C193.78 88.66 193.85 88.3 193.85 87.91C193.85 87.13 193.51 86.48 192.79 85.95C192.69 85.88 192.57 85.81 192.45 85.76Z" stroke="#707070" stroke-opacity="0" stroke-width="1.000000"/>
	</g>
	<g style="mix-blend-mode:normal">
		<path id="Path 77" d="M82.13 110.31L80.65 110.31L80.65 112.57L82.01 112.57C82.56 112.57 82.9 112.5 83.05 112.38C83.2 112.26 83.27 111.95 83.27 111.49C83.27 110.96 83.2 110.62 83.09 110.5C82.97 110.38 82.64 110.31 82.13 110.31Z" fill="#FFFFFF" fill-opacity="1.000000" fill-rule="nonzero"/>
		<path id="Path 77" d="M80.65 110.31L80.65 112.57L82.01 112.57C82.56 112.57 82.9 112.5 83.05 112.38C83.2 112.26 83.27 111.95 83.27 111.49C83.27 110.96 83.2 110.62 83.09 110.5C82.97 110.38 82.64 110.31 82.13 110.31L80.65 110.31Z" stroke="#707070" stroke-opacity="0" stroke-width="1.000000"/>
	</g>
	<g style="mix-blend-mode:normal">
		<path id="Path 78" d="M161.23 12.66C160.51 11.67 159.34 10.28 157.74 8.44C157.51 8.25 157.29 8.06 157.1 7.89C155.83 6.71 154.77 5.86 153.92 5.35C148.77 1.79 143.24 0 137.33 0L102.13 0C96.5 0 91.18 1.65 86.17 4.96C85.17 5.54 83.94 6.44 82.54 7.65C81.14 9.15 80.12 10.28 79.49 10.99C75.21 16.45 73.06 22.54 73.06 29.25L73.06 39.13C73.06 44.86 74.61 50.12 77.73 54.93C78.33 56.01 79.42 57.42 81.02 59.16C82.62 60.73 83.87 61.86 84.76 62.54C90.09 66.43 95.91 68.37 102.23 68.37L137.24 68.37C141.95 68.37 146.45 67.26 150.69 65.03C152.43 64.14 154.1 63.02 155.76 61.65C156.7 60.97 157.92 59.83 159.39 58.21C164.08 52.58 166.41 46.15 166.41 38.92L166.41 29.46C166.41 23.34 164.66 17.75 161.23 12.66ZM130.47 53.81C129.06 54.9 125.78 55.45 120.67 55.45C114.1 55.45 110.08 54.99 108.61 54.03C107.14 53.09 106.39 50.52 106.39 46.31L106.34 45.04L95.21 45.04L95.26 47.24C95.26 54.25 96.81 58.89 99.91 61.19C101.09 62.06 102.76 62.78 104.86 63.31C99.49 63.29 94.49 61.6 89.96 58.28C89.21 57.68 88.12 56.69 86.75 55.34C85.37 53.86 84.4 52.65 83.9 51.73C81.24 47.6 79.85 43.1 79.85 38.19L79.85 29.73C79.85 23.99 81.74 18.82 85.42 14.13C85.95 13.52 86.89 12.61 88.1 11.32C89.31 10.28 90.33 9.59 91.2 9.1C95.48 6.27 100.05 5.03 104.86 5.03L105.2 5.03C103.09 5.03 101.43 6.08 100.24 6.97C97.05 9.3 95.45 13.79 95.45 20.83C95.45 27.87 96.78 32.22 99.42 34.32C102.08 36.42 108.17 37.73 117.72 38.29L124.04 38.68C127.61 38.89 129.92 39.47 131 40.42C132.07 41.38 132.62 43.32 132.62 46.24C132.62 50.19 131.89 52.72 130.47 53.81ZM159.47 38.04C159.47 44.23 157.67 49.7 153.66 54.52C152.4 55.91 151.56 56.84 150.74 57.42C149.35 58.6 147.9 59.49 146.41 60.24C142.76 62.15 138.93 62.93 134.89 62.93L133.97 62.93C136.28 62.57 138.04 61.84 139.25 60.94C142.34 58.6 143.89 53.6 143.89 45.59C143.89 39.08 142.58 34.8 139.93 32.73C137.29 30.67 131.49 29.39 122.51 28.88C114.9 28.47 110.44 27.87 109.07 27.11C107.71 26.34 107.04 24.05 107.04 20.25C107.04 17.05 107.88 14.91 109.53 13.91C111.2 12.9 114.73 12.37 120.15 12.37C124.74 12.37 127.66 12.75 128.9 13.62C130.15 14.49 130.9 16.48 131.15 19.86C131.15 20.13 131.19 20.13 131.24 20.83L142.95 20.83L142.95 19.08C142.95 12.83 141.11 8.84 137.96 6.7C136.85 5.95 135.11 5.04 133.28 5.04L134.97 5.04C140.04 5.04 144.76 6.39 149.16 9.46C149.89 9.9 150.78 10.46 151.87 11.47C152.04 11.61 152.18 11.76 152.36 11.93C153.75 13.5 154.63 14.71 155.25 15.55C158.18 19.89 159.46 24.69 159.46 29.92L159.47 38.04Z" fill="#FFFFFF" fill-opacity="1.000000" fill-rule="nonzero"/>
		<path id="Path 78" d="M157.74 8.44C157.51 8.25 157.29 8.06 157.1 7.89C155.83 6.71 154.77 5.86 153.92 5.35C148.77 1.79 143.24 0 137.33 0L102.13 0C96.5 0 91.18 1.65 86.17 4.96C85.17 5.54 83.94 6.44 82.54 7.65C81.14 9.15 80.12 10.28 79.49 10.99C75.21 16.45 73.06 22.54 73.06 29.25L73.06 39.13C73.06 44.86 74.61 50.12 77.73 54.93C78.33 56.01 79.42 57.42 81.02 59.16C82.62 60.73 83.87 61.86 84.76 62.54C90.09 66.43 95.91 68.37 102.23 68.37L137.24 68.37C141.95 68.37 146.45 67.26 150.69 65.03C152.43 64.14 154.1 63.02 155.76 61.65C156.7 60.97 157.92 59.83 159.39 58.21C164.08 52.58 166.41 46.15 166.41 38.92L166.41 29.46C166.41 23.34 164.66 17.75 161.23 12.66C160.51 11.67 159.34 10.28 157.74 8.44ZM120.67 55.45C114.1 55.45 110.08 54.99 108.61 54.03C107.14 53.09 106.39 50.52 106.39 46.31L106.34 45.04L95.21 45.04L95.26 47.24C95.26 54.25 96.81 58.89 99.91 61.19C101.09 62.06 102.76 62.78 104.86 63.31C99.49 63.29 94.49 61.6 89.96 58.28C89.21 57.68 88.12 56.69 86.75 55.34C85.37 53.86 84.4 52.65 83.9 51.73C81.24 47.6 79.85 43.1 79.85 38.19L79.85 29.73C79.85 23.99 81.74 18.82 85.42 14.13C85.95 13.52 86.89 12.61 88.1 11.32C89.31 10.28 90.33 9.59 91.2 9.1C95.48 6.27 100.05 5.03 104.86 5.03L105.2 5.03C103.09 5.03 101.43 6.08 100.24 6.97C97.05 9.3 95.45 13.79 95.45 20.83C95.45 27.87 96.78 32.22 99.42 34.32C102.08 36.42 108.17 37.73 117.72 38.29L124.04 38.68C127.61 38.89 129.92 39.47 131 40.42C132.07 41.38 132.62 43.32 132.62 46.24C132.62 50.19 131.89 52.72 130.47 53.81C129.06 54.9 125.78 55.45 120.67 55.45ZM153.66 54.52C152.4 55.91 151.56 56.84 150.74 57.42C149.35 58.6 147.9 59.49 146.41 60.24C142.76 62.15 138.93 62.93 134.89 62.93L133.97 62.93C136.28 62.57 138.04 61.84 139.25 60.94C142.34 58.6 143.89 53.6 143.89 45.59C143.89 39.08 142.58 34.8 139.93 32.73C137.29 30.67 131.49 29.39 122.51 28.88C114.9 28.47 110.44 27.87 109.07 27.11C107.71 26.34 107.04 24.05 107.04 20.25C107.04 17.05 107.88 14.91 109.53 13.91C111.2 12.9 114.73 12.37 120.15 12.37C124.74 12.37 127.66 12.75 128.9 13.62C130.15 14.49 130.9 16.48 131.15 19.86C131.15 20.13 131.19 20.13 131.24 20.83L142.95 20.83L142.95 19.08C142.95 12.83 141.11 8.84 137.96 6.7C136.85 5.95 135.11 5.04 133.28 5.04L134.97 5.04C140.04 5.04 144.76 6.39 149.16 9.46C149.89 9.9 150.78 10.46 151.87 11.47C152.04 11.61 152.18 11.76 152.36 11.93C153.75 13.5 154.63 14.71 155.25 15.55C158.18 19.89 159.46 24.69 159.46 29.92L159.47 38.04C159.47 44.23 157.67 49.7 153.66 54.52Z" stroke="#707070" stroke-opacity="0" stroke-width="1.000000"/>
	</g>
</svg>
