<svg width="238.118713" height="80.357422" viewBox="0 0 238.119 80.3574" fill="none" xmlns="http://www.w3.org/2000/svg" xmlns:xlink="http://www.w3.org/1999/xlink">
	<desc>
			Created with Pixso.
	</desc>
	<defs/>
	<mask id="mask1_421" mask-type="alpha" maskUnits="userSpaceOnUse" x="0.000000" y="0.000000" width="238.118713" height="80.357422">
		<g style="mix-blend-mode:normal">
			<rect id="Rectangle 50" width="238.118713" height="80.357658" fill="#C4C4C4" fill-opacity="1.000000"/>
		</g>
	</mask>
	<g mask="url(#mask1_421)">
		<g style="mix-blend-mode:normal">
			<path id="Path 152" d="M85.31 40.65C85.31 40.65 83.3 43.35 82.47 44.19C81.92 44.75 79.84 47.07 79.84 47.07C79.84 47.07 81.01 41.2 81.32 39.36C81.53 38.15 81.82 37.36 81.64 36.89C81.24 35.84 78.86 35.45 78.86 35.45C77.58 37.02 76.65 38.35 75.54 39.69C74.37 41.11 73.79 41.77 73.28 42.46C73.28 42.46 73.74 35.92 73.87 34.46C73.95 33.59 73.03 33.4 72.33 33.09C71.63 32.79 71.01 32.53 70.89 32.7C70.65 33.02 67.64 37.05 66.97 37.83C66.29 38.62 63.88 41.66 63.27 42.38C62.66 43.1 59.93 46.64 60.03 45.81C60.13 44.98 60.27 44.42 60.59 42.78C60.9 41.18 61.28 40.33 61.67 38.81C62.08 37.18 62.28 36.97 62.38 36.02C62.47 35.06 62.1 35.12 61.21 34.59C60.48 34.16 59.96 33.9 59.26 33.85C58.55 33.79 57.04 38.43 54.85 42.09C54.85 42.09 50.59 48.03 49.26 48.07C47.32 48.14 48.95 42.95 49.72 40.88C50.02 40.07 50.88 38.44 52.13 36.39C53.14 34.74 55.95 32.25 55.95 32.25C55.95 32.25 57.04 31.41 58.33 30.36C59.63 29.3 57.21 27.59 57.21 27.59L56 26.78C56 26.78 52.17 28.65 46.29 36.29C42.35 41.41 35.68 49.08 35.68 49.08L34.65 50.32L34.79 49.16L35.56 43.99L35.71 42.59L35.67 42.48L35.4 42.26L33.15 40.85L30.87 44.3L26.54 50.28L25.71 51.25L29.71 39.27L30.3 37.35L30.16 36.98L28.7 35.88L21.88 39.91L21.99 39.7C21.99 39.7 32.35 18.11 32.44 17.92C32.54 17.73 32.46 17.5 32.32 17.24C32.1 16.81 29.83 15.44 29.42 15.3C29.18 15.23 28.9 15.51 29.01 15.42C29.11 15.33 10.89 33.94 10.74 34.13C10.59 34.33 10.52 34.65 10.55 34.92C10.59 35.18 10.95 36.52 10.95 36.52L11.41 37.79L11.96 39.19L12.69 40.73L13.02 41.29C13.02 41.29 13.15 41.44 13.27 41.37C13.38 41.29 14.46 40.46 14.46 40.46C14.46 40.46 15.71 39.46 15.85 39.37C16 39.27 15.91 39.14 15.91 39.14L15.35 38.03L14.17 35.51L14.17 35.32L14.27 35.1L14.53 34.83L25.18 23.65L26.41 22.46L16.14 43.26L0.07 53.76L6.1e-5 53.87L0.01 53.98L0.24 54.21C0.24 54.21 11.73 59.16 12.16 59.35C12.58 59.54 12.89 59.03 12.89 59.03L19.97 43.85C20.63 43.47 21.27 43.1 21.81 42.8C23.69 41.77 25.37 41.08 25.37 41.08L20.46 57.11C20.53 57.54 20.35 57.39 22.5 58.68C24.7 60.01 31.31 48.12 31.31 48.12L30.76 56.09L32.92 57.22L44.76 42.51C44.76 42.51 42.29 48.15 45.69 50.61C48.58 52.7 51.36 50.46 53.03 49.02C54.7 47.57 56.15 45.56 56.15 45.56L55.87 46.58L54.63 51.78C54.63 51.78 56.46 53.03 57.28 53C58.1 52.98 68.89 39.51 68.89 39.51L68.12 49.43C68.12 49.43 69.85 51.12 70.81 50.63C71.76 50.13 74.05 46.87 75.41 45.22C77.36 42.87 77.51 42.4 77.17 43.98C76.99 44.82 76.94 44.82 76.6 46.83L76.13 49.33C76.13 49.33 76.99 50.37 78.59 51.34C79.14 51.68 80.22 50.5 81.59 49.06C83.69 46.86 86.27 43.8 87.14 42.78C87.89 41.9 85.31 40.65 85.31 40.65ZM10.44 54.7C10.44 54.7 10.27 55.19 9.82 54.94C9.01 54.55 6.54 53.41 5.88 53.1C5.75 53.04 5.86 52.95 5.89 52.93C6.8 52.37 10.38 49.89 13.98 47.52L10.44 54.7Z" fill="#FFFFFF" fill-opacity="1.000000" fill-rule="nonzero"/>
		</g>
	</g>
	<g mask="url(#mask1_421)">
		<g style="mix-blend-mode:normal">
			<path id="Path 153" d="M95.6 43.59C96.23 41.69 101.82 33.63 103.82 31.09C106.77 27.34 109.1 24.46 110.84 22.6C113.65 19.61 111.63 21.19 120.91 13.24C130.2 5.3 140.84 0 140.84 0C140.84 0 144.11 0.72 143.84 1.81C143.56 2.9 140.79 4.85 138.67 7.79C136.53 10.75 134.59 15.22 133.32 19.12C132.05 23.02 131.96 24.2 130.6 28.18C129.24 32.17 126.98 35.25 125.25 36.89C123.53 38.52 121.12 39.55 118.22 39.28C115.32 39 112.71 36.17 112.71 36.17C112.71 36.17 113.99 33.65 114.89 32.81C115.19 32.54 115.6 32.8 115.95 33.28C117.49 35.36 118.33 36.02 119.76 36.22C121.52 36.47 125.01 34.41 126.06 29.86C126.62 27.4 126.92 25.77 128.17 21.77C129.51 17.5 129.26 17.39 133.58 8.46C121.7 17.05 122.02 17.01 120.53 18.32C117.55 20.9 110.69 28.33 107.95 32.52C105.24 36.69 100.07 44.98 99.41 46.28C98.92 47.26 98.59 48.28 97.6 47.91C96.22 47.39 94.96 45.49 95.6 43.59Z" fill="#FFFFFF" fill-opacity="1.000000" fill-rule="evenodd"/>
		</g>
	</g>
	<g mask="url(#mask1_421)">
		<g style="mix-blend-mode:normal">
			<path id="Path 154" d="M232.36 10.6C232.12 10.31 229.36 9.13 229.16 9.39C226.87 12.4 223.57 16.05 223.57 16.05L217.32 22.73C217.32 22.73 213.72 26.58 212.99 26.84C212.31 27.07 217.99 14.79 217.99 14.79C217.99 14.79 218.54 13.74 218.14 13.29C217.74 12.84 214.83 12.1 214.83 12.1C214.83 12.1 208.75 19.37 207.2 21.27C205.65 23.17 203.2 25.58 203.2 25.58C203.2 25.58 201.89 27.1 201.89 26.84C201.89 26.52 202.25 24.93 202.72 22.7C203.29 20.03 204.23 17.03 204.23 17.03C204.23 17.03 203.83 16.65 202.68 16.21C201.67 15.83 200.54 15.63 200.54 15.63C200.54 15.63 200.36 15.72 200.12 15.99C198.71 17.55 194.2 23.25 193.98 23.55C194.14 23.29 195.43 17.77 195.44 16.08C195.44 16.08 195 15.89 193.99 15.39C193.65 15.22 193.14 15.09 192.59 15.67C191.26 17.07 188.73 19.4 185.2 19.91C183.4 20.17 182.08 19.88 180.72 19.77C180.19 19.73 178.49 22.2 178.84 22.64C179.07 22.92 179.46 23.12 180.15 23.04C181.13 22.93 180.51 23.16 180.51 23.16L169.38 34.75C169.38 34.75 171.25 25.89 170.9 25.44C170.55 24.99 169.1 24.74 168.4 24.69C167.7 24.64 162.05 32.13 160.85 33.18C160.31 33.65 160.92 31.49 161.05 30.07C161.21 28.34 161.49 26.38 161.18 26.11C160.75 25.74 159.95 25.34 159.5 25.24C159.05 25.13 158.73 25.23 158.35 25.59C157.91 26 152.37 33.01 152.37 33.01C152.29 33.53 153.36 24.67 153.46 24.3C153.49 24.15 152.64 22.73 151.5 22.49C151.01 22.38 149.62 24.08 147.92 25.84C145.57 28.27 142.81 31.04 142.81 31.04C142.81 31.04 146.13 20.59 146.13 19.94C146.13 19.29 143.33 18.32 143 18.35C142.72 18.38 142.25 19.08 141.75 20.11C140.92 21.83 139.77 23.47 138.57 25.12C138.26 25.54 134.17 30.9 131.78 33.47C131 34.3 130.5 35 130.23 35.33C129.63 36.08 131.75 36.48 131.75 36.48L132.1 36.53L132.32 36.34L132.49 36.13L132.9 35.79L139.53 27.4L139.67 27.14L137.39 35.23C137.39 35.23 138.58 36.67 139.81 36.6C140.92 36.53 148.93 27.94 148.93 27.94C148.93 27.94 147.25 37.75 147.25 38.33C147.25 38.92 149.99 40.47 150.46 40.08C151.31 39.37 152.42 37.21 153.9 35.21C155.07 33.63 157.11 30.95 157.33 30.79C157.67 30.54 157.65 31.25 157.65 31.25L156.05 39.27C156.05 39.27 157.79 40.23 158.62 40.12C159.33 40.02 164.74 32.39 164.74 32.39C164.74 32.39 165.78 30.95 166.04 30.82C166.31 30.69 166.31 31.02 166.31 31.02L165.2 38.13C165.2 38.13 166.72 39.1 168.29 38.92C168.9 38.85 169.19 38.34 169.72 37.77C170.45 37 172.88 34.16 172.88 34.16L176.92 30.01C176.92 30.01 176.38 31.26 176.35 32.81C176.32 35.24 178.5 36.02 179.36 36.1C180.85 36.22 181.35 35.95 181.35 35.95C181.35 35.95 182.86 35.56 184.43 33.76C184.97 33.13 185.93 31.87 186.43 30.1C186.98 28.16 187.38 24.32 186.06 23.2C185.29 22.55 184.76 22.21 184.76 22.21C184.76 22.21 187.07 21.84 188.59 21.16C189.88 20.58 191.54 19.62 191.68 19.03C190.49 24.2 190.33 24.35 189.86 26.31C189.46 27.97 188.83 29.47 188.83 29.47L191.28 30.98L191.41 31L191.52 30.95L198.92 21.02C198.92 21.02 197.83 26.64 197.61 27.5C197.29 28.7 197.48 29.13 197.48 29.13C197.48 29.13 200.09 30.51 200.74 30.7C201.39 30.9 206.84 25.2 207.36 24.61C207.88 24.02 211.72 19.48 211.72 19.48C211.72 19.48 211.88 19.37 211.74 19.71C211.2 20.99 209.94 24.57 209.47 26.68C209.03 28.52 209.57 28.95 209.57 28.95C209.57 28.95 211.4 30.53 213.41 29.88C215.85 29.08 227.59 15.42 227.39 15.67C227.39 15.67 226.79 18.04 226.91 21.67C227.05 25.72 227.13 25.22 227.13 25.81C227.13 26.77 226.99 27.27 226.64 27.48C226.26 27.7 225.97 27.56 225.7 27.17C225.47 26.84 225.39 26.62 225.26 26.29C224.92 25.47 224.86 25.15 224.76 24.86C224.61 24.4 224.4 24.09 224.14 24.11C223.73 24.14 223.14 24.39 222.57 24.86C222.01 25.32 221.81 25.55 221.42 26.07C221.18 26.39 221.16 26.77 221.53 27.59C221.97 28.56 221.65 29.34 221.32 29.79C205.6 48.65 164.98 48.17 147.02 49.3C130.3 50.35 102.26 52.31 78.03 58.67C59.85 63.44 53.76 65.51 39.71 72.74C37.76 73.75 37.48 73.99 37.16 74.24C36.76 74.57 36.8 74.92 36.95 75.14C37.11 75.36 41.23 79.74 41.9 80.21C42.38 80.55 43.17 80.16 43.17 80.16C49.75 76.81 49.69 76.69 57.25 73.49C86.29 61.2 119.84 57.63 126.89 56.62C138.48 54.96 175.83 52.25 192 48.52C203.33 45.9 216.64 40.44 224.26 30.42C224.83 31.14 226.77 31.77 228.01 30.86C228.98 30.14 229.39 29.68 229.89 28.23C230.82 25.54 229.68 15.04 231.37 13.04C232.16 12.11 233.22 11.62 232.36 10.6ZM183.02 28.94C182.87 30.65 181.44 33.32 179.9 32.9C179.17 32.69 179 31.54 179.44 30.34C179.86 29.22 180.74 27.86 180.74 27.86L181.15 27.33C181.41 26.96 183.37 24.95 183.02 28.94Z" fill="#FFFFFF" fill-opacity="1.000000" fill-rule="evenodd"/>
		</g>
	</g>
	<g mask="url(#mask1_421)">
		<g style="mix-blend-mode:normal">
			<path id="Path 155" d="M218.03 4.36C219.23 3.99 221.14 4.84 220.55 7.25C220.18 8.75 218.3 9.25 217.22 8.99C215.28 8.53 215.69 6.52 216.07 5.83C216.55 4.96 217.19 4.7 217.19 4.7L218.03 4.36Z" fill="#FFFFFF" fill-opacity="1.000000" fill-rule="evenodd"/>
		</g>
	</g>
	<g mask="url(#mask1_421)">
		<g style="mix-blend-mode:normal">
			<path id="Path 156" d="M147.03 10.21C148.18 10.21 149.53 11.58 148.25 13.68C147.45 15 145.69 14.92 144.85 14.36C143.35 13.36 144.35 11.58 144.89 11.04C145.58 10.35 146.21 10.29 146.21 10.29L147.03 10.21Z" fill="#FFFFFF" fill-opacity="1.000000" fill-rule="evenodd"/>
		</g>
	</g>
	<g mask="url(#mask1_421)">
		<g style="mix-blend-mode:normal">
			<path id="Path 157" d="M115.95 68.37C115.31 67.79 114.68 67.62 114.17 67.62C113.47 67.62 112.97 67.97 112.97 68.48C112.97 69.88 116.25 69.86 116.25 72.18C116.25 73.32 115.35 74.15 114.13 74.15C113.31 74.15 112.64 73.94 112.01 73.48L112.01 72.16C112.56 72.84 113.26 73.21 114.01 73.21C114.85 73.21 115.24 72.7 115.24 72.29C115.24 70.79 111.96 70.62 111.96 68.62C111.96 67.44 112.87 66.68 114.26 66.68C114.84 66.68 115.42 66.85 115.95 67.19L115.95 68.37Z" fill="#FFFFFF" fill-opacity="1.000000" fill-rule="nonzero"/>
		</g>
	</g>
	<g mask="url(#mask1_421)">
		<g style="mix-blend-mode:normal">
			<rect id="Rectangle 48" x="121.781433" y="66.778320" width="0.942697" height="7.282688" fill="#FFFFFF" fill-opacity="1.000000"/>
		</g>
	</g>
	<g mask="url(#mask1_421)">
		<g style="mix-blend-mode:normal">
			<path id="Path 158" d="M134.11 74.06L133.17 74.06L133.17 68.39L131.13 71.21L130.97 71.21L128.96 68.39L128.94 74.06L128 74.06L128 66.77L128.88 66.77L131.05 69.76L133.23 66.77L134.11 66.77L134.11 74.06Z" fill="#FFFFFF" fill-opacity="1.000000" fill-rule="nonzero"/>
		</g>
	</g>
	<g mask="url(#mask1_421)">
		<g style="mix-blend-mode:normal">
			<path id="Path 159" d="M142.4 66.68C144.56 66.68 145.93 68.39 145.93 70.41C145.93 72.38 144.6 74.15 142.38 74.15C140.24 74.15 138.88 72.39 138.88 70.41C138.88 68.4 140.28 66.68 142.4 66.68ZM142.4 73.19C143.87 73.19 144.96 72 144.96 70.41C144.96 68.81 143.87 67.64 142.4 67.64C140.94 67.64 139.86 68.81 139.86 70.41C139.86 72 140.94 73.19 142.4 73.19Z" fill="#FFFFFF" fill-opacity="1.000000" fill-rule="nonzero"/>
		</g>
	</g>
	<g mask="url(#mask1_421)">
		<g style="mix-blend-mode:normal">
			<path id="Path 160" d="M156.61 74.06L155.8 74.06L151.42 68.45L151.42 74.06L150.53 74.06L150.53 66.77L151.28 66.77L155.72 72.41L155.72 66.77L156.61 66.77L156.61 74.06Z" fill="#FFFFFF" fill-opacity="1.000000" fill-rule="nonzero"/>
		</g>
	</g>
	<g mask="url(#mask1_421)">
		<g style="mix-blend-mode:normal">
			<rect id="Rectangle 49" x="161.522095" y="66.778320" width="0.942697" height="7.282688" fill="#FFFFFF" fill-opacity="1.000000"/>
		</g>
	</g>
	<g mask="url(#mask1_421)">
		<g style="mix-blend-mode:normal">
			<path id="Path 161" d="M171.47 68.37C170.82 67.79 170.2 67.62 169.69 67.62C168.99 67.62 168.49 67.97 168.49 68.48C168.49 69.88 171.77 69.86 171.77 72.18C171.77 73.32 170.87 74.15 169.65 74.15C168.82 74.15 168.16 73.94 167.52 73.48L167.52 72.16C168.08 72.84 168.78 73.21 169.52 73.21C170.37 73.21 170.76 72.7 170.76 72.29C170.76 70.79 167.48 70.62 167.48 68.62C167.48 67.44 168.39 66.68 169.78 66.68C170.36 66.68 170.93 66.85 171.47 67.19L171.47 68.37Z" fill="#FFFFFF" fill-opacity="1.000000" fill-rule="nonzero"/>
		</g>
	</g>
	<g mask="url(#mask1_421)">
		<g style="mix-blend-mode:normal">
			<path id="Path 162" d="M189.38 68.4C188.58 67.87 187.89 67.64 187.13 67.64C185.63 67.64 184.51 68.82 184.51 70.42C184.51 72.06 185.59 73.19 187.16 73.19C187.91 73.19 188.71 72.9 189.45 72.37L189.45 73.51C188.81 73.88 188.11 74.15 187.08 74.15C184.62 74.15 183.54 72.05 183.54 70.52C183.54 68.3 185.05 66.68 187.14 66.68C187.81 66.68 188.49 66.86 189.38 67.28L189.38 68.4Z" fill="#FFFFFF" fill-opacity="1.000000" fill-rule="nonzero"/>
		</g>
	</g>
	<g mask="url(#mask1_421)">
		<g style="mix-blend-mode:normal">
			<path id="Path 163" d="M195.38 73.12L198.34 73.12L198.34 74.06L194.44 74.06L194.44 66.77L195.38 66.77L195.38 73.12Z" fill="#FFFFFF" fill-opacity="1.000000" fill-rule="nonzero"/>
		</g>
	</g>
	<g mask="url(#mask1_421)">
		<g style="mix-blend-mode:normal">
			<path id="Path 164" d="M206.04 66.68C208.2 66.68 209.57 68.39 209.57 70.41C209.57 72.38 208.24 74.15 206.02 74.15C203.88 74.15 202.52 72.39 202.52 70.41C202.52 68.4 203.92 66.68 206.04 66.68ZM206.04 73.19C207.51 73.19 208.6 72 208.6 70.41C208.6 68.81 207.51 67.64 206.04 67.64C204.58 67.64 203.49 68.81 203.49 70.41C203.49 72 204.58 73.19 206.04 73.19Z" fill="#FFFFFF" fill-opacity="1.000000" fill-rule="nonzero"/>
		</g>
	</g>
	<g mask="url(#mask1_421)">
		<g style="mix-blend-mode:normal">
			<path id="Path 165" d="M218.91 67.71L216.64 67.71L216.64 74.06L215.7 74.06L215.7 67.71L213.43 67.71L213.43 66.77L218.91 66.77L218.91 67.71Z" fill="#FFFFFF" fill-opacity="1.000000" fill-rule="nonzero"/>
		</g>
	</g>
	<g mask="url(#mask1_421)">
		<g style="mix-blend-mode:normal">
			<path id="Path 166" d="M229 74.06L228.06 74.06L228.06 70.89L224.39 70.89L224.39 74.06L223.45 74.06L223.45 66.77L224.39 66.77L224.39 69.95L228.06 69.95L228.06 66.77L229 66.77L229 74.06Z" fill="#FFFFFF" fill-opacity="1.000000" fill-rule="nonzero"/>
		</g>
	</g>
	<g mask="url(#mask1_421)">
		<g style="mix-blend-mode:normal">
			<path id="Path 167" d="M236.23 13.85C236.57 13.85 236.88 13.93 237.17 14.09C237.46 14.25 237.69 14.47 237.86 14.75C238.03 15.03 238.11 15.33 238.11 15.65C238.11 15.98 238.03 16.28 237.86 16.56C237.7 16.83 237.47 17.05 237.18 17.21C236.89 17.38 236.57 17.46 236.23 17.46C235.9 17.46 235.58 17.38 235.29 17.22C235 17.06 234.77 16.84 234.6 16.56C234.44 16.28 234.35 15.98 234.35 15.65C234.35 15.33 234.44 15.03 234.6 14.75C234.77 14.47 235 14.25 235.29 14.09C235.58 13.93 235.9 13.85 236.23 13.85ZM236.23 14.15C235.8 14.15 235.43 14.29 235.13 14.59C234.82 14.88 234.67 15.24 234.67 15.65C234.67 16.07 234.82 16.42 235.13 16.72C235.43 17.01 235.8 17.16 236.23 17.16C236.67 17.16 237.03 17.01 237.34 16.72C237.65 16.42 237.8 16.07 237.8 15.65C237.8 15.24 237.64 14.88 237.34 14.59C237.03 14.29 236.66 14.15 236.23 14.15ZM235.81 16.62L235.48 16.62L235.48 14.68L236.18 14.68C236.43 14.68 236.6 14.7 236.71 14.74C236.81 14.78 236.89 14.84 236.95 14.93C237.01 15.01 237.04 15.11 237.04 15.21C237.04 15.35 236.99 15.48 236.88 15.58C236.77 15.68 236.64 15.74 236.47 15.75C236.54 15.78 236.61 15.83 236.68 15.9C236.75 15.97 236.83 16.09 236.94 16.25L237.18 16.62L236.78 16.62L236.61 16.32C236.48 16.1 236.38 15.96 236.3 15.89C236.23 15.83 236.13 15.8 236 15.8L235.81 15.8L235.81 16.62ZM235.81 14.95L235.81 15.53L236.21 15.53C236.38 15.53 236.5 15.51 236.58 15.46C236.66 15.41 236.69 15.34 236.69 15.23C236.69 15.13 236.66 15.05 236.58 15.01C236.51 14.97 236.37 14.95 236.18 14.95L235.81 14.95Z" fill="#FFFFFF" fill-opacity="1.000000" fill-rule="nonzero"/>
		</g>
	</g>
</svg>
