<svg width="291.749756" height="96.320312" viewBox="0 0 291.75 96.3203" fill="none" xmlns="http://www.w3.org/2000/svg" xmlns:xlink="http://www.w3.org/1999/xlink">
	<desc>
			Created with Pixso.
	</desc>
	<defs/>
	<mask id="mask1_413" mask-type="alpha" maskUnits="userSpaceOnUse" x="0.000000" y="0.000000" width="291.749756" height="96.320312">
		<g style="mix-blend-mode:normal">
			<rect id="Rectangle 47" width="291.749756" height="96.320183" fill="#C4C4C4" fill-opacity="1.000000"/>
		</g>
	</mask>
	<g mask="url(#mask1_413)">
		<g style="mix-blend-mode:normal">
			<path id="Path 146" d="M145.87 -0.01C65.3 -0.01 0 21.55 0 48.15C0 74.75 65.3 96.32 145.87 96.32C226.43 96.32 291.75 74.75 291.75 48.15C291.75 21.55 226.43 -0.01 145.87 -0.01ZM145.87 93.53C71.91 93.53 11.96 73.21 11.96 48.15C11.96 23.09 71.91 2.78 145.87 2.78C219.82 2.78 279.77 23.09 279.77 48.15C279.77 73.21 219.82 93.53 145.87 93.53Z" fill="#FFFFFF" fill-opacity="1.000000" fill-rule="nonzero"/>
		</g>
	</g>
	<g mask="url(#mask1_413)">
		<g style="mix-blend-mode:normal">
			<path id="Path 147" d="M71.29 49.78L72.19 48.94L74.5 49.9L74.96 50.3L74.28 52.37L73.83 52.37L71.41 54.8L70 54.29L70.11 53.89L71.64 51.87L71.64 51.47L71.29 49.78ZM78 39.2L78.89 37.96L80.75 38.35L81.2 38.86L81.09 39.76L77.76 41.29L77.26 40.77L76.81 40.39L77.49 39.09L78 39.2ZM48.78 15.1L50.74 14.37L53.5 14.48L53.39 14.87L53.9 15.27L54.35 15.27L54.57 18.25L55.02 20.34L54.24 26.2L50.74 28.61L51.08 29.85L53.39 32.05L53.05 36.27L52.49 39.2L51.08 39.65L50.52 40.39L50.97 40.77L56.77 38.57L73.38 29.69L73.83 29.23L79.13 26.64L80.08 25.8L81.43 25.85L81.88 25.06L84.31 23.88L84.75 23.15L93.42 18.03L96.18 18.65L97.93 19.89L97.93 21.58L93.53 24.28L92.52 25.97L89.48 28.84L89.03 30.48L86.16 32.38L86.16 32.78L84.52 35.76L82.11 36.89L81.32 36.38L81.77 35.54L81.99 32.67L84.75 31.54L85.26 31.54L84.41 28.95L83.97 28.95L78.33 32.05L76.92 33.23L71.64 35.09L65.05 38.57L55.47 44.04L54.57 43.87L49.73 47.48L50.97 49.67L52.83 50.51L53.16 51.36L53.05 52.21L59.08 52.93L61.27 55.13L65.89 55.35L72.31 56.87L74.5 57.89L81.32 59.47L84.52 60.48L91.79 62.06L96.4 63.53L99.16 63.58L102.66 65.5L104.52 65.22L106.82 66.17L108.17 65.84L110.49 66.79L115.1 66.17L118.81 67.07L118.7 68.36L117.3 69.21L113.58 68.99L110.37 69.26L104.4 68.59L100.69 68.36L98.04 66.96L94.21 67.57L91.11 66.28L89.25 66.57L87.91 65.61L84.64 65.5L80.98 64.09L79.68 63.97L79.13 64.37L76.92 63.97L75.07 63.86L74.05 64.59L73.61 64.59L71.41 63.19L69.66 62.67L68.2 63.41L66 62.9L65.49 62.46L65.49 61.21L64.14 60.37L60.94 60.59L59.63 59.64L58.62 60.88L54.91 61.55L51.81 59.35L50.74 60.99L48.44 61.21L48.21 64.59L49.95 68.48L52.83 72.3L52.83 72.76L52.38 73.16L50.07 73.16L50.07 73.99L50.85 75.29L54.46 76.58L54.91 76.19L56.54 73.1L58 71.41L60.31 70.28L59.63 68.48L63.08 63.19L65.89 63.3L65.27 64.98L64.82 65.38L65.15 68.36L64.14 69.61L63.58 70.9L60.2 74.39L58.85 73.89L57.78 75.58L58.62 76.87L54.8 79.96L52.04 80.3L51.93 80.7L49.95 82.39L48.55 82.72L45.45 80.42L45.34 79.17L43.48 78.27L40.72 69.72L40.94 66.39L40.61 64.26L40.83 61.33L40.39 60.08L40.39 59.64L42.02 57.56L40.27 54.97L37.62 52.88L37.74 51.59L41.51 47.48L41.17 39.37L41.68 39.48L42.57 39.2L43.37 40.05L43.93 38.81L44.21 33.73L43.82 33.34L42.13 31.99L42.36 26.54L43.37 25.8L43.82 26.2L44.32 26.2L44.32 25.8L45.23 23.77L45.23 23.38L43.48 22.47L44.66 19.09L46.97 18.36L47.43 18.36L47.87 17.97L48.55 15.38L48.78 15.1Z" fill="#FFFFFF" fill-opacity="1.000000" fill-rule="nonzero"/>
		</g>
	</g>
	<g mask="url(#mask1_413)">
		<g style="mix-blend-mode:normal">
			<path id="Path 148" d="M127.82 56.55L128.04 57.93L128.44 58.73L128.44 59.9L129.54 61.15L129.76 61.57L130.24 62.14L130.41 62.7L130.24 62.88L129.31 62.7L129.14 61.91L127.82 59.57L127.34 58.56L126.5 57.71L126.27 57.71L126.5 56.95L125.63 54.59L125.85 53.97L126.5 54.16L127.82 56.55ZM122.98 44L122.98 44.2L123.85 44.2L123.85 44.42L123.2 44.78L123.2 44.98L124.08 45.6L124.08 45.77L124.08 46L123.85 45.77L123.43 46L123.43 46.2L123.65 46.61L124.08 46.61L124.3 46.2L124.53 46.4L123.85 46.98L124.53 48.62L125.17 49.41L125.17 49.97L125.4 50.95L125.85 51.74L126.01 51.97L127.59 52.39L127.34 52.58L126.01 52.17L124.92 52.58L124.08 51.97L124.08 51.74L124.3 51.6L124.53 51.4L123.43 48.76L122.98 47.4L122.75 46.2L121.88 45.41L122.11 44.62L121.49 44L121.23 43.41L121.66 43.22L122.98 43.41L122.98 44ZM118.2 40.2L118.81 40.2L119.07 40.45L118.2 40.64L118.58 42L119.29 42L119.46 41.8L119.46 41.63L119.69 41.44L120.14 41.44L119.92 42.2L119.46 42.79L120.39 45.6L120.56 46.98L120.56 47.21L121.01 47.4L121.01 47.77L121.49 48.39L122.11 50.39L122.11 50.61L122.98 50.61L122.98 50.95L122.55 50.95L122.33 51.97L122.11 52.17L119.51 52.55L116.87 52.76L116.64 52.96L114.2 53.37L111.61 54.36L110.06 54.16L109.83 53.6L110.28 53.37L110.51 53.37L110.93 51.74L110.93 51.6L111.38 50.95L111.38 50.75L111.61 49.78L112.48 48.62L113.13 46.76L114.9 43.22L116 41.8L116.64 39.81L117.27 39.81L117.49 39.64L117.27 39.01L117.27 38.65L117.49 38.65L117.97 38.79L118.2 40.2ZM118.87 28.38L118.47 26.85L118.03 25.9L116.87 26.01L115.49 27.05L114.2 27.7L114.2 28.68L114.9 29.25L115.77 32.04L115.29 33.44L115.29 34.82L114.67 35.81L114.2 35.81L113.57 37.02L114.2 37.45L113.57 37.66L113.36 37.81L113.13 38.79L112.87 39.01L112.87 39.44L112.48 40.2L111.78 41.01L111.78 41.21L111.61 42.2L112.26 42.65L112.03 42.79L111.15 43.02L110.51 43.41L110.7 44.78L109.83 45.77L109.61 46.76L108.96 47.4L108.96 48L109.61 48.2L109.44 48.62L108.09 49.41L108.34 49.97L107.86 50.39L106.31 53.97L105.92 55.15L105.67 56.16L104.57 57.14L103.95 57.14L101.92 58.56L101.08 60.36L100.2 60.92L100.2 61.15L100.66 61.57L102.63 61.57L102.85 61.71L102.63 63.5L102.14 64.89L101.3 66.29L101.3 66.89L100.66 67.08L99.73 69.28L99.33 69.47L97.78 71.65L97.56 71.84L97.5 73.17L98.4 73.67L99.33 73.48L100.43 71.65L101.08 70.27L102.14 68.5L102.85 68.07L102.85 67.48L103.25 66.89L104.12 64.52L104.35 64.3L104.35 63.68L105.22 63.5L105.78 61.95L106.26 61.03L107.86 61.15L107.86 60.72L107.24 60.36L107.24 59.57L107.86 58.16L110.51 57.14L110.7 56.95L112.26 56.75L113.97 55.74L115.07 55.74L116 55.56L120.56 54.75L123.65 54.75L124.3 55.37L124.53 56.95L124.76 57.14L125.17 58.36L125.85 59.57L126.5 61.15L127.82 61.57L128.04 61.91L128.04 62.55L127.82 62.55L127.34 61.91L127.12 61.91L126.95 62.36L127.82 63.5L130.41 63.5L130.64 63.87L130.64 64.07L130.41 64.3L129.54 64.3L129.54 65.09L129.76 65.51L130.24 65.51L130.24 65.28L131.11 64.66L131.51 65.28L131.11 65.87L130.86 65.87L130.41 65.67L130.01 65.67L130.01 66.29L130.24 66.52L130.64 66.52L132.19 67.28L134.15 67.48L134.86 66.29L134.38 65.51L133.28 63.08L132.61 62.55L132.61 61.91L131.51 59.71L131.51 59.35L131.11 58.36L130.86 57.37L130.01 55.37L130.01 55.15L129.31 54.95L129.14 53.37L129.31 53.37L129.76 53.15L129.76 52.76L129.54 52.76L129.14 52.58L128.92 52.58L128.92 51.6L127.12 49.41L126.5 46.61L124.92 42.65L124.53 41.8L123.85 39.01L123.43 39.01L123.43 38.23L122.75 37.66L122.11 35.74L120.78 31.56L121.49 29.9L122.11 27.84L123.2 26.85L123.43 25.7L122.55 25.08L121.66 25.08L119.69 27.11L118.87 28.38Z" fill="#FFFFFF" fill-opacity="1.000000" fill-rule="nonzero"/>
		</g>
	</g>
	<g mask="url(#mask1_413)">
		<g style="mix-blend-mode:normal">
			<path id="Path 149" d="M140.37 67.19L141.52 65.92L142 65.92L142.45 66.35L142.22 67.61L141.52 68.85L142.22 69.5L142 70.97L140.84 71.39L140.14 70.73L140.37 69.5L140.37 67.19ZM151.68 26.12L152.84 24.88L153.51 24.88L154.05 26.57L154.67 29.47L154.61 29.91L155.48 33.61L155.99 35.16L156.24 36.43L156.47 39.32L158.08 49.4L160.16 54.64L161.6 54.64L165.73 49.82L167.14 48.56L167.59 46.87L168.52 46.27L168.75 45.63L169.45 44.59L169.68 44.36L170.12 44.16L170.35 43.32L171.28 43.12L171.98 41.63L174.52 39.12L175.19 38.7L175.45 37.86L175.67 37.66L176.35 37.46L176.58 37.46L176.58 36.82L177.5 35.97L177.72 35.97L178.88 34.74L178.88 34.51L179.81 34.74L181.19 37.02L180.96 38.93L180.96 41.86L180.73 43.12L180.96 44.59L180.96 48.36L182.12 50.48L183.97 51.51L184.43 51.71L184.65 52.13L189.5 52.33L191.57 51.91L193.44 51.91L194.11 51.71L195.04 51.29L197.34 51.51L198.02 51.71L198.28 51.91L197.8 52.75L195.49 53.37L195.27 53.37L194.34 53.6L193.18 54.02L191.35 54.22L188.34 54.22L186.74 54.64L186.5 55.06L186.28 55.06L185.8 54.64L185.36 54.64L185.36 55.29L184.2 55.29L183.72 54.22L182.34 55.29L181.44 55.06L180.03 54.22L179.81 53.82L178.65 53.82L177.05 52.98L175.67 50.66L175.67 47.71L175.19 47.32L175.67 45.83L175.45 43.32L174.52 42.9L174.52 43.12L174.03 43.52L173.59 43.52L173.13 44.59L172.66 44.78L171.05 47.51L169.68 49.4L168.97 49.82L166.21 53.37L166.21 53.82L162.75 57.17L161.14 57.17L159.28 58.83L157.2 59.26L156.53 58.83L155.37 56.32L155.15 55.48L154.67 55.06L154.67 54.86L153.99 54.44L153.99 54.02L154.67 53.6L154.67 53.37L153.74 53.37L153.74 53.17L153.51 52.98L153.29 51.71L153.99 51.07L153.29 50.86L153.06 48.98L152.13 48.56L152.13 48.36L152.36 47.51L152.61 47.32L152.61 47.1L151.68 47.32L151.2 47.51L150.76 48.98L149.83 49.4L149.6 50.22L149.83 50.48L149.38 51.29L148.9 51.29L148.9 51.91L149.38 52.13L149.38 52.33L149.15 52.53L148.9 52.53L148.67 52.13L147.74 53.82L148 54.02L148.45 54.86L147.52 55.29L147.74 56.13L147.07 56.97L146.62 56.97L146.62 57.17L147.07 57.99L146.36 58.41L146.36 58.21L146.13 57.99L145.92 57.99L145.46 59.03L145.21 59.87L144.53 61.76L143.83 62.18L144.05 63.23L144.76 64.07L144.05 64.71L142.68 64.92L142.68 65.31L142.45 65.73L141.78 65.5L141.78 65.1L142.22 64.71L141.07 64.92L140.84 64.3L141.07 63.23L141.29 63.02L142.22 63.02L142.68 61.37L142 60.33L142.89 59.26L143.15 57.57L143.38 57.37L144.76 57.37L144.76 56.72L144.31 56.72L143.83 56.52L143.83 56.32L144.31 55.91L144.31 55.68L144.05 55.68L143.83 55.06L144.31 54.64L144.98 54.64L144.98 54.44L144.76 53.6L145.21 53.17L145.21 51.91L145.46 51.51L146.62 50.48L146.36 48.98L146.84 48.79L147.07 47.94L147.29 47.94L148 45.21L148.67 44.59L148.67 43.12L149.6 41.44L149.83 39.12L150.76 37.46L150.76 37.24L150.3 36.82L149.38 36.43L149.15 35.97L149.38 35.77L150.05 35.57L150.3 35.35L149.38 34.31L148.9 32.43L149.6 32L149.15 30.12L149.38 29.91L149.15 29.07L151.46 26.12L151.68 26.12Z" fill="#FFFFFF" fill-opacity="1.000000" fill-rule="nonzero"/>
		</g>
	</g>
	<g mask="url(#mask1_413)">
		<g style="mix-blend-mode:normal">
			<path id="Path 150" d="M206.07 39.09L206.29 38.66L206.73 38.66L207.19 40.55L206.73 41.17L206.52 41.17L206.29 40.97L206.07 41.61L205.59 41.61L205.13 40.97L205.36 40.55L206.07 40.55L205.59 39.92L205.81 39.3L205.81 39.09L206.07 39.09ZM204.43 33.85L204.91 33.42L205.81 33.62L206.73 34.47L206.07 35.51L206.73 35.51L206.73 35.93L206.52 36.35L206.29 36.35L206.07 35.93L206.07 35.51L204.91 34.88L204.43 33.85ZM203.98 25.01L204.21 24.81L205.59 24.81L207.89 26.92L209.27 31.11L209.05 31.96L209.75 33.2L208.59 34.04L208.59 34.27L209.05 34.27L209.97 34.47L210.43 35.7L209.27 36.77L209.05 37.4L209.27 37.4L210.2 37.81L210.43 43.9L209.97 44.32L210.43 46.4L210.43 47.87L209.97 47.87L209.75 48.08L209.75 48.51L210.43 48.93L210.9 53.33L210.43 54.17L211.13 55.02L210.9 55.66L211.58 57.52L211.58 57.72L212.28 57.72L217.13 51.47L218.73 48.93L221.26 45.55L221.48 45.16L222.64 43.9L223.12 43.05L224.02 42.21L224.02 41.61L224.51 41.17L224.95 39.92L226.1 39.09L226.81 37.81L227.49 37.2L227.74 35.93L228.89 34.66L228.89 33.62L231.17 31.51L231.88 30.47L234.42 29.45L235.57 30.47L235.34 32.36L234.89 33.85L234.89 36.77L233.96 41.35L233.96 43.7L234.19 45.36L234.19 47.05L234.42 47.67L233.96 48.51L234.42 51.02L233.73 51.86L233.73 52.06L234.19 52.28L234.42 52.71L234.42 53.33L234.64 54.59L234.19 56.06L234.64 57.32L234.42 57.52L234.42 57.95L234.64 58.17L234.64 58.79L235.11 58.79L235.57 59.21L235.34 59.63L234.64 60.06L233.49 60.06L233.03 58.56L232.33 54.37L232.33 53.75L231.88 53.33L231.65 52.06L232.1 51.02L232.1 50.62L231.43 50.2L231.43 49.36L231.88 48.93L231.88 48.71L231.17 48.08L231.43 46.4L230.28 45.78L230.02 45.55L229.79 44.32L230.95 43.7L231.17 43.7L231.17 43.47L230.95 43.27L230.02 43.47L229.79 43.7L229.12 43.7L229.12 43.27L230.02 41.61L230.02 41.35L229.58 41.17L229.58 39.92L229.34 39.5L228.42 39.7L227.49 41.35L227.03 42.01L219.88 52.06L215.04 57.95L212.28 60.47L212.06 60.47L211.13 60.87L210.9 61.1L210.9 61.52L209.27 61.92L208.12 62.73L207.19 62.73L206.73 61.92L207.44 61.1L207.44 60.67L206.96 60.67L206.73 60.47L206.73 60.25L206.96 60.06L207.19 60.06L207.44 59.63L206.29 57.32L206.52 56.26L206.07 55.21L206.07 54.59L206.52 54.59L206.73 53.75L207.19 53.75L207.44 53.97L207.89 56.26L207.89 57.32L208.12 57.52L208.59 57.52L208.59 55.41L208.12 55.21L208.34 53.75L208.34 52.9L207.19 53.13L206.63 52.76L206.52 52.28L206.96 51.02L206.73 50.2L206.73 49.78L206.52 48.93L206.29 48.71L205.81 48.71L205.81 47.87L206.52 47.47L206.52 46.82L205.81 46.82L205.81 46.4L206.07 46.21L206.52 46.21L206.29 46.01L205.81 44.32L206.07 43.05L205.81 42.85L206.29 42.44L206.73 42.85L206.73 43.05L207.44 44.96L207.19 46.01L206.96 46.4L207.19 46.63L207.44 46.63L208.12 45.16L207.89 43.7L207.89 42.85L208.34 42.66L207.89 42.21L208.34 39.92L208.34 39.5L207.66 39.3L207.66 38.46L208.34 37.62L208.34 37.2L208.12 36.77L207.44 36.77L207.19 36.54L207.19 36.35L207.44 36.15L207.44 35.31L207.19 33.42L206.29 31.76L205.36 31.96L203.5 30.69L201.19 29.45L200.06 29.85L198.91 32.57L198.66 33.62L198.43 33.85L197.98 33.85L197.98 32.57L197.76 32.57L197.05 33.42L197.05 34.27L196.12 34.47L195.45 34.04L195.45 33L195.9 32.57L196.12 30.69L197.05 29.65L197.5 29.65L198.2 28.81L199.59 27.35L199.82 27.12L200.06 27.12L200.29 26.92L201.9 25.84L203.98 25.01Z" fill="#FFFFFF" fill-opacity="1.000000" fill-rule="nonzero"/>
		</g>
	</g>
	<g mask="url(#mask1_413)">
		<g style="mix-blend-mode:normal">
			<path id="Path 151" d="M251.47 28.21L252.15 27.96L252.62 27.9L253.29 28.43L254.06 29.54L254.11 30.41L254 31.2L253.58 31.84L253.83 32.69L253.78 34.35L253.35 35.76L252.91 36.04L252.91 36.24L253.12 36.24L253.58 36.4L253.72 37.06L253.47 37.45L253.35 38.4L253.41 39.56L253.35 40.71L253.52 42.2L253.07 42.97L252.74 44.09L252.91 45.1L252.68 46.21L251.98 46.51L251.75 46.31L251.92 46.85L251.35 48.34L251.52 48.87L251.22 49.8L251.22 50.59L251.05 52.51L251.22 54.59L251.16 56L250.71 56.95L250.49 57.88L251.3 59.3L250.71 60.82L250.99 61.66L250.59 62.66L250.15 62.66L249.67 62.56L249.61 61.29L248.79 60.11L247.89 60.14L247.58 60L247.52 58.73L247.36 56.56L247.52 55.07L247.41 53.1L247.52 51.44L248.18 50.57L247.89 50.34L247.89 50.15L248.12 49.92L247.78 48.46L247.84 45.95L248.29 45.89L249.05 46.94L249.17 47.75L249.38 47.73L249.72 47.47L249.95 46.63L249.89 46.21L249.44 46.01L249.44 45.78L249.67 45.55L249.89 45.55L250.09 45.35L250.09 45.16L248.68 45.25L247.95 44.68L247.89 43.84L248.06 42.97L247.95 42.13L248.12 41.21L248.51 39.33L248.45 38.35L248.23 37.45L248.45 36.49L248.51 34.29L248.45 32.89L248.68 31.79L248.93 31.73L249.38 31.25L249.83 30.01L250.37 29.31L250.82 29.05L251.47 28.21Z" fill="#FFFFFF" fill-opacity="1.000000" fill-rule="nonzero"/>
		</g>
	</g>
</svg>
