<svg width="303.663574" height="120.056641" viewBox="0 0 303.664 120.057" fill="none" xmlns="http://www.w3.org/2000/svg" xmlns:xlink="http://www.w3.org/1999/xlink">
	<desc>
			Created with Pixso.
	</desc>
	<defs/>
	<g style="mix-blend-mode:normal">
		<path id="Path 36" d="M115.08 94.9L114.84 94.66L114.49 94.44C114.33 94.44 114.27 94.22 114.18 94.09L113.74 93.43L112.35 90.83C112.81 90.69 113.23 90.47 113.61 90.17C113.97 89.93 114.27 89.6 114.49 89.22C114.7 88.82 114.8 88.36 114.77 87.9C114.81 87.49 114.71 87.08 114.49 86.74C114.31 86.38 113.99 86.12 113.61 86.01C113.15 85.84 112.68 85.77 112.2 85.79L110.02 85.79L109.42 85.79L108.26 85.64L107.66 85.64C107.51 85.64 107.44 85.64 107.44 85.79L107.44 86.36C107.44 86.52 107.44 86.52 107.58 86.52L108.32 86.52L108.46 86.74L108.32 87.4L106.85 93.78L106.7 94.22L106.34 94.22L105.9 94.22L105.75 94.44L105.62 95.23L106.06 95.23L106.78 95.23L108.63 95.23L109.36 95.23L109.73 95.23L110.02 95.23L110.02 94.86L110.02 94.7C110.01 94.63 109.94 94.57 109.86 94.57L109.42 94.57C109.14 94.57 108.98 94.44 108.98 94.28L109.14 93.62L109.73 91.2L110.02 91.2L111.27 93.62L112 94.88C112.18 95.09 112.4 95.27 112.66 95.38L113.54 95.54L114.42 95.54L114.93 95.54L115.08 94.9ZM110.37 90.13L110.02 90.13L110.68 87.2L110.68 86.83L110.9 86.67L111.27 86.67C111.6 86.67 111.91 86.81 112.13 87.04C112.35 87.28 112.46 87.6 112.44 87.92C112.49 88.52 112.27 89.11 111.84 89.53C111.47 89.94 110.93 90.16 110.37 90.13Z" fill="#FFFFFF" fill-opacity="1.000000" fill-rule="nonzero"/>
		<path id="Path 36" d="M114.84 94.66L114.49 94.44C114.33 94.44 114.27 94.22 114.18 94.09L113.74 93.43L112.35 90.83C112.81 90.69 113.23 90.47 113.61 90.17C113.97 89.93 114.27 89.6 114.49 89.22C114.7 88.82 114.8 88.36 114.77 87.9C114.81 87.49 114.71 87.08 114.49 86.74C114.31 86.38 113.99 86.12 113.61 86.01C113.15 85.84 112.68 85.77 112.2 85.79L110.02 85.79L109.42 85.79L108.26 85.64L107.66 85.64C107.51 85.64 107.44 85.64 107.44 85.79L107.44 86.36C107.44 86.52 107.44 86.52 107.58 86.52L108.32 86.52L108.46 86.74L108.32 87.4L106.85 93.78L106.7 94.22L106.34 94.22L105.9 94.22L105.75 94.44L105.62 95.23L106.06 95.23L106.78 95.23L108.63 95.23L109.36 95.23L109.73 95.23L110.02 95.23L110.02 94.86L110.02 94.7C110.01 94.63 109.94 94.57 109.86 94.57L109.42 94.57C109.14 94.57 108.98 94.44 108.98 94.28L109.14 93.62L109.73 91.2L110.02 91.2L111.27 93.62L112 94.88C112.18 95.09 112.4 95.27 112.66 95.38L113.54 95.54L114.42 95.54L114.93 95.54L115.08 94.9L114.84 94.66ZM110.02 90.13L110.68 87.2L110.68 86.83L110.9 86.67L111.27 86.67C111.6 86.67 111.91 86.81 112.13 87.04C112.35 87.28 112.46 87.6 112.44 87.92C112.49 88.52 112.27 89.11 111.84 89.53C111.47 89.94 110.93 90.16 110.37 90.13L110.02 90.13Z" stroke="#707070" stroke-opacity="0" stroke-width="1.000000"/>
	</g>
	<g style="mix-blend-mode:normal">
		<path id="Path 37" d="M124.96 86.76C124.58 86.42 124.13 86.18 123.64 86.03C123.07 85.87 122.47 85.8 121.88 85.81L119.39 85.81L118.95 85.81L117.7 85.66L117.1 85.66C117.03 85.67 116.97 85.74 116.97 85.81L116.82 86.38C116.82 86.54 116.82 86.54 116.97 86.54L117.7 86.54L117.85 86.76L117.85 87.42L116.33 93.8C116.34 93.96 116.28 94.12 116.18 94.24L115.89 94.24L115.45 94.24L115.23 94.46L115.23 94.7L115.1 94.99L115.3 94.99L115.89 94.99L117.19 94.99L118.29 94.99L119.55 94.99L121.02 95.23C121.43 95.23 121.83 95.16 122.21 95.01L123.29 94.57C123.65 94.35 123.97 94.07 124.26 93.76L125.2 92.74L125.86 91.36C126.02 90.86 126.09 90.34 126.08 89.82C126.06 89.22 125.97 88.63 125.8 88.06C125.6 87.57 125.32 87.13 124.96 86.76ZM123.33 91.16C123.13 91.77 122.83 92.34 122.45 92.85C122.14 93.32 121.71 93.69 121.22 93.95C120.58 94.24 119.88 94.39 119.17 94.39L118.64 94.39C118.64 94.39 118.64 94.39 118.64 94.24L118.8 93.36L120.25 87.07L120.25 86.85L120.6 86.85C121.18 86.82 121.75 86.9 122.3 87.07C122.73 87.26 123.08 87.6 123.31 88.01C123.51 88.5 123.62 89.02 123.62 89.55C123.61 90.09 123.52 90.65 123.33 91.16Z" fill="#FFFFFF" fill-opacity="1.000000" fill-rule="nonzero"/>
		<path id="Path 37" d="M123.64 86.03C123.07 85.87 122.47 85.8 121.88 85.81L119.39 85.81L118.95 85.81L117.7 85.66L117.1 85.66C117.03 85.67 116.97 85.74 116.97 85.81L116.82 86.38C116.82 86.54 116.82 86.54 116.97 86.54L117.7 86.54L117.85 86.76L117.85 87.42L116.33 93.8C116.34 93.96 116.28 94.12 116.18 94.24L115.89 94.24L115.45 94.24L115.23 94.46L115.23 94.7L115.1 94.99L115.3 94.99L115.89 94.99L117.19 94.99L118.29 94.99L119.55 94.99L121.02 95.23C121.43 95.23 121.83 95.16 122.21 95.01L123.29 94.57C123.65 94.35 123.97 94.07 124.26 93.76L125.2 92.74L125.86 91.36C126.02 90.86 126.09 90.34 126.08 89.82C126.06 89.22 125.97 88.63 125.8 88.06C125.6 87.57 125.32 87.13 124.96 86.76C124.58 86.42 124.13 86.18 123.64 86.03ZM122.45 92.85C122.14 93.32 121.71 93.69 121.22 93.95C120.58 94.24 119.88 94.39 119.17 94.39L118.64 94.39C118.64 94.39 118.64 94.39 118.64 94.24L118.8 93.36L120.25 87.07L120.25 86.85L120.6 86.85C121.18 86.82 121.75 86.9 122.3 87.07C122.73 87.26 123.08 87.6 123.31 88.01C123.51 88.5 123.62 89.02 123.62 89.55C123.61 90.09 123.52 90.65 123.33 91.16C123.13 91.77 122.83 92.34 122.45 92.85Z" stroke="#707070" stroke-opacity="0" stroke-width="1.000000"/>
	</g>
	<g style="mix-blend-mode:normal">
		<path id="Path 38" d="M45.57 53.29C40.73 49.6 36.82 44.84 34.15 39.38C33.68 38.22 33.6 36.79 32.41 36.06C30.96 35.88 30.69 37.53 30.21 38.52C29.8 40.39 28.97 42.13 27.79 43.63C25.74 47.42 23.04 50.82 19.8 53.66C19.49 53.95 19.35 54.37 19.43 54.79C20.79 56.39 22.68 57.6 24.11 59.32C25.48 60.92 26.72 62.63 27.83 64.42C29.14 66.29 30.28 68.27 31.22 70.34C31.79 71.2 31.68 72.81 33.11 72.9C34.19 71.86 34.91 70.51 35.2 69.04C37.27 64.39 40.27 60.21 44 56.74C44.64 55.86 45.72 55.6 46.2 54.68C46.69 53.75 45.98 53.64 45.57 53.29ZM43.76 54.79C42.64 56.44 40.95 57.47 39.71 59.05C37.62 61.51 35.79 64.18 34.26 67.02C33.79 67.66 33.6 69 32.54 68.78C31.62 68.08 31.48 67.02 30.85 66.21C28.95 63.11 26.74 60.23 24.24 57.6C23.25 56.71 22.3 55.75 21.43 54.74C21.25 54.21 21.67 53.91 21.93 53.55C25.17 50.5 27.92 46.95 30.08 43.06C30.52 41.94 31.16 40.91 31.97 40.02C32.43 40.02 32.74 40.42 32.96 40.72C35.81 45.56 39.41 49.92 43.61 53.64C43.93 53.94 43.99 54.42 43.76 54.79Z" fill="#FFFFFF" fill-opacity="1.000000" fill-rule="nonzero"/>
		<path id="Path 38" d="M34.15 39.38C33.68 38.22 33.6 36.79 32.41 36.06C30.96 35.88 30.69 37.53 30.21 38.52C29.8 40.39 28.97 42.13 27.79 43.63C25.74 47.42 23.04 50.82 19.8 53.66C19.49 53.95 19.35 54.37 19.43 54.79C20.79 56.39 22.68 57.6 24.11 59.32C25.48 60.92 26.72 62.63 27.83 64.42C29.14 66.29 30.28 68.27 31.22 70.34C31.79 71.2 31.68 72.81 33.11 72.9C34.19 71.86 34.91 70.51 35.2 69.04C37.27 64.39 40.27 60.21 44 56.74C44.64 55.86 45.72 55.6 46.2 54.68C46.69 53.75 45.98 53.64 45.57 53.29C40.73 49.6 36.82 44.84 34.15 39.38ZM39.71 59.05C37.62 61.51 35.79 64.18 34.26 67.02C33.79 67.66 33.6 69 32.54 68.78C31.62 68.08 31.48 67.02 30.85 66.21C28.95 63.11 26.74 60.23 24.24 57.6C23.25 56.71 22.3 55.75 21.43 54.74C21.25 54.21 21.67 53.91 21.93 53.55C25.17 50.5 27.92 46.95 30.08 43.06C30.52 41.94 31.16 40.91 31.97 40.02C32.43 40.02 32.74 40.42 32.96 40.72C35.81 45.56 39.41 49.92 43.61 53.64C43.93 53.94 43.99 54.42 43.76 54.79C42.64 56.44 40.95 57.47 39.71 59.05Z" stroke="#707070" stroke-opacity="0" stroke-width="1.000000"/>
	</g>
	<g style="mix-blend-mode:normal">
		<path id="Path 39" d="M53.66 47.83C53.03 46.95 53.66 45.94 54.13 45.21C55.56 42.88 57.98 42.37 59.98 41.14C63.44 39.94 67.08 39.33 70.74 39.34C72.32 39.82 74.5 39.14 75.43 40.83C74.46 45.68 73.58 50.52 72.59 55.36C72.43 55.82 72.59 56.44 72.32 56.85C72.04 59.28 71.42 61.56 71.09 63.94C70.54 65.48 70.48 67.24 68.89 68.34C67.84 69.57 65.92 68.71 64.93 69.95C64.8 70.2 64.84 70.51 65.04 70.72C65.31 71.03 65.71 71.18 66.12 71.11C70.02 70.73 73.95 70.63 77.87 70.83C80.26 70.67 82.64 70.36 85 69.9C86.56 69.26 88.15 68.56 89.8 68.03C94.04 65.98 97.7 62.9 100.45 59.08C101.59 56.52 103.22 54.15 102.87 51C102.72 49.97 102.48 48.95 102.14 47.96C100.73 44.7 98.17 42.07 94.94 40.57C91.38 38.37 86.91 38.66 82.53 38.37C79.81 38.46 77.34 38.02 74.81 38.02C72.28 38.02 69.93 38.02 67.46 38.02C63.31 38.54 59.28 39.83 55.6 41.83C53.82 43.08 51.38 44.71 50.98 46.93C50.66 48.35 51.13 49.83 52.21 50.8C52.89 51.32 53.63 51.75 54.41 52.08C55.42 52.43 56.53 52.43 57.54 52.08C58.18 51.62 58.02 50.65 57.89 49.88C57.21 47.83 54.68 49.44 53.66 47.83ZM81.41 40.59C84.76 40.75 88.45 40.13 91.29 41.45C93.73 42.55 95.62 44.59 96.53 47.11C97.45 49.31 96.11 58.11 94.94 59.58C92.98 62.4 90.41 64.73 87.42 66.43C84.05 68.38 80.09 69.05 76.26 68.32C75.8 68.32 75.54 67.75 75.34 67.39L80.49 41.21C80.71 40.9 81.04 40.68 81.41 40.59Z" fill="#FFFFFF" fill-opacity="1.000000" fill-rule="nonzero"/>
		<path id="Path 39" d="M54.13 45.21C55.56 42.88 57.98 42.37 59.98 41.14C63.44 39.94 67.08 39.33 70.74 39.34C72.32 39.82 74.5 39.14 75.43 40.83C74.46 45.68 73.58 50.52 72.59 55.36C72.43 55.82 72.59 56.44 72.32 56.85C72.04 59.28 71.42 61.56 71.09 63.94C70.54 65.48 70.48 67.24 68.89 68.34C67.84 69.57 65.92 68.71 64.93 69.95C64.8 70.2 64.84 70.51 65.04 70.72C65.31 71.03 65.71 71.18 66.12 71.11C70.02 70.73 73.95 70.63 77.87 70.83C80.26 70.67 82.64 70.36 85 69.9C86.56 69.26 88.15 68.56 89.8 68.03C94.04 65.98 97.7 62.9 100.45 59.08C101.59 56.52 103.22 54.15 102.87 51C102.72 49.97 102.48 48.95 102.14 47.96C100.73 44.7 98.17 42.07 94.94 40.57C91.38 38.37 86.91 38.66 82.53 38.37C79.81 38.46 77.34 38.02 74.81 38.02C72.28 38.02 69.93 38.02 67.46 38.02C63.31 38.54 59.28 39.83 55.6 41.83C53.82 43.08 51.38 44.71 50.98 46.93C50.66 48.35 51.13 49.83 52.21 50.8C52.89 51.32 53.63 51.75 54.41 52.08C55.42 52.43 56.53 52.43 57.54 52.08C58.18 51.62 58.02 50.65 57.89 49.88C57.21 47.83 54.68 49.44 53.66 47.83C53.03 46.95 53.66 45.94 54.13 45.21ZM91.29 41.45C93.73 42.55 95.62 44.59 96.53 47.11C97.45 49.31 96.11 58.11 94.94 59.58C92.98 62.4 90.41 64.73 87.42 66.43C84.05 68.38 80.09 69.05 76.26 68.32C75.8 68.32 75.54 67.75 75.34 67.39L80.49 41.21C80.71 40.9 81.04 40.68 81.41 40.59C84.76 40.75 88.45 40.13 91.29 41.45Z" stroke="#707070" stroke-opacity="0" stroke-width="1.000000"/>
	</g>
	<g style="mix-blend-mode:normal">
		<path id="Path 40" d="M72.72 94.53L72.28 94.53C71.99 94.53 71.84 94.39 71.84 94.24L71.84 94.02L71.84 93.73L71.84 93.58L73.31 87.13L73.45 86.85L73.67 86.69L74.26 86.69C74.26 86.69 74.39 86.69 74.39 86.54L74.39 85.97C74.39 85.97 74.39 85.81 74.24 85.81L73.51 85.81L72.13 85.97L71.25 85.97L70.5 85.97L70.21 85.97C70.06 85.97 69.99 85.97 69.99 86.12L69.99 86.69C69.99 86.85 69.99 86.85 70.12 86.85L70.78 86.85L71 87.07L70.87 87.73L69.4 94.11L69.18 94.55L68.89 94.55L68.45 94.55L68.3 94.77C68.21 94.96 68.17 95.16 68.17 95.36L68.3 95.36L68.67 95.36L69.46 95.36L71.31 95.36L72.04 95.36L72.61 95.23C72.68 95.23 72.74 95.17 72.74 95.1L72.74 94.94L72.74 94.72L72.72 94.53Z" fill="#FFFFFF" fill-opacity="1.000000" fill-rule="nonzero"/>
		<path id="Path 40" d="M72.28 94.53C71.99 94.53 71.84 94.39 71.84 94.24L71.84 94.02L71.84 93.73L71.84 93.58L73.31 87.13L73.45 86.85L73.67 86.69L74.26 86.69C74.26 86.69 74.39 86.69 74.39 86.54L74.39 85.97C74.39 85.97 74.39 85.81 74.24 85.81L73.51 85.81L72.13 85.97L71.25 85.97L70.5 85.97L70.21 85.97C70.06 85.97 69.99 85.97 69.99 86.12L69.99 86.69C69.99 86.85 69.99 86.85 70.12 86.85L70.78 86.85L71 87.07L70.87 87.73L69.4 94.11L69.18 94.55L68.89 94.55L68.45 94.55L68.3 94.77C68.21 94.96 68.17 95.16 68.17 95.36L68.3 95.36L68.67 95.36L69.46 95.36L71.31 95.36L72.04 95.36L72.61 95.23C72.68 95.23 72.74 95.17 72.74 95.1L72.74 94.94L72.74 94.72L72.72 94.53L72.28 94.53Z" stroke="#707070" stroke-opacity="0" stroke-width="1.000000"/>
	</g>
	<g style="mix-blend-mode:normal">
		<path id="Path 41" d="M104.89 94.44L104.58 94.44C104.58 94.44 104.58 94.44 104.45 94.29L104.45 94.06L103.29 86.16C103.3 86.02 103.24 85.88 103.13 85.79L102.4 85.79L101.74 85.79C101.6 85.86 101.49 86 101.46 86.16L97.06 93.62C96.97 93.86 96.81 94.06 96.62 94.22C96.45 94.36 96.24 94.46 96.02 94.5L95.65 94.5L95.52 94.5L95.52 94.79L95.52 95.23C95.52 95.23 95.52 95.36 95.67 95.36L96.27 95.36L97.37 95.36L98.47 95.36L99.04 95.36C99.05 95.32 99.04 95.27 99.02 95.23L99.17 94.7C99.17 94.7 99.17 94.57 99.02 94.57L98.36 94.42L97.98 94.42C97.98 94.42 97.85 94.42 97.85 94.26L98.07 93.76L98.86 92.44L101.94 92.44L102.1 93.38L102.1 94.04L102.1 94.26L101.94 94.48L101.28 94.48C101.28 94.48 101.15 94.48 101.15 94.64L101.15 95.23C101.15 95.23 101.15 95.36 101.3 95.36L101.9 95.36L103.13 95.36L104.01 95.36L104.76 95.36L105.2 95.36L105.33 95.36L105.33 94.99L105.33 94.7C105.33 94.7 105.24 94.44 104.89 94.44ZM99.32 91.45L101.28 87.93L101.72 91.45L99.32 91.45Z" fill="#FFFFFF" fill-opacity="1.000000" fill-rule="nonzero"/>
		<path id="Path 41" d="M104.58 94.44C104.58 94.44 104.58 94.44 104.45 94.29L104.45 94.06L103.29 86.16C103.3 86.02 103.24 85.88 103.13 85.79L102.4 85.79L101.74 85.79C101.6 85.86 101.49 86 101.46 86.16L97.06 93.62C96.97 93.86 96.81 94.06 96.62 94.22C96.45 94.36 96.24 94.46 96.02 94.5L95.65 94.5L95.52 94.5L95.52 94.79L95.52 95.23C95.52 95.23 95.52 95.36 95.67 95.36L96.27 95.36L97.37 95.36L98.47 95.36L99.04 95.36C99.05 95.32 99.04 95.27 99.02 95.23L99.17 94.7C99.17 94.7 99.17 94.57 99.02 94.57L98.36 94.42L97.98 94.42C97.98 94.42 97.85 94.42 97.85 94.26L98.07 93.76L98.86 92.44L101.94 92.44L102.1 93.38L102.1 94.04L102.1 94.26L101.94 94.48L101.28 94.48C101.28 94.48 101.15 94.48 101.15 94.64L101.15 95.23C101.15 95.23 101.15 95.36 101.3 95.36L101.9 95.36L103.13 95.36L104.01 95.36L104.76 95.36L105.2 95.36L105.33 95.36L105.33 94.99L105.33 94.7C105.33 94.7 105.24 94.44 104.89 94.44L104.58 94.44ZM101.28 87.93L101.72 91.45L99.32 91.45L101.28 87.93Z" stroke="#707070" stroke-opacity="0" stroke-width="1.000000"/>
	</g>
	<g style="mix-blend-mode:normal">
		<path id="Path 42" d="M81.15 92.9L80.99 92.9C80.92 92.91 80.86 92.97 80.86 93.05L80.11 93.93C79.98 94.06 79.83 94.22 79.67 94.22L78.95 94.22L77.5 94.22L76.97 94.22L76.97 93.93L76.97 93.65L76.97 93.27L77.19 92.46L78.51 87.04L78.51 86.76C78.57 86.66 78.68 86.6 78.79 86.6L79.3 86.6C79.45 86.6 79.52 86.6 79.52 86.45L79.52 85.88C79.52 85.8 79.46 85.74 79.39 85.72L78.57 85.72L77.25 85.88L76.31 85.88L75.65 85.88L75.27 85.88C75.14 85.88 75.14 85.88 75.05 86.03L75.05 86.6C75.05 86.76 75.05 86.76 75.21 86.76L75.93 86.76L76.09 86.98C76.1 87.21 76.04 87.44 75.93 87.64L74.46 94.02C74.47 94.18 74.42 94.33 74.33 94.46L73.95 94.46L73.51 94.46L73.38 94.68L73.23 95.27L73.38 95.27L73.67 95.27L74.24 95.27L75.27 95.27L78.13 95.27L79.52 95.27L80.55 95.27C80.68 95.25 80.79 95.17 80.84 95.05L81.43 93.82C81.58 93.65 81.67 93.45 81.72 93.23L81.72 93.07L81.15 92.9Z" fill="#FFFFFF" fill-opacity="1.000000" fill-rule="nonzero"/>
		<path id="Path 42" d="M80.99 92.9C80.92 92.91 80.86 92.97 80.86 93.05L80.11 93.93C79.98 94.06 79.83 94.22 79.67 94.22L78.95 94.22L77.5 94.22L76.97 94.22L76.97 93.93L76.97 93.65L76.97 93.27L77.19 92.46L78.51 87.04L78.51 86.76C78.57 86.66 78.68 86.6 78.79 86.6L79.3 86.6C79.45 86.6 79.52 86.6 79.52 86.45L79.52 85.88C79.52 85.8 79.46 85.74 79.39 85.72L78.57 85.72L77.25 85.88L76.31 85.88L75.65 85.88L75.27 85.88C75.14 85.88 75.14 85.88 75.05 86.03L75.05 86.6C75.05 86.76 75.05 86.76 75.21 86.76L75.93 86.76L76.09 86.98C76.1 87.21 76.04 87.44 75.93 87.64L74.46 94.02C74.47 94.18 74.42 94.33 74.33 94.46L73.95 94.46L73.51 94.46L73.38 94.68L73.23 95.27L73.38 95.27L73.67 95.27L74.24 95.27L75.27 95.27L78.13 95.27L79.52 95.27L80.55 95.27C80.68 95.25 80.79 95.17 80.84 95.05L81.43 93.82C81.58 93.65 81.67 93.45 81.72 93.23L81.72 93.07L81.15 92.9L80.99 92.9Z" stroke="#707070" stroke-opacity="0" stroke-width="1.000000"/>
	</g>
	<g style="mix-blend-mode:normal">
		<path id="Path 43" d="M67.9 89.02C68.16 88.69 68.28 88.28 68.25 87.86C68.25 86.45 67.31 85.81 65.33 85.81L63.63 85.81L63.19 85.81L61.96 85.66L61.37 85.66C61.23 85.66 61.23 85.66 61.15 85.81L61.15 86.38C61.15 86.54 61.15 86.54 61.3 86.54L62.03 86.54L62.18 86.76C62.19 86.99 62.14 87.22 62.03 87.42L60.55 93.8L60.42 94.24L60.05 94.24L59.67 94.24L59.54 94.46L59.41 95.23L59.69 95.23L60.42 95.23L61.23 95.23L62.62 95.23L63.94 95.23L65.26 95.1C65.66 95.04 66.03 94.89 66.36 94.66C66.79 94.39 67.17 94.04 67.46 93.62C67.73 93.21 67.89 92.73 67.9 92.24C67.9 91.84 67.77 91.45 67.53 91.14C67.3 90.84 66.99 90.61 66.65 90.48L65.55 90.19C66 90.1 66.45 89.96 66.87 89.75C67.25 89.57 67.6 89.33 67.9 89.02ZM65.26 93.21C65.1 93.54 64.83 93.81 64.51 94C64.19 94.22 63.81 94.35 63.41 94.37L62.84 94.22L62.84 93.71L63.5 90.72L64.09 90.72C64.43 90.72 64.76 90.82 65.04 91C65.32 91.26 65.46 91.64 65.41 92.02C65.43 92.42 65.38 92.82 65.26 93.21ZM65.77 88.8C65.63 89.11 65.4 89.36 65.11 89.53C64.84 89.74 64.5 89.85 64.16 89.84L63.81 89.84L64.47 86.82C64.5 86.69 64.62 86.6 64.75 86.6C65.1 86.61 65.43 86.71 65.72 86.89C65.94 87.04 66.01 87.42 66.01 87.86C66 88.19 65.92 88.51 65.77 88.8Z" fill="#FFFFFF" fill-opacity="1.000000" fill-rule="nonzero"/>
		<path id="Path 43" d="M68.25 87.86C68.25 86.45 67.31 85.81 65.33 85.81L63.63 85.81L63.19 85.81L61.96 85.66L61.37 85.66C61.23 85.66 61.23 85.66 61.15 85.81L61.15 86.38C61.15 86.54 61.15 86.54 61.3 86.54L62.03 86.54L62.18 86.76C62.19 86.99 62.14 87.22 62.03 87.42L60.55 93.8L60.42 94.24L60.05 94.24L59.67 94.24L59.54 94.46L59.41 95.23L59.69 95.23L60.42 95.23L61.23 95.23L62.62 95.23L63.94 95.23L65.26 95.1C65.66 95.04 66.03 94.89 66.36 94.66C66.79 94.39 67.17 94.04 67.46 93.62C67.73 93.21 67.89 92.73 67.9 92.24C67.9 91.84 67.77 91.45 67.53 91.14C67.3 90.84 66.99 90.61 66.65 90.48L65.55 90.19C66 90.1 66.45 89.96 66.87 89.75C67.25 89.57 67.6 89.33 67.9 89.02C68.16 88.69 68.28 88.28 68.25 87.86ZM64.51 94C64.19 94.22 63.81 94.35 63.41 94.37L62.84 94.22L62.84 93.71L63.5 90.72L64.09 90.72C64.43 90.72 64.76 90.82 65.04 91C65.32 91.26 65.46 91.64 65.41 92.02C65.43 92.42 65.38 92.82 65.26 93.21C65.1 93.54 64.83 93.81 64.51 94ZM65.11 89.53C64.84 89.74 64.5 89.85 64.16 89.84L63.81 89.84L64.47 86.82C64.5 86.69 64.62 86.6 64.75 86.6C65.1 86.61 65.43 86.71 65.72 86.89C65.94 87.04 66.01 87.42 66.01 87.86C66 88.19 65.92 88.51 65.77 88.8C65.63 89.11 65.4 89.36 65.11 89.53Z" stroke="#707070" stroke-opacity="0" stroke-width="1.000000"/>
	</g>
	<g style="mix-blend-mode:normal">
		<path id="Path 44" d="M89.73 92.9L89.51 92.9L89.36 93.05C89.18 93.38 88.96 93.67 88.7 93.93C88.54 94.06 88.41 94.22 88.19 94.22L87.53 94.22L86.06 94.22L85.55 94.22C85.45 94.16 85.39 94.05 85.39 93.93L85.39 93.65L85.39 93.27L85.61 92.46L86.94 87.04L86.94 86.76C87 86.66 87.11 86.61 87.22 86.6L87.75 86.6C87.88 86.6 87.88 86.6 87.88 86.45L88.04 85.88C88.04 85.79 87.97 85.72 87.88 85.72L87.09 85.72L85.77 85.88L84.8 85.88L84.07 85.88L83.79 85.88C83.63 85.88 83.57 85.88 83.57 86.03L83.57 86.6C83.57 86.76 83.57 86.76 83.7 86.76L84.43 86.76L84.58 86.98L84.43 87.64L82.97 94.02L82.75 94.46L82.47 94.46L82.03 94.46L81.87 94.68L81.72 95.27L81.87 95.27L82.16 95.27L82.75 95.27L83.79 95.27L86.63 95.27L88.04 95.27L89.05 95.27C89.17 95.27 89.27 95.18 89.27 95.05L89.93 93.82C90.07 93.65 90.17 93.45 90.21 93.23L90.21 93.03L89.73 92.9Z" fill="#FFFFFF" fill-opacity="1.000000" fill-rule="nonzero"/>
		<path id="Path 44" d="M89.51 92.9L89.36 93.05C89.18 93.38 88.96 93.67 88.7 93.93C88.54 94.06 88.41 94.22 88.19 94.22L87.53 94.22L86.06 94.22L85.55 94.22C85.45 94.16 85.39 94.05 85.39 93.93L85.39 93.65L85.39 93.27L85.61 92.46L86.94 87.04L86.94 86.76C87 86.66 87.11 86.61 87.22 86.6L87.75 86.6C87.88 86.6 87.88 86.6 87.88 86.45L88.04 85.88C88.04 85.79 87.97 85.72 87.88 85.72L87.09 85.72L85.77 85.88L84.8 85.88L84.07 85.88L83.79 85.88C83.63 85.88 83.57 85.88 83.57 86.03L83.57 86.6C83.57 86.76 83.57 86.76 83.7 86.76L84.43 86.76L84.58 86.98L84.43 87.64L82.97 94.02L82.75 94.46L82.47 94.46L82.03 94.46L81.87 94.68L81.72 95.27L81.87 95.27L82.16 95.27L82.75 95.27L83.79 95.27L86.63 95.27L88.04 95.27L89.05 95.27C89.17 95.27 89.27 95.18 89.27 95.05L89.93 93.82C90.07 93.65 90.17 93.45 90.21 93.23L90.21 93.03L89.73 92.9L89.51 92.9Z" stroke="#707070" stroke-opacity="0" stroke-width="1.000000"/>
	</g>
	<g style="mix-blend-mode:normal">
		<path id="Path 45" d="M94.86 94.53L94.42 94.53C94.11 94.53 93.98 94.39 93.98 94.24L93.98 94.02L93.98 93.73L93.98 93.58L95.45 87.13L95.58 86.85L95.8 86.69L96.4 86.69C96.4 86.69 96.55 86.69 96.55 86.54L96.55 85.97C96.55 85.97 96.55 85.81 96.4 85.81L95.67 85.81L94.28 85.97L93.4 85.97L92.68 85.97L92.3 85.97C92.22 85.98 92.16 86.04 92.15 86.12L92.15 86.69C92.15 86.85 92.15 86.85 92.3 86.85L92.96 86.85L93.18 87.07L93.03 87.73L91.56 94.11L91.34 94.55L91.05 94.55L90.61 94.55L90.39 94.77L90.39 95.36C90.39 95.36 90.39 95.36 90.52 95.36L90.9 95.36L91.71 95.36L93.54 95.36L94.26 95.36L94.61 95.23C94.61 95.23 94.77 95.23 94.77 95.1L94.77 94.94L94.77 94.72L94.86 94.53Z" fill="#FFFFFF" fill-opacity="1.000000" fill-rule="nonzero"/>
		<path id="Path 45" d="M94.42 94.53C94.11 94.53 93.98 94.39 93.98 94.24L93.98 94.02L93.98 93.73L93.98 93.58L95.45 87.13L95.58 86.85L95.8 86.69L96.4 86.69C96.4 86.69 96.55 86.69 96.55 86.54L96.55 85.97C96.55 85.97 96.55 85.81 96.4 85.81L95.67 85.81L94.28 85.97L93.4 85.97L92.68 85.97L92.3 85.97C92.22 85.98 92.16 86.04 92.15 86.12L92.15 86.69C92.15 86.85 92.15 86.85 92.3 86.85L92.96 86.85L93.18 87.07L93.03 87.73L91.56 94.11L91.34 94.55L91.05 94.55L90.61 94.55L90.39 94.77L90.39 95.36C90.39 95.36 90.39 95.36 90.52 95.36L90.9 95.36L91.71 95.36L93.54 95.36L94.26 95.36L94.61 95.23C94.61 95.23 94.77 95.23 94.77 95.1L94.77 94.94L94.77 94.72L94.86 94.53L94.42 94.53Z" stroke="#707070" stroke-opacity="0" stroke-width="1.000000"/>
	</g>
	<g style="mix-blend-mode:normal">
		<path id="Path 46" d="M234.39 86.43L234.39 86.14L234.39 85.86C234.38 85.78 234.32 85.71 234.23 85.7L233.73 85.7L232.85 85.86L231.88 85.7L231.37 85.7L231.15 85.7L231.15 86.3L231.15 86.43L231.66 86.43C232.1 86.43 232.25 86.56 232.25 86.65L232.03 87.75L231.09 92.35L228.16 87.31L227.94 86.87L227.79 86.65C227.79 86.5 228.07 86.43 228.6 86.43L228.73 86.43L228.73 86.08L228.73 85.79C228.72 85.71 228.66 85.65 228.58 85.64L227.77 85.64L226.53 85.79L225.06 85.64L224.4 85.64C224.24 85.64 224.18 85.64 224.18 85.79L224.18 86.08L224.18 86.36L224.33 86.36L224.71 86.36L225.15 86.36L225.28 86.65L223.76 93.54L223.54 93.98C223.45 94.08 223.31 94.14 223.17 94.13L222.66 94.28L222.51 94.28L222.51 94.57L222.51 94.94C222.51 94.94 222.51 94.94 222.64 94.94L223.08 94.94L224.11 94.94L224.99 94.94L225.56 94.94L225.72 94.57L225.72 94.22L225.06 94.06L224.77 94.06C224.77 94.06 224.77 94.06 224.77 93.91L224.93 92.96L226.09 87.68L230.27 94.86C230.34 95.04 230.52 95.16 230.71 95.16L231.15 95.16C231.37 95.16 231.55 95 231.59 94.79L233.35 86.87L233.51 86.52C233.51 86.44 233.56 86.37 233.64 86.36L233.86 86.36L234.39 86.43Z" fill="#FFFFFF" fill-opacity="1.000000" fill-rule="nonzero"/>
		<path id="Path 46" d="M234.39 86.14L234.39 85.86C234.38 85.78 234.32 85.71 234.23 85.7L233.73 85.7L232.85 85.86L231.88 85.7L231.37 85.7L231.15 85.7L231.15 86.3L231.15 86.43L231.66 86.43C232.1 86.43 232.25 86.56 232.25 86.65L232.03 87.75L231.09 92.35L228.16 87.31L227.94 86.87L227.79 86.65C227.79 86.5 228.07 86.43 228.6 86.43L228.73 86.43L228.73 86.08L228.73 85.79C228.72 85.71 228.66 85.65 228.58 85.64L227.77 85.64L226.53 85.79L225.06 85.64L224.4 85.64C224.24 85.64 224.18 85.64 224.18 85.79L224.18 86.08L224.18 86.36L224.33 86.36L224.71 86.36L225.15 86.36L225.28 86.65L223.76 93.54L223.54 93.98C223.45 94.08 223.31 94.14 223.17 94.13L222.66 94.28L222.51 94.28L222.51 94.57L222.51 94.94C222.51 94.94 222.51 94.94 222.64 94.94L223.08 94.94L224.11 94.94L224.99 94.94L225.56 94.94L225.72 94.57L225.72 94.22L225.06 94.06L224.77 94.06C224.77 94.06 224.77 94.06 224.77 93.91L224.93 92.96L226.09 87.68L230.27 94.86C230.34 95.04 230.52 95.16 230.71 95.16L231.15 95.16C231.37 95.16 231.55 95 231.59 94.79L233.35 86.87L233.51 86.52C233.51 86.44 233.56 86.37 233.64 86.36L233.86 86.36L234.39 86.43L234.39 86.14Z" stroke="#707070" stroke-opacity="0" stroke-width="1.000000"/>
	</g>
	<g style="mix-blend-mode:normal">
		<path id="Path 47" d="M211.61 92.9L211.31 92.77C211.31 92.77 211.17 92.77 211.17 92.99L208.97 96.64L208.97 96.92L208.97 97.08L209.41 97.36L209.55 97.36L209.85 97.14L212.56 93.78L212.56 93.62L212.56 93.4L211.61 92.9Z" fill="#FFFFFF" fill-opacity="1.000000" fill-rule="nonzero"/>
		<path id="Path 47" d="M211.31 92.77C211.31 92.77 211.17 92.77 211.17 92.99L208.97 96.64L208.97 96.92L208.97 97.08L209.41 97.36L209.55 97.36L209.85 97.14L212.56 93.78L212.56 93.62L212.56 93.4L211.61 92.9L211.31 92.77Z" stroke="#707070" stroke-opacity="0" stroke-width="1.000000"/>
	</g>
	<g style="mix-blend-mode:normal">
		<path id="Path 48" d="M243.48 85.72L241.06 85.72C240.18 85.69 239.31 85.82 238.48 86.1C237.68 86.34 236.93 86.74 236.28 87.26C235.66 87.75 235.16 88.37 234.83 89.09C234.48 89.77 234.31 90.53 234.32 91.29C234.28 91.92 234.4 92.55 234.67 93.12C234.91 93.65 235.29 94.11 235.77 94.44C236.27 94.76 236.81 95.01 237.38 95.19C238.01 95.33 238.65 95.4 239.3 95.41L240.53 95.41L241.78 95.27L242 95.05L242.44 94.46L243.1 93.58L243.1 93.43L242.66 93.14L242.31 92.85L242.16 92.85C241.85 93.29 241.48 93.69 241.06 94.02C240.67 94.35 240.17 94.51 239.67 94.46C238.84 94.51 238.03 94.19 237.47 93.58C236.99 92.95 236.73 92.17 236.74 91.38C236.74 90.62 236.91 89.86 237.25 89.18C237.57 88.45 238.08 87.82 238.72 87.35C239.37 86.92 240.14 86.69 240.92 86.69C241.39 86.69 241.84 86.81 242.24 87.04C242.58 87.25 242.78 87.62 242.75 88.01C242.75 88.15 242.75 88.23 242.75 88.23L242.9 88.23L243.5 88.23L243.72 88.08L243.72 87.35L243.72 86.03C243.72 86.03 243.7 85.81 243.48 85.72Z" fill="#FFFFFF" fill-opacity="1.000000" fill-rule="nonzero"/>
		<path id="Path 48" d="M241.06 85.72C240.18 85.69 239.31 85.82 238.48 86.1C237.68 86.34 236.93 86.74 236.28 87.26C235.66 87.75 235.16 88.37 234.83 89.09C234.48 89.77 234.31 90.53 234.32 91.29C234.28 91.92 234.4 92.55 234.67 93.12C234.91 93.65 235.29 94.11 235.77 94.44C236.27 94.76 236.81 95.01 237.38 95.19C238.01 95.33 238.65 95.4 239.3 95.41L240.53 95.41L241.78 95.27L242 95.05L242.44 94.46L243.1 93.58L243.1 93.43L242.66 93.14L242.31 92.85L242.16 92.85C241.85 93.29 241.48 93.69 241.06 94.02C240.67 94.35 240.17 94.51 239.67 94.46C238.84 94.51 238.03 94.19 237.47 93.58C236.99 92.95 236.73 92.17 236.74 91.38C236.74 90.62 236.91 89.86 237.25 89.18C237.57 88.45 238.08 87.82 238.72 87.35C239.37 86.92 240.14 86.69 240.92 86.69C241.39 86.69 241.84 86.81 242.24 87.04C242.58 87.25 242.78 87.62 242.75 88.01C242.75 88.15 242.75 88.23 242.75 88.23L242.9 88.23L243.5 88.23L243.72 88.08L243.72 87.35L243.72 86.03C243.72 86.03 243.7 85.81 243.48 85.72L241.06 85.72Z" stroke="#707070" stroke-opacity="0" stroke-width="1.000000"/>
	</g>
	<g style="mix-blend-mode:normal">
		<path id="Path 49" d="M246.45 93.03C246.27 92.85 246.04 92.75 245.79 92.74C245.5 92.74 245.22 92.81 244.97 92.96C244.74 93.09 244.56 93.29 244.47 93.54C244.32 93.78 244.25 94.06 244.25 94.35C244.23 94.59 244.31 94.83 244.47 95.01C244.65 95.21 244.92 95.31 245.19 95.3C245.62 95.32 246.03 95.13 246.29 94.79C246.58 94.5 246.74 94.1 246.73 93.69C246.76 93.43 246.65 93.18 246.45 93.03Z" fill="#FFFFFF" fill-opacity="1.000000" fill-rule="nonzero"/>
		<path id="Path 49" d="M245.79 92.74C245.5 92.74 245.22 92.81 244.97 92.96C244.74 93.09 244.56 93.29 244.47 93.54C244.32 93.78 244.25 94.06 244.25 94.35C244.23 94.59 244.31 94.83 244.47 95.01C244.65 95.21 244.92 95.31 245.19 95.3C245.62 95.32 246.03 95.13 246.29 94.79C246.58 94.5 246.74 94.1 246.73 93.69C246.76 93.43 246.65 93.18 246.45 93.03C246.27 92.85 246.04 92.75 245.79 92.74Z" stroke="#707070" stroke-opacity="0" stroke-width="1.000000"/>
	</g>
	<g style="mix-blend-mode:normal">
		<path id="Path 50" d="M220.9 93.65L220.9 93.49L222.44 87.04L222.44 86.76C222.5 86.66 222.61 86.6 222.73 86.6L223.23 86.6C223.39 86.6 223.45 86.6 223.45 86.45L223.45 85.88C223.44 85.8 223.38 85.73 223.3 85.72L222.48 85.72L221.16 85.88L220.22 85.88L219.56 85.88L219.18 85.88C219.05 85.88 219.05 85.88 219.05 86.03L218.9 86.6C218.9 86.76 218.9 86.76 219.05 86.76L219.78 86.76L219.93 86.98C219.94 87.21 219.89 87.44 219.78 87.64L218.33 94.02C218.33 94.18 218.27 94.34 218.17 94.46L217.89 94.46L217.36 94.46L217.22 94.68L217.07 95.27L217.22 95.27L217.66 95.27L218.39 95.27L220.28 95.27L220.94 95.27L221.32 95.27C221.47 95.27 221.47 95.27 221.54 95.14L221.54 94.99L221.54 94.77L221.54 94.61L221.54 94.48L221.1 94.48C220.72 94.48 220.59 94.35 220.59 94.2L220.59 93.98L220.9 93.65Z" fill="#FFFFFF" fill-opacity="1.000000" fill-rule="nonzero"/>
		<path id="Path 50" d="M220.9 93.49L222.44 87.04L222.44 86.76C222.5 86.66 222.61 86.6 222.73 86.6L223.23 86.6C223.39 86.6 223.45 86.6 223.45 86.45L223.45 85.88C223.44 85.8 223.38 85.73 223.3 85.72L222.48 85.72L221.16 85.88L220.22 85.88L219.56 85.88L219.18 85.88C219.05 85.88 219.05 85.88 219.05 86.03L218.9 86.6C218.9 86.76 218.9 86.76 219.05 86.76L219.78 86.76L219.93 86.98C219.94 87.21 219.89 87.44 219.78 87.64L218.33 94.02C218.33 94.18 218.27 94.34 218.17 94.46L217.89 94.46L217.36 94.46L217.22 94.68L217.07 95.27L217.22 95.27L217.66 95.27L218.39 95.27L220.28 95.27L220.94 95.27L221.32 95.27C221.47 95.27 221.47 95.27 221.54 95.14L221.54 94.99L221.54 94.77L221.54 94.61L221.54 94.48L221.1 94.48C220.72 94.48 220.59 94.35 220.59 94.2L220.59 93.98L220.9 93.65L220.9 93.49Z" stroke="#707070" stroke-opacity="0" stroke-width="1.000000"/>
	</g>
	<g style="mix-blend-mode:normal">
		<path id="Path 51" d="M248.19 43.37C246.12 41.52 243.73 40.08 241.12 39.14C239.68 38.76 238.21 38.48 236.72 38.33L232.14 38.02C227.26 37.74 222.36 37.94 217.51 38.63C215.42 39.02 213.37 39.66 211.44 40.55C210.25 41 209.12 41.6 208.09 42.35L207.94 42.35C206.61 43.53 205.65 45.05 205.17 46.75C205.05 47.44 205.08 48.15 205.28 48.82C206.21 49.9 207.41 50.73 208.75 51.22C209.8 51.33 210.86 51.27 211.9 51.07C212.34 50.84 212.64 50.4 212.67 49.9C212.32 48.29 210.47 48.1 209.33 47.7C208.6 47.29 208.16 46.51 208.2 45.68C208.64 44.6 209.41 43.7 210.4 43.1C211.91 42.07 213.55 41.25 215.29 40.68C215.72 40.47 216.24 40.63 216.48 41.06L213.44 59.74C213.29 59.87 213.13 60.49 212.93 60.29L199.49 41.83L198.52 41.14C196.64 40.9 194.74 40.77 192.84 40.75C192.43 40.95 192.11 41.32 191.99 41.76C192.13 42.08 192.38 42.33 192.69 42.49C193.92 42.68 195.77 42.13 196.34 43.63C196.34 43.63 193.26 60.6 193 62.6C192.41 63.33 191.66 63.92 190.8 64.29C190.38 63.7 189.52 63.32 189.21 62.6C188.99 62.31 188.79 62.14 188.6 61.83C189.15 61.26 189.67 60.66 190.14 60.02C192.42 57.23 193.46 53.63 193.02 50.06C192.32 45.65 189.92 41.83 186 40.83C183.91 40.14 181.66 40.14 179.58 40.83C176.73 41.59 174.21 43.24 172.38 45.54C171.38 46.67 170.59 47.97 170.05 49.37C168.44 52.92 168.66 57.02 170.62 60.37C172.81 64.08 176.99 66.14 181.27 65.61C182.19 65.26 183.34 65.41 184.15 64.75C185.01 64.46 185.77 63.95 186.35 63.26C186.55 63.26 186.64 63.26 186.79 63.26C188.55 64.52 189.34 66.74 188.77 68.83L162.37 68.83C158.74 67.29 155.28 65.48 151.78 63.63C152.36 62.84 163.73 47.46 163.86 47.52C163.42 51.93 162.74 56 162.17 60.22C161.97 61.45 161.82 62.75 160.54 63.46C159.77 64.09 158.21 63.92 158.12 65.26C158.52 65.88 159.26 66.17 159.97 65.99C162.54 65.17 165.67 65.79 168.46 65.48C168.77 65.26 169.19 64.95 169.17 64.53C168.55 63.3 166.97 63.92 166.09 62.91C165.62 62.44 165.73 61.76 165.73 61.1L167.93 44.58L168.37 43.41C168.87 42.51 169.83 41.96 170.86 42C171.17 41.8 171.59 41.5 171.48 41.03C171.33 40.75 171.06 40.54 170.75 40.46L167.3 40.66C166.5 40.55 165.69 40.8 165.1 41.34C163.64 43.54 151.34 59.52 151.34 59.52C151.31 59.55 151.27 59.58 151.22 59.58C151.17 59.58 151.13 59.55 151.1 59.52C150.26 55.71 148.22 44.86 147.69 43.37C147.29 42.66 147.69 41.56 146.77 41.16C145.18 41.14 143.6 40.98 142.03 40.68C141.49 40.55 140.92 40.74 140.56 41.16C140.43 42.33 141.79 41.98 142.41 42.4C144.1 43.26 142.72 44.82 142.41 45.79C140.96 49.48 136.53 60.86 134.75 62.31C133.84 62.54 132.94 62.83 132.07 63.19C131.82 62.88 131.74 62.47 131.85 62.09L132.79 45.48C133.02 44.76 133.17 44.02 133.25 43.28C133.5 42.84 133.62 42.35 133.61 41.85C133.43 41.59 133.21 41.36 132.95 41.19C131.49 40.7 130.5 41.85 129.6 42.82L106.87 64.2L106.61 64.36C106.48 64.26 106.43 64.1 106.45 63.94C107.6 58.24 108.65 52.48 109.69 46.75C109.73 45.66 110.09 44.61 110.72 43.72C111.28 42.97 112.16 42.53 113.1 42.53C113.52 42.53 113.5 41.98 113.5 41.65C113.5 41.32 113.06 41.36 112.88 41.19L105 41.19C104.59 41.2 104.2 41.38 103.92 41.69C103.92 43.1 105.64 42.49 106.26 43.5C106.26 43.65 106.65 43.96 106.41 43.98L102.65 64.67C102.51 65.77 102.19 66.85 101.72 67.86C101.15 68.98 99.68 68.94 99.3 70.06C99.41 70.36 99.66 70.58 99.96 70.67C104.36 70.94 122.56 70.67 127.03 70.67C127.86 70.67 127.4 71.51 127.67 72.04C128.2 73.65 129.04 75.14 130.13 76.44C131.58 77.83 133.44 78.71 135.43 78.95C138.95 79.46 142.53 78.73 145.58 76.9C145.73 76.59 145.58 76.35 145.4 76.06C144.85 75.16 143.91 76.77 142.89 77.1C141.85 77.48 140.76 77.71 139.66 77.78C135.41 78.11 131.21 77.54 129.56 73.6C128.62 71.81 128.62 69.67 129.56 67.88C130.81 65.56 133.06 63.94 135.65 63.48C138.24 62.88 140.96 63.12 143.4 64.16C145.52 64.93 147.56 65.91 149.49 67.09L152.16 68.41C155.55 70.06 157.39 71.11 160.96 72.48C168.37 75.32 173.02 78.46 180.76 76.88C182.39 76.67 183.97 76.21 185.45 75.49C186.55 74.99 187.56 74.3 188.44 73.47C189.31 72.66 190.05 71.72 190.64 70.7C192.29 70.7 211.83 70.7 211.83 70.7C211.8 70.64 211.8 70.57 211.83 70.52C211.87 70.46 211.92 70.43 211.99 70.43L212.34 68.89C212.21 68.89 212.14 68.89 212.05 68.89L190.86 68.83C191.1 67.82 191.15 66.77 191.02 65.74C191.25 65.65 191.51 65.65 191.74 65.74C191.74 65.74 191.9 65.9 191.99 65.74C194.19 65.61 196.76 65.74 199.05 65.61C199.33 65.45 199.52 65.16 199.56 64.84C198.87 63.96 197.64 64.16 196.76 63.65C196.13 63.39 195.75 62.73 195.86 62.05L198.68 46.82C198.7 46.72 198.76 46.64 198.85 46.6C198.95 46.56 199.05 46.57 199.14 46.62L212.56 65.77C213.44 65.76 214.32 65.71 215.2 65.61C215.44 64.25 218.44 45.98 219.27 40.4L219.89 39.78C221.16 39.78 223.23 39.03 223.96 40.48L219.16 66.12L218.48 67.48C217.47 69.2 215.46 68.85 213.81 69.09L213.81 69.24C213.81 69.24 213.81 69.4 213.66 69.24L213.44 71.03L213.64 70.92C213.79 70.92 221.32 70.76 225.17 70.65C227.55 70.3 230.1 70.41 232.36 69.88C235.63 69.31 238.74 68.07 241.5 66.23C245.8 64.01 249.13 60.28 250.85 55.75C251.61 53.73 251.9 51.55 251.68 49.4C251.03 47.13 249.83 45.06 248.19 43.37ZM184.37 62.4C183.14 64.6 180.54 64.09 178.39 64.14C177.33 63.93 176.38 63.37 175.68 62.55C175.53 62.2 175.92 62.25 176.08 62.05C178.1 60.98 180.41 60.58 182.68 60.9C183.47 61.03 184.23 61.35 184.88 61.83C184.57 61.94 184.72 62.36 184.37 62.4ZM186.02 60.2C185.02 59.88 184 59.62 182.96 59.41C181.11 59.23 179.23 59.37 177.42 59.83C176.43 60.13 175.5 60.51 174.54 60.9C174.54 60.6 174.16 60.6 174.01 60.33C173.32 59.29 172.92 58.1 172.84 56.85C172.66 54 173.17 51.14 174.32 48.51C175.12 46.01 176.86 43.92 179.18 42.68C180.54 41.83 182.18 41.53 183.76 41.83C184.99 42.08 186.1 42.73 186.92 43.67C187.86 44.68 188.49 45.93 188.75 47.28C189.29 49.26 189.29 51.35 188.75 53.33C188.54 55.85 187.62 58.24 186.02 60.2ZM128.37 63.43C127.6 64.86 125.82 64.36 124.63 64.97C124.63 65.33 124.63 65.7 124.78 65.9L128.33 65.9C128.79 66.14 128.33 66.45 128.33 66.71C127.85 67.48 127.52 68.32 127.34 69.2C126.84 69.38 126.29 69.38 125.8 69.2L106.56 69.2C106.15 69.2 106.21 68.74 106.26 68.47C107.87 66.29 109.71 64.28 111.76 62.49C114.11 60.29 116.44 58.09 118.8 55.89C122.06 55.89 125.4 56.04 128.85 55.89C128.95 55.94 129 56.04 128.99 56.15C128.9 58.7 128.55 61.1 128.37 63.43ZM129.25 54.06L121.33 54.06C121.17 54.06 121.33 53.91 121.33 53.8C123.95 51.27 126.7 48.49 129.51 46.14C129.51 46.14 129.71 46.14 129.78 46.14C129.74 48.79 129.56 51.43 129.25 54.06ZM138.21 61.48C139.5 58.75 140.41 55.82 141.77 53.09C142.48 51.24 143.36 49.45 144.39 47.75L144.78 47.75L147.89 61.39L148.24 62.88C144.94 62.14 141.58 61.67 138.21 61.48ZM187.03 72.9C182 76.86 174.62 74.35 169.43 72.5C168.7 72.24 168.2 71.66 167.43 71.42L171.83 71.2L186.73 71.2L188 71.2C187.98 71.86 187.41 72.35 187.03 72.9ZM243.78 59.32C242.87 60.62 241.88 61.87 240.81 63.06C238.02 65.76 234.49 67.57 230.67 68.28C229.04 68.55 227.38 68.6 225.74 68.43C224.91 68.3 224.22 67.7 223.98 66.89L228.84 42.84C229.15 42.11 228.84 41.03 229.88 40.64C232.08 39.65 234.76 40.37 237.1 40.64C238.37 40.85 239.61 41.21 240.79 41.72C243.41 43.46 245.21 46.19 245.79 49.29C246.25 52.77 245.6 56.31 243.78 59.32Z" fill="#FFFFFF" fill-opacity="1.000000" fill-rule="nonzero"/>
		<path id="Path 51" d="M241.12 39.14C239.68 38.76 238.21 38.48 236.72 38.33L232.14 38.02C227.26 37.74 222.36 37.94 217.51 38.63C215.42 39.02 213.37 39.66 211.44 40.55C210.25 41 209.12 41.6 208.09 42.35L207.94 42.35C206.61 43.53 205.65 45.05 205.17 46.75C205.05 47.44 205.08 48.15 205.28 48.82C206.21 49.9 207.41 50.73 208.75 51.22C209.8 51.33 210.86 51.27 211.9 51.07C212.34 50.84 212.64 50.4 212.67 49.9C212.32 48.29 210.47 48.1 209.33 47.7C208.6 47.29 208.16 46.51 208.2 45.68C208.64 44.6 209.41 43.7 210.4 43.1C211.91 42.07 213.55 41.25 215.29 40.68C215.72 40.47 216.24 40.63 216.48 41.06L213.44 59.74C213.29 59.87 213.13 60.49 212.93 60.29L199.49 41.83L198.52 41.14C196.64 40.9 194.74 40.77 192.84 40.75C192.43 40.95 192.11 41.32 191.99 41.76C192.13 42.08 192.38 42.33 192.69 42.49C193.92 42.68 195.77 42.13 196.34 43.63C196.34 43.63 193.26 60.6 193 62.6C192.41 63.33 191.66 63.92 190.8 64.29C190.38 63.7 189.52 63.32 189.21 62.6C188.99 62.31 188.79 62.14 188.6 61.83C189.15 61.26 189.67 60.66 190.14 60.02C192.42 57.23 193.46 53.63 193.02 50.06C192.32 45.65 189.92 41.83 186 40.83C183.91 40.14 181.66 40.14 179.58 40.83C176.73 41.59 174.21 43.24 172.38 45.54C171.38 46.67 170.59 47.97 170.05 49.37C168.44 52.92 168.66 57.02 170.62 60.37C172.81 64.08 176.99 66.14 181.27 65.61C182.19 65.26 183.34 65.41 184.15 64.75C185.01 64.46 185.77 63.95 186.35 63.26C186.55 63.26 186.64 63.26 186.79 63.26C188.55 64.52 189.34 66.74 188.77 68.83L162.37 68.83C158.74 67.29 155.28 65.48 151.78 63.63C152.36 62.84 163.73 47.46 163.86 47.52C163.42 51.93 162.74 56 162.17 60.22C161.97 61.45 161.82 62.75 160.54 63.46C159.77 64.09 158.21 63.92 158.12 65.26C158.52 65.88 159.26 66.17 159.97 65.99C162.54 65.17 165.67 65.79 168.46 65.48C168.77 65.26 169.19 64.95 169.17 64.53C168.55 63.3 166.97 63.92 166.09 62.91C165.62 62.44 165.73 61.76 165.73 61.1L167.93 44.58L168.37 43.41C168.87 42.51 169.83 41.96 170.86 42C171.17 41.8 171.59 41.5 171.48 41.03C171.33 40.75 171.06 40.54 170.75 40.46L167.3 40.66C166.5 40.55 165.69 40.8 165.1 41.34C163.64 43.54 151.34 59.52 151.34 59.52C151.31 59.55 151.27 59.58 151.22 59.58C151.17 59.58 151.13 59.55 151.1 59.52C150.26 55.71 148.22 44.86 147.69 43.37C147.29 42.66 147.69 41.56 146.77 41.16C145.18 41.14 143.6 40.98 142.03 40.68C141.49 40.55 140.92 40.74 140.56 41.16C140.43 42.33 141.79 41.98 142.41 42.4C144.1 43.26 142.72 44.82 142.41 45.79C140.96 49.48 136.53 60.86 134.75 62.31C133.84 62.54 132.94 62.83 132.07 63.19C131.82 62.88 131.74 62.47 131.85 62.09L132.79 45.48C133.02 44.76 133.17 44.02 133.25 43.28C133.5 42.84 133.62 42.35 133.61 41.85C133.43 41.59 133.21 41.36 132.95 41.19C131.49 40.7 130.5 41.85 129.6 42.82L106.87 64.2L106.61 64.36C106.48 64.26 106.43 64.1 106.45 63.94C107.6 58.24 108.65 52.48 109.69 46.75C109.73 45.66 110.09 44.61 110.72 43.72C111.28 42.97 112.16 42.53 113.1 42.53C113.52 42.53 113.5 41.98 113.5 41.65C113.5 41.32 113.06 41.36 112.88 41.19L105 41.19C104.59 41.2 104.2 41.38 103.92 41.69C103.92 43.1 105.64 42.49 106.26 43.5C106.26 43.65 106.65 43.96 106.41 43.98L102.65 64.67C102.51 65.77 102.19 66.85 101.72 67.86C101.15 68.98 99.68 68.94 99.3 70.06C99.41 70.36 99.66 70.58 99.96 70.67C104.36 70.94 122.56 70.67 127.03 70.67C127.86 70.67 127.4 71.51 127.67 72.04C128.2 73.65 129.04 75.14 130.13 76.44C131.58 77.83 133.44 78.71 135.43 78.95C138.95 79.46 142.53 78.73 145.58 76.9C145.73 76.59 145.58 76.35 145.4 76.06C144.85 75.16 143.91 76.77 142.89 77.1C141.85 77.48 140.76 77.71 139.66 77.78C135.41 78.11 131.21 77.54 129.56 73.6C128.62 71.81 128.62 69.67 129.56 67.88C130.81 65.56 133.06 63.94 135.65 63.48C138.24 62.88 140.96 63.12 143.4 64.16C145.52 64.93 147.56 65.91 149.49 67.09L152.16 68.41C155.55 70.06 157.39 71.11 160.96 72.48C168.37 75.32 173.02 78.46 180.76 76.88C182.39 76.67 183.97 76.21 185.45 75.49C186.55 74.99 187.56 74.3 188.44 73.47C189.31 72.66 190.05 71.72 190.64 70.7C192.29 70.7 211.83 70.7 211.83 70.7C211.8 70.64 211.8 70.57 211.83 70.52C211.87 70.46 211.92 70.43 211.99 70.43L212.34 68.89C212.21 68.89 212.14 68.89 212.05 68.89L190.86 68.83C191.1 67.82 191.15 66.77 191.02 65.74C191.25 65.65 191.51 65.65 191.74 65.74C191.74 65.74 191.9 65.9 191.99 65.74C194.19 65.61 196.76 65.74 199.05 65.61C199.33 65.45 199.52 65.16 199.56 64.84C198.87 63.96 197.64 64.16 196.76 63.65C196.13 63.39 195.75 62.73 195.86 62.05L198.68 46.82C198.7 46.72 198.76 46.64 198.85 46.6C198.95 46.56 199.05 46.57 199.14 46.62L212.56 65.77C213.44 65.76 214.32 65.71 215.2 65.61C215.44 64.25 218.44 45.98 219.27 40.4L219.89 39.78C221.16 39.78 223.23 39.03 223.96 40.48L219.16 66.12L218.48 67.48C217.47 69.2 215.46 68.85 213.81 69.09L213.81 69.24C213.81 69.24 213.81 69.4 213.66 69.24L213.44 71.03L213.64 70.92C213.79 70.92 221.32 70.76 225.17 70.65C227.55 70.3 230.1 70.41 232.36 69.88C235.63 69.31 238.74 68.07 241.5 66.23C245.8 64.01 249.13 60.28 250.85 55.75C251.61 53.73 251.9 51.55 251.68 49.4C251.03 47.13 249.83 45.06 248.19 43.37C246.12 41.52 243.73 40.08 241.12 39.14ZM178.39 64.14C177.33 63.93 176.38 63.37 175.68 62.55C175.53 62.2 175.92 62.25 176.08 62.05C178.1 60.98 180.41 60.58 182.68 60.9C183.47 61.03 184.23 61.35 184.88 61.83C184.57 61.94 184.72 62.36 184.37 62.4C183.14 64.6 180.54 64.09 178.39 64.14ZM182.96 59.41C181.11 59.23 179.23 59.37 177.42 59.83C176.43 60.13 175.5 60.51 174.54 60.9C174.54 60.6 174.16 60.6 174.01 60.33C173.32 59.29 172.92 58.1 172.84 56.85C172.66 54 173.17 51.14 174.32 48.51C175.12 46.01 176.86 43.92 179.18 42.68C180.54 41.83 182.18 41.53 183.76 41.83C184.99 42.08 186.1 42.73 186.92 43.67C187.86 44.68 188.49 45.93 188.75 47.28C189.29 49.26 189.29 51.35 188.75 53.33C188.54 55.85 187.62 58.24 186.02 60.2C185.02 59.88 184 59.62 182.96 59.41ZM124.63 64.97C124.63 65.33 124.63 65.7 124.78 65.9L128.33 65.9C128.79 66.14 128.33 66.45 128.33 66.71C127.85 67.48 127.52 68.32 127.34 69.2C126.84 69.38 126.29 69.38 125.8 69.2L106.56 69.2C106.15 69.2 106.21 68.74 106.26 68.47C107.87 66.29 109.71 64.28 111.76 62.49C114.11 60.29 116.44 58.09 118.8 55.89C122.06 55.89 125.4 56.04 128.85 55.89C128.95 55.94 129 56.04 128.99 56.15C128.9 58.7 128.55 61.1 128.37 63.43C127.6 64.86 125.82 64.36 124.63 64.97ZM121.33 54.06C121.17 54.06 121.33 53.91 121.33 53.8C123.95 51.27 126.7 48.49 129.51 46.14C129.51 46.14 129.71 46.14 129.78 46.14C129.74 48.79 129.56 51.43 129.25 54.06L121.33 54.06ZM141.77 53.09C142.48 51.24 143.36 49.45 144.39 47.75L144.78 47.75L147.89 61.39L148.24 62.88C144.94 62.14 141.58 61.67 138.21 61.48C139.5 58.75 140.41 55.82 141.77 53.09ZM169.43 72.5C168.7 72.24 168.2 71.66 167.43 71.42L171.83 71.2L186.73 71.2L188 71.2C187.98 71.86 187.41 72.35 187.03 72.9C182 76.86 174.62 74.35 169.43 72.5ZM240.81 63.06C238.02 65.76 234.49 67.57 230.67 68.28C229.04 68.55 227.38 68.6 225.74 68.43C224.91 68.3 224.22 67.7 223.98 66.89L228.84 42.84C229.15 42.11 228.84 41.03 229.88 40.64C232.08 39.65 234.76 40.37 237.1 40.64C238.37 40.85 239.61 41.21 240.79 41.72C243.41 43.46 245.21 46.19 245.79 49.29C246.25 52.77 245.6 56.31 243.78 59.32C242.87 60.62 241.88 61.87 240.81 63.06Z" stroke="#707070" stroke-opacity="0" stroke-width="1.000000"/>
	</g>
	<g style="mix-blend-mode:normal">
		<path id="Path 52" d="M275.87 44.8C274.98 43.62 274.24 42.35 273.67 40.99C272.37 39.65 272.68 37.6 271.47 36.15C270.81 35.29 269.99 36.3 269.53 36.83C268.79 38.98 267.81 41.03 266.6 42.95C264.85 46.04 262.62 48.84 260 51.24C259.03 52.37 257.19 52.78 257.14 54.43C257.87 55.82 259.45 56.17 260.26 57.51C263.8 60.86 266.65 64.86 268.67 69.29C268.96 70.69 269.65 71.98 270.65 73.01C271.18 73.31 271.58 72.79 271.88 72.43C273.9 66.39 277.5 60.99 282.29 56.79C282.91 56.13 283.74 55.75 284.21 54.98C284.43 54.35 284.26 53.65 283.79 53.18C280.68 50.86 278 48.03 275.87 44.8ZM279.45 57.47C276.59 60.55 274.13 63.97 272.1 67.66C272 68.19 271.7 68.66 271.27 68.98C270.19 68.74 269.79 67.48 269.31 66.78C267.12 62.25 263.96 58.26 260.04 55.09C259.78 54.83 259.68 54.44 259.8 54.08C260.99 52.52 262.84 51.6 264.03 49.95C266.36 47.25 268.38 44.3 270.04 41.14C270.41 40.68 270.83 39.76 271.58 40.33C273.28 44.23 275.7 47.77 278.73 50.76C279.98 51.8 281.17 52.92 282.29 54.1C282.47 55.62 280.31 56.33 279.45 57.47Z" fill="#FFFFFF" fill-opacity="1.000000" fill-rule="nonzero"/>
		<path id="Path 52" d="M273.67 40.99C272.37 39.65 272.68 37.6 271.47 36.15C270.81 35.29 269.99 36.3 269.53 36.83C268.79 38.98 267.81 41.03 266.6 42.95C264.85 46.04 262.62 48.84 260 51.24C259.03 52.37 257.19 52.78 257.14 54.43C257.87 55.82 259.45 56.17 260.26 57.51C263.8 60.86 266.65 64.86 268.67 69.29C268.96 70.69 269.65 71.98 270.65 73.01C271.18 73.31 271.58 72.79 271.88 72.43C273.9 66.39 277.5 60.99 282.29 56.79C282.91 56.13 283.74 55.75 284.21 54.98C284.43 54.35 284.26 53.65 283.79 53.18C280.68 50.86 278 48.03 275.87 44.8C274.98 43.62 274.24 42.35 273.67 40.99ZM272.1 67.66C272 68.19 271.7 68.66 271.27 68.98C270.19 68.74 269.79 67.48 269.31 66.78C267.12 62.25 263.96 58.26 260.04 55.09C259.78 54.83 259.68 54.44 259.8 54.08C260.99 52.52 262.84 51.6 264.03 49.95C266.36 47.25 268.38 44.3 270.04 41.14C270.41 40.68 270.83 39.76 271.58 40.33C273.28 44.23 275.7 47.77 278.73 50.76C279.98 51.8 281.17 52.92 282.29 54.1C282.47 55.62 280.31 56.33 279.45 57.47C276.59 60.55 274.13 63.97 272.1 67.66Z" stroke="#707070" stroke-opacity="0" stroke-width="1.000000"/>
	</g>
	<g style="mix-blend-mode:normal">
		<path id="Path 53" d="M139.37 87.92C139.41 87.51 139.31 87.1 139.09 86.76C138.89 86.41 138.58 86.16 138.21 86.03C137.76 85.87 137.29 85.79 136.82 85.81L134.62 85.81L134.03 85.81L132.79 85.66L132.2 85.66C132.12 85.67 132.07 85.74 132.07 85.81L132.02 86.43C132.02 86.58 132.02 86.58 132.18 86.58L132.9 86.58C133 86.6 133.07 86.7 133.06 86.8L133.06 87.46L131.52 93.84C131.52 94 131.48 94.16 131.38 94.28L131.08 94.28L130.57 94.28L130.42 94.5L130.28 95.1L130.42 95.1L130.86 95.1L131.67 95.1L133.5 95.1L134.38 95.1L134.82 95.1C134.82 95.1 134.97 95.1 134.97 94.97L134.97 94.81L134.97 94.44L134.97 94.22L134.31 94.22C134 94.22 133.87 94.22 133.87 93.93L133.87 93.62L134 93.27L134.6 90.79L135.41 90.79C136.09 90.77 136.76 90.64 137.39 90.41C137.99 90.23 138.51 89.88 138.91 89.4C139.22 88.97 139.38 88.45 139.37 87.92ZM136.67 88.96C136.53 89.3 136.27 89.58 135.94 89.75C135.64 89.98 135.28 90.12 134.91 90.12L134.55 90.12L135.28 87.11C135.26 86.98 135.3 86.85 135.38 86.76C135.47 86.66 135.59 86.6 135.72 86.6L136.38 86.76L136.82 87.2L136.97 87.86C136.98 88.25 136.87 88.63 136.67 88.96Z" fill="#FFFFFF" fill-opacity="1.000000" fill-rule="nonzero"/>
		<path id="Path 53" d="M139.09 86.76C138.89 86.41 138.58 86.16 138.21 86.03C137.76 85.87 137.29 85.79 136.82 85.81L134.62 85.81L134.03 85.81L132.79 85.66L132.2 85.66C132.12 85.67 132.07 85.74 132.07 85.81L132.02 86.43C132.02 86.58 132.02 86.58 132.18 86.58L132.9 86.58C133 86.6 133.07 86.7 133.06 86.8L133.06 87.46L131.52 93.84C131.52 94 131.48 94.16 131.38 94.28L131.08 94.28L130.57 94.28L130.42 94.5L130.28 95.1L130.42 95.1L130.86 95.1L131.67 95.1L133.5 95.1L134.38 95.1L134.82 95.1C134.82 95.1 134.97 95.1 134.97 94.97L134.97 94.81L134.97 94.44L134.97 94.22L134.31 94.22C134 94.22 133.87 94.22 133.87 93.93L133.87 93.62L134 93.27L134.6 90.79L135.41 90.79C136.09 90.77 136.76 90.64 137.39 90.41C137.99 90.23 138.51 89.88 138.91 89.4C139.22 88.97 139.38 88.45 139.37 87.92C139.41 87.51 139.31 87.1 139.09 86.76ZM135.94 89.75C135.64 89.98 135.28 90.12 134.91 90.12L134.55 90.12L135.28 87.11C135.26 86.98 135.3 86.85 135.38 86.76C135.47 86.66 135.59 86.6 135.72 86.6L136.38 86.76L136.82 87.2L136.97 87.86C136.98 88.25 136.87 88.63 136.67 88.96C136.53 89.3 136.27 89.58 135.94 89.75Z" stroke="#707070" stroke-opacity="0" stroke-width="1.000000"/>
	</g>
	<g style="mix-blend-mode:normal">
		<path id="Path 54" d="M282.07 71.93L281.57 69.97L280.69 69.97L280.69 72.83L281.24 72.83L281.24 70.56L281.81 72.83L282.36 72.83L282.93 70.56L282.93 72.83L283.46 72.83L283.46 69.97L282.6 69.97L282.07 71.93Z" fill="#FFFFFF" fill-opacity="1.000000" fill-rule="nonzero"/>
		<path id="Path 54" d="M281.57 69.97L280.69 69.97L280.69 72.83L281.24 72.83L281.24 70.56L281.81 72.83L282.36 72.83L282.93 70.56L282.93 72.83L283.46 72.83L283.46 69.97L282.6 69.97L282.07 71.93L281.57 69.97Z" stroke="#707070" stroke-opacity="0" stroke-width="1.000000"/>
	</g>
	<g style="mix-blend-mode:normal">
		<path id="Path 55" d="M278.04 70.45L278.9 70.45L278.9 72.83L279.48 72.83L279.48 70.45L280.33 70.45L280.33 69.97L278.04 69.97L278.04 70.45Z" fill="#FFFFFF" fill-opacity="1.000000" fill-rule="nonzero"/>
		<path id="Path 55" d="M278.9 70.45L278.9 72.83L279.48 72.83L279.48 70.45L280.33 70.45L280.33 69.97L278.04 69.97L278.04 70.45L278.9 70.45Z" stroke="#707070" stroke-opacity="0" stroke-width="1.000000"/>
	</g>
	<g style="mix-blend-mode:normal">
		<path id="Path 56" d="M159.15 87.33C158.79 86.75 158.25 86.3 157.61 86.03C156.91 85.76 156.17 85.63 155.41 85.66C154.62 85.63 153.83 85.75 153.08 86.03C152.35 86.31 151.69 86.75 151.17 87.33C150.58 87.87 150.11 88.52 149.78 89.25C149.49 89.94 149.34 90.69 149.34 91.45C149.29 92.21 149.47 92.98 149.85 93.65C150.22 94.23 150.76 94.68 151.39 94.97C152.08 95.26 152.83 95.41 153.59 95.41C154.39 95.4 155.17 95.25 155.92 94.97C156.66 94.7 157.34 94.27 157.9 93.71C158.49 93.2 158.97 92.58 159.31 91.89C159.62 91.14 159.79 90.34 159.81 89.53C159.8 88.75 159.57 87.99 159.15 87.33ZM156.95 90.63C156.83 91.27 156.6 91.89 156.29 92.46C156.03 93 155.66 93.48 155.19 93.87C154.76 94.22 154.23 94.42 153.67 94.44C152.36 94.44 151.76 93.65 151.76 91.95L151.98 90.28C152.12 89.66 152.34 89.07 152.64 88.52C152.95 87.99 153.35 87.52 153.81 87.11C154.24 86.75 154.78 86.54 155.35 86.54C155.92 86.5 156.47 86.74 156.82 87.2C157.14 87.73 157.29 88.34 157.26 88.96C157.23 89.53 157.13 90.09 156.95 90.63Z" fill="#FFFFFF" fill-opacity="1.000000" fill-rule="nonzero"/>
		<path id="Path 56" d="M157.61 86.03C156.91 85.76 156.17 85.63 155.41 85.66C154.62 85.63 153.83 85.75 153.08 86.03C152.35 86.31 151.69 86.75 151.17 87.33C150.58 87.87 150.11 88.52 149.78 89.25C149.49 89.94 149.34 90.69 149.34 91.45C149.29 92.21 149.47 92.98 149.85 93.65C150.22 94.23 150.76 94.68 151.39 94.97C152.08 95.26 152.83 95.41 153.59 95.41C154.39 95.4 155.17 95.25 155.92 94.97C156.66 94.7 157.34 94.27 157.9 93.71C158.49 93.2 158.97 92.58 159.31 91.89C159.62 91.14 159.79 90.34 159.81 89.53C159.8 88.75 159.57 87.99 159.15 87.33C158.79 86.75 158.25 86.3 157.61 86.03ZM156.29 92.46C156.03 93 155.66 93.48 155.19 93.87C154.76 94.22 154.23 94.42 153.67 94.44C152.36 94.44 151.76 93.65 151.76 91.95L151.98 90.28C152.12 89.66 152.34 89.07 152.64 88.52C152.95 87.99 153.35 87.52 153.81 87.11C154.24 86.75 154.78 86.54 155.35 86.54C155.92 86.5 156.47 86.74 156.82 87.2C157.14 87.73 157.29 88.34 157.26 88.96C157.23 89.53 157.13 90.09 156.95 90.63C156.83 91.27 156.6 91.89 156.29 92.46Z" stroke="#707070" stroke-opacity="0" stroke-width="1.000000"/>
	</g>
	<g style="mix-blend-mode:normal">
		<path id="Path 57" d="M134.93 67.64C137.49 67.25 140.11 67.87 142.23 69.35C146.41 71.79 150.75 73.92 155.24 75.73C157.13 76.54 159.07 77.21 161.05 77.74C165.65 79.23 170.55 79.54 175.31 78.66C175.75 78.66 175.94 78.31 176.34 78.2L176.34 77.65L175.44 77.65C173.9 77.71 172.35 77.59 170.84 77.3C167.04 76.8 163.34 75.75 159.84 74.19C156.38 72.81 154.69 71.44 151.3 69.79C148.43 68.24 145.42 66.98 142.3 66.03C140.29 65.56 138.22 65.41 136.16 65.61C134.76 65.84 133.44 66.41 132.31 67.26C131.32 68.23 130.98 69.68 131.43 70.98C131.69 71.53 132.24 72.17 132.86 72.15C133.48 72.12 133.19 71.71 133.23 71.44C132.63 70.81 132.38 69.92 132.57 69.07C133.16 68.33 134 67.82 134.93 67.64Z" fill="#FFFFFF" fill-opacity="1.000000" fill-rule="nonzero"/>
		<path id="Path 57" d="M142.23 69.35C146.41 71.79 150.75 73.92 155.24 75.73C157.13 76.54 159.07 77.21 161.05 77.74C165.65 79.23 170.55 79.54 175.31 78.66C175.75 78.66 175.94 78.31 176.34 78.2L176.34 77.65L175.44 77.65C173.9 77.71 172.35 77.59 170.84 77.3C167.04 76.8 163.34 75.75 159.84 74.19C156.38 72.81 154.69 71.44 151.3 69.79C148.43 68.24 145.42 66.98 142.3 66.03C140.29 65.56 138.22 65.41 136.16 65.61C134.76 65.84 133.44 66.41 132.31 67.26C131.32 68.23 130.98 69.68 131.43 70.98C131.69 71.53 132.24 72.17 132.86 72.15C133.48 72.12 133.19 71.71 133.23 71.44C132.63 70.81 132.38 69.92 132.57 69.07C133.16 68.33 134 67.82 134.93 67.64C137.49 67.25 140.11 67.87 142.23 69.35Z" stroke="#707070" stroke-opacity="0" stroke-width="1.000000"/>
	</g>
	<g style="mix-blend-mode:normal">
		<path id="Path 58" d="M169.56 86.76C169.18 86.42 168.73 86.18 168.24 86.03C167.67 85.87 167.08 85.8 166.48 85.81L164 85.81L163.49 85.81L162.3 85.66L161.73 85.66C161.58 85.66 161.58 85.66 161.51 85.81L161.51 86.38C161.51 86.54 161.51 86.54 161.66 86.54L162.39 86.54L162.54 86.76C162.55 86.99 162.5 87.22 162.39 87.42L160.94 93.8C160.94 93.96 160.88 94.12 160.78 94.24L160.5 94.24L159.97 94.24L159.84 94.46L159.68 95.05L159.84 95.05L160.5 95.05L161.82 95.05L162.92 95.05L164.15 95.05L165.76 95.05C166.13 95.06 166.51 94.98 166.86 94.83C167.28 94.77 167.68 94.62 168.04 94.39C168.4 94.17 168.72 93.89 168.99 93.58L169.94 92.57L170.53 91.18C170.74 90.7 170.84 90.17 170.82 89.64C170.8 89.04 170.7 88.45 170.53 87.88C170.29 87.45 169.96 87.06 169.56 86.76ZM167.96 91.16C167.75 91.76 167.45 92.33 167.08 92.85C166.74 93.33 166.29 93.71 165.76 93.95C165.14 94.25 164.46 94.4 163.78 94.39L163.27 94.39C163.27 94.39 163.27 94.39 163.27 94.24L163.42 93.36L164.9 87.07L164.9 86.85L165.27 86.85C165.84 86.83 166.4 86.9 166.94 87.07C167.38 87.24 167.72 87.58 167.89 88.01C168.15 88.48 168.28 89.02 168.26 89.55C168.22 90.09 168.11 90.64 167.96 91.16Z" fill="#FFFFFF" fill-opacity="1.000000" fill-rule="nonzero"/>
		<path id="Path 58" d="M168.24 86.03C167.67 85.87 167.08 85.8 166.48 85.81L164 85.81L163.49 85.81L162.3 85.66L161.73 85.66C161.58 85.66 161.58 85.66 161.51 85.81L161.51 86.38C161.51 86.54 161.51 86.54 161.66 86.54L162.39 86.54L162.54 86.76C162.55 86.99 162.5 87.22 162.39 87.42L160.94 93.8C160.94 93.96 160.88 94.12 160.78 94.24L160.5 94.24L159.97 94.24L159.84 94.46L159.68 95.05L159.84 95.05L160.5 95.05L161.82 95.05L162.92 95.05L164.15 95.05L165.76 95.05C166.13 95.06 166.51 94.98 166.86 94.83C167.28 94.77 167.68 94.62 168.04 94.39C168.4 94.17 168.72 93.89 168.99 93.58L169.94 92.57L170.53 91.18C170.74 90.7 170.84 90.17 170.82 89.64C170.8 89.04 170.7 88.45 170.53 87.88C170.29 87.45 169.96 87.06 169.56 86.76C169.18 86.42 168.73 86.18 168.24 86.03ZM167.08 92.85C166.74 93.33 166.29 93.71 165.76 93.95C165.14 94.25 164.46 94.4 163.78 94.39L163.27 94.39C163.27 94.39 163.27 94.39 163.27 94.24L163.42 93.36L164.9 87.07L164.9 86.85L165.27 86.85C165.84 86.83 166.4 86.9 166.94 87.07C167.38 87.24 167.72 87.58 167.89 88.01C168.15 88.48 168.28 89.02 168.26 89.55C168.22 90.09 168.11 90.64 167.96 91.16C167.75 91.76 167.45 92.33 167.08 92.85Z" stroke="#707070" stroke-opacity="0" stroke-width="1.000000"/>
	</g>
	<g style="mix-blend-mode:normal">
		<path id="Path 59" d="M147.95 94.66L147.51 94.44L147.29 94.09C147.14 94.09 147.07 93.71 146.85 93.43L145.47 90.83C145.92 90.7 146.34 90.47 146.7 90.17C147.07 89.93 147.37 89.61 147.58 89.22C147.77 88.81 147.87 88.36 147.89 87.9C147.89 87.49 147.78 87.09 147.58 86.74C147.39 86.39 147.07 86.13 146.7 86.01C146.26 85.84 145.79 85.77 145.31 85.79L143.03 85.79L142.45 85.79L141.27 85.64L140.69 85.64C140.54 85.64 140.47 85.64 140.47 85.79L140.47 86.36C140.47 86.52 140.47 86.52 140.63 86.52L141.29 86.52L141.51 86.74L141.35 87.4L139.9 93.78L139.75 94.22L139.37 94.22L138.93 94.22L138.8 94.44L138.62 95.23L138.78 95.23L139.13 95.23L139.94 95.23L141.77 95.23L142.52 95.23L142.87 95.23C142.92 95.26 142.98 95.26 143.03 95.23L143.03 95.08L143.03 94.86L143.03 94.7C143.03 94.7 143.03 94.57 142.87 94.57L142.43 94.57C142.14 94.57 141.99 94.44 141.99 94.28L142.14 93.62L142.72 91.2L143.03 91.2L144.26 93.62L145 94.88C145.13 95.11 145.33 95.29 145.58 95.38L146.55 95.54L147.43 95.54L147.93 95.54C148.09 95.54 148.09 95.32 148.09 95.19C148.19 95 148.13 94.77 147.95 94.66ZM145.03 89.47C144.64 89.91 144.08 90.15 143.49 90.13L143.03 90.13L143.62 87.2L143.75 86.83C143.75 86.83 143.75 86.67 143.97 86.67L144.35 86.67C144.68 86.67 145 86.8 145.23 87.04C145.44 87.29 145.54 87.6 145.51 87.92C145.54 88.48 145.37 89.03 145.03 89.47Z" fill="#FFFFFF" fill-opacity="1.000000" fill-rule="nonzero"/>
		<path id="Path 59" d="M147.51 94.44L147.29 94.09C147.14 94.09 147.07 93.71 146.85 93.43L145.47 90.83C145.92 90.7 146.34 90.47 146.7 90.17C147.07 89.93 147.37 89.61 147.58 89.22C147.77 88.81 147.87 88.36 147.89 87.9C147.89 87.49 147.78 87.09 147.58 86.74C147.39 86.39 147.07 86.13 146.7 86.01C146.26 85.84 145.79 85.77 145.31 85.79L143.03 85.79L142.45 85.79L141.27 85.64L140.69 85.64C140.54 85.64 140.47 85.64 140.47 85.79L140.47 86.36C140.47 86.52 140.47 86.52 140.63 86.52L141.29 86.52L141.51 86.74L141.35 87.4L139.9 93.78L139.75 94.22L139.37 94.22L138.93 94.22L138.8 94.44L138.62 95.23L138.78 95.23L139.13 95.23L139.94 95.23L141.77 95.23L142.52 95.23L142.87 95.23C142.92 95.26 142.98 95.26 143.03 95.23L143.03 95.08L143.03 94.86L143.03 94.7C143.03 94.7 143.03 94.57 142.87 94.57L142.43 94.57C142.14 94.57 141.99 94.44 141.99 94.28L142.14 93.62L142.72 91.2L143.03 91.2L144.26 93.62L145 94.88C145.13 95.11 145.33 95.29 145.58 95.38L146.55 95.54L147.43 95.54L147.93 95.54C148.09 95.54 148.09 95.32 148.09 95.19C148.19 95 148.13 94.77 147.95 94.66L147.51 94.44ZM143.49 90.13L143.03 90.13L143.62 87.2L143.75 86.83C143.75 86.83 143.75 86.67 143.97 86.67L144.35 86.67C144.68 86.67 145 86.8 145.23 87.04C145.44 87.29 145.54 87.6 145.51 87.92C145.54 88.48 145.37 89.03 145.03 89.47C144.64 89.91 144.08 90.15 143.49 90.13Z" stroke="#707070" stroke-opacity="0" stroke-width="1.000000"/>
	</g>
	<g style="mix-blend-mode:normal">
		<path id="Path 60" d="M206.4 89.53L204.86 88.87C204.57 88.72 204.4 88.41 204.42 88.08C204.43 87.77 204.56 87.48 204.79 87.26C205.02 87.03 205.3 86.86 205.61 86.76C205.92 86.61 206.27 86.54 206.62 86.54C207 86.54 207.38 86.64 207.72 86.83C207.99 87.02 208.17 87.31 208.25 87.64L208.25 87.99L208.47 88.15L209.04 88.15C209.19 88.15 209.26 88.15 209.26 87.92L209.26 86.98L209.26 86.03L209.26 85.81L208.91 85.81L208.25 85.81L207.37 85.81C206.78 85.79 206.18 85.84 205.61 85.97C205.06 86.06 204.54 86.26 204.07 86.54C203.04 87.09 202.42 88.17 202.46 89.33C202.44 89.84 202.65 90.32 203.03 90.65C203.5 91.02 204.02 91.31 204.57 91.53L206.05 92.11C206.35 92.3 206.53 92.63 206.55 92.99C206.54 93.29 206.42 93.58 206.2 93.8C205.98 94.06 205.7 94.25 205.39 94.37L204.44 94.59L203.56 94.46C203.35 94.44 203.16 94.32 203.03 94.15C202.92 94.03 202.85 93.88 202.83 93.71L202.83 92.99C202.83 92.83 202.7 92.77 202.55 92.77L201.95 92.77L201.73 92.77L201.73 92.99L201.73 94.24L201.73 94.83C201.73 94.97 202.02 95.19 202.61 95.27L204.29 95.5C205.03 95.48 205.78 95.36 206.49 95.12C207.19 94.87 207.83 94.47 208.38 93.95C208.84 93.45 209.1 92.79 209.11 92.11C209.11 91.55 208.91 91 208.53 90.59C207.91 90.08 207.18 89.71 206.4 89.53Z" fill="#FFFFFF" fill-opacity="1.000000" fill-rule="nonzero"/>
		<path id="Path 60" d="M204.86 88.87C204.57 88.72 204.4 88.41 204.42 88.08C204.43 87.77 204.56 87.48 204.79 87.26C205.02 87.03 205.3 86.86 205.61 86.76C205.92 86.61 206.27 86.54 206.62 86.54C207 86.54 207.38 86.64 207.72 86.83C207.99 87.02 208.17 87.31 208.25 87.64L208.25 87.99L208.47 88.15L209.04 88.15C209.19 88.15 209.26 88.15 209.26 87.92L209.26 86.98L209.26 86.03L209.26 85.81L208.91 85.81L208.25 85.81L207.37 85.81C206.78 85.79 206.18 85.84 205.61 85.97C205.06 86.06 204.54 86.26 204.07 86.54C203.04 87.09 202.42 88.17 202.46 89.33C202.44 89.84 202.65 90.32 203.03 90.65C203.5 91.02 204.02 91.31 204.57 91.53L206.05 92.11C206.35 92.3 206.53 92.63 206.55 92.99C206.54 93.29 206.42 93.58 206.2 93.8C205.98 94.06 205.7 94.25 205.39 94.37L204.44 94.59L203.56 94.46C203.35 94.44 203.16 94.32 203.03 94.15C202.92 94.03 202.85 93.88 202.83 93.71L202.83 92.99C202.83 92.83 202.7 92.77 202.55 92.77L201.95 92.77L201.73 92.77L201.73 92.99L201.73 94.24L201.73 94.83C201.73 94.97 202.02 95.19 202.61 95.27L204.29 95.5C205.03 95.48 205.78 95.36 206.49 95.12C207.19 94.87 207.83 94.47 208.38 93.95C208.84 93.45 209.1 92.79 209.11 92.11C209.11 91.55 208.91 91 208.53 90.59C207.91 90.08 207.18 89.71 206.4 89.53L204.86 88.87Z" stroke="#707070" stroke-opacity="0" stroke-width="1.000000"/>
	</g>
	<g style="mix-blend-mode:normal">
		<path id="Path 61" d="M182.37 86.43L182.37 86.14L182.37 85.86C182.37 85.86 182.37 85.86 182.22 85.7L181.71 85.7L180.7 85.86L180.04 85.86L179.44 85.86L179.07 85.86L179.07 86.01L179.07 86.23L179.07 86.52C179.07 86.52 179.07 86.65 179.22 86.65L179.95 86.8C180.1 86.8 180.17 86.8 180.17 87.02L180.17 87.9L179.73 89.66L179.13 91.86C178.89 92.29 178.59 92.68 178.23 93.03C177.99 93.39 177.67 93.7 177.29 93.91C176.97 94.08 176.61 94.17 176.25 94.2C175.97 94.2 175.7 94.13 175.46 93.98C175.21 93.85 175 93.65 174.87 93.4C174.71 93.1 174.64 92.77 174.65 92.44L174.8 91.12L175.09 89.07L175.46 87.24C175.44 87.06 175.49 86.88 175.59 86.74C175.66 86.64 175.78 86.58 175.9 86.58L176.41 86.43L176.54 86.43L176.54 86.14L176.54 85.86L176.54 85.7L175.9 85.7L174.49 85.86L173.17 85.7L172.29 85.7C172.29 85.7 172.29 85.7 172.16 85.86L172.16 86.43L172.73 86.58C172.95 86.58 173.04 86.58 173.04 86.87L172.82 88.34L172.45 90.54L172.29 92L172.45 93.38C172.58 93.78 172.78 94.15 173.04 94.48C173.31 94.81 173.66 95.07 174.05 95.23C174.5 95.38 174.98 95.46 175.46 95.45C176.17 95.46 176.87 95.31 177.51 95.01C178.07 94.66 178.56 94.21 178.96 93.69C179.4 93 179.75 92.27 179.99 91.49L180.87 88.41C180.92 87.96 181.02 87.52 181.16 87.09L181.38 86.74C181.47 86.62 181.61 86.56 181.75 86.58L182.19 86.58C182.37 86.43 182.37 86.43 182.37 86.43Z" fill="#FFFFFF" fill-opacity="1.000000" fill-rule="nonzero"/>
		<path id="Path 61" d="M182.37 86.14L182.37 85.86C182.37 85.86 182.37 85.86 182.22 85.7L181.71 85.7L180.7 85.86L180.04 85.86L179.44 85.86L179.07 85.86L179.07 86.01L179.07 86.23L179.07 86.52C179.07 86.52 179.07 86.65 179.22 86.65L179.95 86.8C180.1 86.8 180.17 86.8 180.17 87.02L180.17 87.9L179.73 89.66L179.13 91.86C178.89 92.29 178.59 92.68 178.23 93.03C177.99 93.39 177.67 93.7 177.29 93.91C176.97 94.08 176.61 94.17 176.25 94.2C175.97 94.2 175.7 94.13 175.46 93.98C175.21 93.85 175 93.65 174.87 93.4C174.71 93.1 174.64 92.77 174.65 92.44L174.8 91.12L175.09 89.07L175.46 87.24C175.44 87.06 175.49 86.88 175.59 86.74C175.66 86.64 175.78 86.58 175.9 86.58L176.41 86.43L176.54 86.43L176.54 86.14L176.54 85.86L176.54 85.7L175.9 85.7L174.49 85.86L173.17 85.7L172.29 85.7C172.29 85.7 172.29 85.7 172.16 85.86L172.16 86.43L172.73 86.58C172.95 86.58 173.04 86.58 173.04 86.87L172.82 88.34L172.45 90.54L172.29 92L172.45 93.38C172.58 93.78 172.78 94.15 173.04 94.48C173.31 94.81 173.66 95.07 174.05 95.23C174.5 95.38 174.98 95.46 175.46 95.45C176.17 95.46 176.87 95.31 177.51 95.01C178.07 94.66 178.56 94.21 178.96 93.69C179.4 93 179.75 92.27 179.99 91.49L180.87 88.41C180.92 87.96 181.02 87.52 181.16 87.09L181.38 86.74C181.47 86.62 181.61 86.56 181.75 86.58L182.19 86.58C182.37 86.43 182.37 86.43 182.37 86.43L182.37 86.14Z" stroke="#707070" stroke-opacity="0" stroke-width="1.000000"/>
	</g>
	<g style="mix-blend-mode:normal">
		<path id="Path 62" d="M201.8 87.92L201.93 87.92L201.93 87.77L201.78 87.33L201.62 86.6L201.4 85.94L201.4 85.72L200.74 85.72L199.05 85.88L195.18 85.88L194.08 85.72L193.42 85.72C193.43 85.77 193.43 85.83 193.42 85.88L192.98 86.89L192.67 87.86L193.11 88.08L193.42 88.21L193.42 88.08L193.79 87.42L194.23 86.98C194.47 86.84 194.75 86.79 195.02 86.83L195.99 86.83C196.21 86.83 196.34 86.83 196.34 86.98L196.21 87.71L194.74 93.87L194.58 94.31L194.23 94.31L193.64 94.31L193.48 94.53L193.35 95.12L193.48 95.12L194.01 95.12L194.89 95.12L196.78 95.12L197.51 95.12L197.88 95.12C198.04 95.12 198.04 95.12 198.1 94.99L198.1 94.83L198.1 94.61L198.1 94.46C198.1 94.46 197.97 94.33 197.75 94.24L197.38 94.24L197.02 94.24L197.02 94.02L197.18 93.43L198.63 86.98L198.63 86.76L199.73 86.76C200 86.74 200.27 86.85 200.46 87.04L200.96 87.92L201.12 87.92L201.34 87.92L201.8 87.92Z" fill="#FFFFFF" fill-opacity="1.000000" fill-rule="nonzero"/>
		<path id="Path 62" d="M201.93 87.92L201.93 87.77L201.78 87.33L201.62 86.6L201.4 85.94L201.4 85.72L200.74 85.72L199.05 85.88L195.18 85.88L194.08 85.72L193.42 85.72C193.43 85.77 193.43 85.83 193.42 85.88L192.98 86.89L192.67 87.86L193.11 88.08L193.42 88.21L193.42 88.08L193.79 87.42L194.23 86.98C194.47 86.84 194.75 86.79 195.02 86.83L195.99 86.83C196.21 86.83 196.34 86.83 196.34 86.98L196.21 87.71L194.74 93.87L194.58 94.31L194.23 94.31L193.64 94.31L193.48 94.53L193.35 95.12L193.48 95.12L194.01 95.12L194.89 95.12L196.78 95.12L197.51 95.12L197.88 95.12C198.04 95.12 198.04 95.12 198.1 94.99L198.1 94.83L198.1 94.61L198.1 94.46C198.1 94.46 197.97 94.33 197.75 94.24L197.38 94.24L197.02 94.24L197.02 94.02L197.18 93.43L198.63 86.98L198.63 86.76L199.73 86.76C200 86.74 200.27 86.85 200.46 87.04L200.96 87.92L201.12 87.92L201.34 87.92L201.8 87.92L201.93 87.92Z" stroke="#707070" stroke-opacity="0" stroke-width="1.000000"/>
	</g>
	<g style="mix-blend-mode:normal">
		<path id="Path 63" d="M191.68 85.95C191.68 85.95 191.55 85.81 191.33 85.72L188.9 85.72C188.01 85.68 187.11 85.81 186.26 86.1C185.46 86.34 184.71 86.73 184.06 87.27C183.42 87.75 182.89 88.37 182.52 89.09C182.21 89.79 182.04 90.53 182.02 91.29C182 91.93 182.15 92.56 182.46 93.12C182.65 93.68 183.04 94.15 183.56 94.44C184.04 94.79 184.58 95.05 185.16 95.19C185.79 95.33 186.43 95.4 187.08 95.41L188.24 95.41L189.57 95.28L189.79 95.05L190.23 94.46L190.82 93.58C190.82 93.58 190.82 93.58 190.82 93.43L190.45 93.14L190.09 92.85L189.87 92.85C189.61 93.3 189.25 93.7 188.84 94.02C188.45 94.33 187.95 94.49 187.45 94.46C186.62 94.51 185.82 94.19 185.25 93.58C184.74 92.96 184.46 92.18 184.44 91.38C184.47 90.62 184.65 89.87 184.97 89.18C185.33 88.46 185.86 87.83 186.51 87.35C187.15 86.9 187.92 86.67 188.71 86.69C189.17 86.68 189.63 86.8 190.03 87.04C190.39 87.23 190.62 87.6 190.62 88.01L190.62 88.23L190.84 88.23L191.44 88.23L191.66 88.08L191.66 87.35L191.68 85.95Z" fill="#FFFFFF" fill-opacity="1.000000" fill-rule="nonzero"/>
		<path id="Path 63" d="M191.33 85.72L188.9 85.72C188.01 85.68 187.11 85.81 186.26 86.1C185.46 86.34 184.71 86.73 184.06 87.27C183.42 87.75 182.89 88.37 182.52 89.09C182.21 89.79 182.04 90.53 182.02 91.29C182 91.93 182.15 92.56 182.46 93.12C182.65 93.68 183.04 94.15 183.56 94.44C184.04 94.79 184.58 95.05 185.16 95.19C185.79 95.33 186.43 95.4 187.08 95.41L188.24 95.41L189.57 95.28L189.79 95.05L190.23 94.46L190.82 93.58C190.82 93.58 190.82 93.58 190.82 93.43L190.45 93.14L190.09 92.85L189.87 92.85C189.61 93.3 189.25 93.7 188.84 94.02C188.45 94.33 187.95 94.49 187.45 94.46C186.62 94.51 185.82 94.19 185.25 93.58C184.74 92.96 184.46 92.18 184.44 91.38C184.47 90.62 184.65 89.87 184.97 89.18C185.33 88.46 185.86 87.83 186.51 87.35C187.15 86.9 187.92 86.67 188.71 86.69C189.17 86.68 189.63 86.8 190.03 87.04C190.39 87.23 190.62 87.6 190.62 88.01L190.62 88.23L190.84 88.23L191.44 88.23L191.66 88.08L191.66 87.35L191.68 85.95C191.68 85.95 191.55 85.81 191.33 85.72Z" stroke="#707070" stroke-opacity="0" stroke-width="1.000000"/>
	</g>
	<g style="mix-blend-mode:normal">
		<path id="Path 64" d="M258.31 16.98C229.81 5.98 192.01 0 151.83 0C111.65 0 73.84 6.02 45.35 16.98C16.08 28.25 0 43.52 0 60.02C0 76.53 16.12 91.8 45.39 103.06C74 114.07 111.69 120.05 151.87 120.05C192.05 120.05 229.86 114.02 258.35 103.06C287.57 91.8 303.66 76.53 303.66 60.02C303.66 43.52 287.57 28.25 258.31 16.98ZM256.42 98.14C228.51 108.87 191.44 114.77 151.83 114.77C112.22 114.77 75.14 108.87 47.24 98.14C20.53 87.88 5.21 73.93 5.21 60.02C5.21 46.12 20.61 32.17 47.24 21.91C75.14 11.17 112.22 5.28 151.83 5.28C191.44 5.28 228.51 11.17 256.42 21.91C283.13 32.17 298.44 46.12 298.44 60.02C298.44 73.93 283.13 87.88 256.42 98.14Z" fill="#FFFFFF" fill-opacity="1.000000" fill-rule="nonzero"/>
		<path id="Path 64" d="M151.83 0C111.65 0 73.84 6.02 45.35 16.98C16.08 28.25 0 43.52 0 60.02C0 76.53 16.12 91.8 45.39 103.06C74 114.07 111.69 120.05 151.87 120.05C192.05 120.05 229.86 114.02 258.35 103.06C287.57 91.8 303.66 76.53 303.66 60.02C303.66 43.52 287.57 28.25 258.31 16.98C229.81 5.98 192.01 0 151.83 0ZM151.83 114.77C112.22 114.77 75.14 108.87 47.24 98.14C20.53 87.88 5.21 73.93 5.21 60.02C5.21 46.12 20.61 32.17 47.24 21.91C75.14 11.17 112.22 5.28 151.83 5.28C191.44 5.28 228.51 11.17 256.42 21.91C283.13 32.17 298.44 46.12 298.44 60.02C298.44 73.93 283.13 87.88 256.42 98.14C228.51 108.87 191.44 114.77 151.83 114.77Z" stroke="#707070" stroke-opacity="0" stroke-width="1.000000"/>
	</g>
</svg>
