<svg width="316.000000" height="222.000000" viewBox="0 0 316 222" fill="none" xmlns="http://www.w3.org/2000/svg" xmlns:xlink="http://www.w3.org/1999/xlink">
	<desc>
			Created with Pixso.
	</desc>
	<defs/>
	<g style="mix-blend-mode:normal">
		<rect id="Rectangle 27" width="316.000000" height="222.000000" fill="#000000" fill-opacity="0"/>
		<rect id="Rectangle 27" width="316.000000" height="222.000000" stroke="#707070" stroke-opacity="0" stroke-width="1.000000"/>
	</g>
	<g style="mix-blend-mode:normal">
		<path id="Path 79" d="M209.82 133.57C209.72 132.47 209.6 131.36 209.58 130.26C209.55 125.2 209.58 120.13 209.57 115.07C209.57 114.12 209.47 113.18 209.31 112.24C208.71 108.75 206.66 106.81 203.15 106.35C200.23 105.97 197.69 106.9 195.47 108.7C194.11 109.81 192.91 111.09 191.59 112.34C191.55 112.26 191.51 112.17 191.49 112.07C190.58 107.5 187.26 105.91 183.12 106.35C180.27 106.65 178.09 108.22 176.2 110.24C175.58 110.9 175.01 111.61 174.27 112.48L174.27 106.98L164.22 106.98L164.22 108.66C164.73 108.72 165.17 108.77 165.63 108.83C166.09 108.89 166.54 108.94 166.99 109.05C168.34 109.35 168.71 109.73 168.87 111.11C168.96 111.88 169.02 112.67 169.02 113.44C169.02 119.18 169.02 124.92 169.02 130.65C169.02 131.49 168.96 132.33 168.85 133.16C168.68 134.52 168.33 134.89 166.99 135.14C166.07 135.31 165.14 135.41 164.22 135.53L164.22 137.18L179.14 137.18L179.14 135.56C178 135.38 176.91 135.2 175.82 135C175.08 134.85 174.62 134.39 174.52 133.64C174.43 132.71 174.27 131.76 174.27 130.81C174.24 126.29 174.27 121.77 174.27 117.25C174.27 115.22 175.08 113.57 176.7 112.29C178.36 110.98 180.18 110.02 182.36 109.87C184.62 109.73 185.91 110.65 186.37 112.86C186.53 113.6 186.61 114.36 186.63 115.12C186.66 120.1 186.69 125.07 186.69 130.05C186.69 131.11 186.61 132.17 186.48 133.21C186.31 134.6 186.02 134.89 184.62 135.14C183.7 135.31 182.77 135.41 181.84 135.53L181.84 137.16L196.8 137.16L196.8 135.56C195.66 135.38 194.57 135.2 193.48 135C192.77 134.85 192.33 134.41 192.23 133.68C192.12 132.75 191.98 131.8 191.98 130.86C191.95 126.53 191.98 122.2 191.98 117.87C191.98 115.31 193.02 113.29 195.11 111.82C195.49 111.55 195.85 111.23 196.28 111.09C197.51 110.65 198.74 110.1 200.02 109.92C202.27 109.64 203.56 110.66 204.01 112.89C204.21 113.89 204.29 114.93 204.31 115.96C204.34 120.05 204.34 124.13 204.31 128.22C204.31 129.81 204.26 131.41 204.15 133C204.04 134.52 203.69 134.89 202.22 135.15C201.3 135.33 200.37 135.42 199.49 135.55L199.49 137.18L214.45 137.18L214.45 135.58C213.3 135.38 212.21 135.2 211.12 135.01C210.33 134.87 209.88 134.38 209.82 133.57Z" fill="#FFFFFF" fill-opacity="1.000000" fill-rule="nonzero"/>
		<path id="Path 79" d="M209.58 130.26C209.55 125.2 209.58 120.13 209.57 115.07C209.57 114.12 209.47 113.18 209.31 112.24C208.71 108.75 206.66 106.81 203.15 106.35C200.23 105.97 197.69 106.9 195.47 108.7C194.11 109.81 192.91 111.09 191.59 112.34C191.55 112.26 191.51 112.17 191.49 112.07C190.58 107.5 187.26 105.91 183.12 106.35C180.27 106.65 178.09 108.22 176.2 110.24C175.58 110.9 175.01 111.61 174.27 112.48L174.27 106.98L164.22 106.98L164.22 108.66C164.73 108.72 165.17 108.77 165.63 108.83C166.09 108.89 166.54 108.94 166.99 109.05C168.34 109.35 168.71 109.73 168.87 111.11C168.96 111.88 169.02 112.67 169.02 113.44C169.02 119.18 169.02 124.92 169.02 130.65C169.02 131.49 168.96 132.33 168.85 133.16C168.68 134.52 168.33 134.89 166.99 135.14C166.07 135.31 165.14 135.41 164.22 135.53L164.22 137.18L179.14 137.18L179.14 135.56C178 135.38 176.91 135.2 175.82 135C175.08 134.85 174.62 134.39 174.52 133.64C174.43 132.71 174.27 131.76 174.27 130.81C174.24 126.29 174.27 121.77 174.27 117.25C174.27 115.22 175.08 113.57 176.7 112.29C178.36 110.98 180.18 110.02 182.36 109.87C184.62 109.73 185.91 110.65 186.37 112.86C186.53 113.6 186.61 114.36 186.63 115.12C186.66 120.1 186.69 125.07 186.69 130.05C186.69 131.11 186.61 132.17 186.48 133.21C186.31 134.6 186.02 134.89 184.62 135.14C183.7 135.31 182.77 135.41 181.84 135.53L181.84 137.16L196.8 137.16L196.8 135.56C195.66 135.38 194.57 135.2 193.48 135C192.77 134.85 192.33 134.41 192.23 133.68C192.12 132.75 191.98 131.8 191.98 130.86C191.95 126.53 191.98 122.2 191.98 117.87C191.98 115.31 193.02 113.29 195.11 111.82C195.49 111.55 195.85 111.23 196.28 111.09C197.51 110.65 198.74 110.1 200.02 109.92C202.27 109.64 203.56 110.66 204.01 112.89C204.21 113.89 204.29 114.93 204.31 115.96C204.34 120.05 204.34 124.13 204.31 128.22C204.31 129.81 204.26 131.41 204.15 133C204.04 134.52 203.69 134.89 202.22 135.15C201.3 135.33 200.37 135.42 199.49 135.55L199.49 137.18L214.45 137.18L214.45 135.58C213.3 135.38 212.21 135.2 211.12 135.01C210.33 134.87 209.88 134.38 209.82 133.57C209.72 132.47 209.6 131.36 209.58 130.26Z" stroke="#707070" stroke-opacity="0" stroke-width="1.000000"/>
	</g>
	<g style="mix-blend-mode:normal">
		<path id="Path 80" d="M282.07 133.72C282.01 132.69 281.8 131.68 281.8 130.65C281.77 125.7 281.8 120.74 281.76 115.8C281.76 114.76 281.65 113.68 281.43 112.65C280.48 108.15 277.13 105.83 272.59 106.33C269.01 106.74 266.35 108.59 264.27 111.41C264.04 111.71 263.82 112.02 263.6 112.34C263.54 112.31 263.48 112.27 263.41 112.24L263.41 93.27L253.38 93.27L253.38 94.85C254.55 95.05 255.66 95.24 256.76 95.48C257.44 95.62 257.87 96.06 257.93 96.76C258.06 97.94 258.21 99.13 258.21 100.31C258.23 110.27 258.23 120.22 258.21 130.18C258.21 131.14 258.15 132.12 258.04 133.08C257.9 134.47 257.54 134.85 256.16 135.12C255.24 135.3 254.31 135.39 253.4 135.52L253.4 137.16L268.37 137.16L268.37 135.56C267.19 135.36 266.04 135.18 264.9 134.96C264.22 134.82 263.81 134.38 263.73 133.68C263.63 132.94 263.51 132.18 263.49 131.42C263.46 125.96 263.44 120.49 263.44 115.02C263.44 114.72 263.63 114.33 263.87 114.14C265.1 113.16 266.29 112.12 267.65 111.34C268.8 110.68 270.1 110.17 271.39 109.9C274.01 109.37 275.77 110.66 276.23 113.3C276.38 114.25 276.48 115.23 276.48 116.21C276.51 120.68 276.51 125.14 276.48 129.61C276.48 130.9 276.35 132.2 276.23 133.49C276.1 134.73 275.86 134.95 274.63 135.14C273.65 135.3 272.67 135.39 271.71 135.52L271.71 137.16L286.62 137.16L286.62 135.52C285.52 135.36 284.44 135.22 283.38 135.07C282.58 134.96 282.12 134.55 282.07 133.72Z" fill="#FFFFFF" fill-opacity="1.000000" fill-rule="nonzero"/>
		<path id="Path 80" d="M281.8 130.65C281.77 125.7 281.8 120.74 281.76 115.8C281.76 114.76 281.65 113.68 281.43 112.65C280.48 108.15 277.13 105.83 272.59 106.33C269.01 106.74 266.35 108.59 264.27 111.41C264.04 111.71 263.82 112.02 263.6 112.34C263.54 112.31 263.48 112.27 263.41 112.24L263.41 93.27L253.38 93.27L253.38 94.85C254.55 95.05 255.66 95.24 256.76 95.48C257.44 95.62 257.87 96.06 257.93 96.76C258.06 97.94 258.21 99.13 258.21 100.31C258.23 110.27 258.23 120.22 258.21 130.18C258.21 131.14 258.15 132.12 258.04 133.08C257.9 134.47 257.54 134.85 256.16 135.12C255.24 135.3 254.31 135.39 253.4 135.52L253.4 137.16L268.37 137.16L268.37 135.56C267.19 135.36 266.04 135.18 264.9 134.96C264.22 134.82 263.81 134.38 263.73 133.68C263.63 132.94 263.51 132.18 263.49 131.42C263.46 125.96 263.44 120.49 263.44 115.02C263.44 114.72 263.63 114.33 263.87 114.14C265.1 113.16 266.29 112.12 267.65 111.34C268.8 110.68 270.1 110.17 271.39 109.9C274.01 109.37 275.77 110.66 276.23 113.3C276.38 114.25 276.48 115.23 276.48 116.21C276.51 120.68 276.51 125.14 276.48 129.61C276.48 130.9 276.35 132.2 276.23 133.49C276.1 134.73 275.86 134.95 274.63 135.14C273.65 135.3 272.67 135.39 271.71 135.52L271.71 137.16L286.62 137.16L286.62 135.52C285.52 135.36 284.44 135.22 283.38 135.07C282.58 134.96 282.12 134.55 282.07 133.72C282.01 132.69 281.8 131.68 281.8 130.65Z" stroke="#707070" stroke-opacity="0" stroke-width="1.000000"/>
	</g>
	<g style="mix-blend-mode:normal">
		<path id="Path 81" d="M158.58 133.29C158.34 132.14 158.23 130.94 158.22 129.75C158.17 124.69 158.25 119.64 158.15 114.57C158.06 109.62 155.42 106.9 150.51 106.38C146.41 105.96 142.64 107.03 138.96 108.66C138.8 108.74 138.59 108.94 138.59 109.1C138.56 110.85 138.58 112.59 138.58 114.36L142.12 114.36C142.2 113.79 142.26 113.3 142.32 112.83C142.56 110.95 143.51 109.65 145.29 108.93C148.29 107.71 151.25 108.72 152.29 111.42C153.27 113.97 152.88 116.64 152.94 119.34C152.24 119.34 151.64 119.27 151.06 119.34C148.67 119.61 146.24 119.7 143.93 120.27C138.92 121.5 136.37 124.88 136.44 129.75C136.52 134.9 141.14 138.71 146.22 137.84C149.1 137.35 151.36 135.79 153.41 133.84C153.63 133.64 153.86 133.42 154.11 133.18C155.34 138.36 159.02 138.64 162.44 137.13C162.37 136.5 162.31 135.83 162.25 135.17C160 135.63 158.98 135.14 158.58 133.29ZM152.18 132.96C151.06 133.48 149.98 134.17 148.8 134.47C145.29 135.34 142.08 132.72 141.96 129.04C141.82 125.03 144.23 122.17 148.52 121.41C149.92 121.16 151.36 121.12 152.94 120.97L152.94 122.04C152.94 125.23 152.92 128.42 152.96 131.61C152.96 132.28 152.75 132.71 152.18 132.96Z" fill="#FFFFFF" fill-opacity="1.000000" fill-rule="nonzero"/>
		<path id="Path 81" d="M158.22 129.75C158.17 124.69 158.25 119.64 158.15 114.57C158.06 109.62 155.42 106.9 150.51 106.38C146.41 105.96 142.64 107.03 138.96 108.66C138.8 108.74 138.59 108.94 138.59 109.1C138.56 110.85 138.58 112.59 138.58 114.36L142.12 114.36C142.2 113.79 142.26 113.3 142.32 112.83C142.56 110.95 143.51 109.65 145.29 108.93C148.29 107.71 151.25 108.72 152.29 111.42C153.27 113.97 152.88 116.64 152.94 119.34C152.24 119.34 151.64 119.27 151.06 119.34C148.67 119.61 146.24 119.7 143.93 120.27C138.92 121.5 136.37 124.88 136.44 129.75C136.52 134.9 141.14 138.71 146.22 137.84C149.1 137.35 151.36 135.79 153.41 133.84C153.63 133.64 153.86 133.42 154.11 133.18C155.34 138.36 159.02 138.64 162.44 137.13C162.37 136.5 162.31 135.83 162.25 135.17C160 135.63 158.98 135.14 158.58 133.29C158.34 132.14 158.23 130.94 158.22 129.75ZM148.8 134.47C145.29 135.34 142.08 132.72 141.96 129.04C141.82 125.03 144.23 122.17 148.52 121.41C149.92 121.16 151.36 121.12 152.94 120.97L152.94 122.04C152.94 125.23 152.92 128.42 152.96 131.61C152.96 132.28 152.75 132.71 152.18 132.96C151.06 133.48 149.98 134.17 148.8 134.47Z" stroke="#707070" stroke-opacity="0" stroke-width="1.000000"/>
	</g>
	<g style="mix-blend-mode:normal">
		<path id="Path 82" d="M109.71 135.23C107.61 135.64 106.57 134.98 106.27 132.83C106.06 131.36 105.97 129.88 105.95 128.39C105.92 123.82 105.95 119.24 105.93 114.68C105.92 110.11 103.61 107.27 99.2 106.51C94.8 105.75 90.69 106.9 86.69 108.67C86.55 108.74 86.37 108.94 86.37 109.08C86.36 110.82 86.37 112.57 86.37 114.39C87.37 114.39 88.27 114.36 89.15 114.39C89.79 114.42 89.98 114.23 90.02 113.59C90.1 112.37 90.28 111.09 91.16 110.19C92.77 108.56 94.8 108.1 96.99 108.58C99 109.02 100.09 110.52 100.36 112.42C100.69 114.64 100.7 116.92 100.88 119.31C100.03 119.31 99.42 119.31 98.84 119.31C96.23 119.35 93.66 119.56 91.16 120.36C87.29 121.61 84.76 124.06 84.22 128.26C83.5 134.13 88.35 138.77 94.15 137.78C96.69 137.33 98.75 135.99 100.64 134.32C101.05 133.95 101.46 133.57 101.87 133.18C102.16 133.92 102.35 134.58 102.65 135.22C103.36 136.75 104.54 137.78 106.27 137.82C107.4 137.85 108.56 137.56 109.69 137.35C109.87 137.32 110.14 137.06 110.15 136.91C110.18 136.32 110.11 135.74 110.07 135.15C109.87 135.15 109.77 135.22 109.71 135.23ZM100.17 132.83C99 133.38 97.89 134.13 96.66 134.46C93.07 135.41 89.87 132.74 89.74 128.85C89.64 125.53 91.35 123.07 94.59 121.87C96.52 121.15 98.54 121.06 100.67 121.08C100.69 121.38 100.7 121.6 100.7 121.8C100.7 125.14 100.7 128.45 100.7 131.79C100.7 132.28 100.61 132.63 100.17 132.83Z" fill="#FFFFFF" fill-opacity="1.000000" fill-rule="nonzero"/>
		<path id="Path 82" d="M106.27 132.83C106.06 131.36 105.97 129.88 105.95 128.39C105.92 123.82 105.95 119.24 105.93 114.68C105.92 110.11 103.61 107.27 99.2 106.51C94.8 105.75 90.69 106.9 86.69 108.67C86.55 108.74 86.37 108.94 86.37 109.08C86.36 110.82 86.37 112.57 86.37 114.39C87.37 114.39 88.27 114.36 89.15 114.39C89.79 114.42 89.98 114.23 90.02 113.59C90.1 112.37 90.28 111.09 91.16 110.19C92.77 108.56 94.8 108.1 96.99 108.58C99 109.02 100.09 110.52 100.36 112.42C100.69 114.64 100.7 116.92 100.88 119.31C100.03 119.31 99.42 119.31 98.84 119.31C96.23 119.35 93.66 119.56 91.16 120.36C87.29 121.61 84.76 124.06 84.22 128.26C83.5 134.13 88.35 138.77 94.15 137.78C96.69 137.33 98.75 135.99 100.64 134.32C101.05 133.95 101.46 133.57 101.87 133.18C102.16 133.92 102.35 134.58 102.65 135.22C103.36 136.75 104.54 137.78 106.27 137.82C107.4 137.85 108.56 137.56 109.69 137.35C109.87 137.32 110.14 137.06 110.15 136.91C110.18 136.32 110.11 135.74 110.07 135.15C109.87 135.15 109.77 135.22 109.71 135.23C107.61 135.64 106.57 134.98 106.27 132.83ZM96.66 134.46C93.07 135.41 89.87 132.74 89.74 128.85C89.64 125.53 91.35 123.07 94.59 121.87C96.52 121.15 98.54 121.06 100.67 121.08C100.69 121.38 100.7 121.6 100.7 121.8C100.7 125.14 100.7 128.45 100.7 131.79C100.7 132.28 100.61 132.63 100.17 132.83C99 133.38 97.89 134.13 96.66 134.46Z" stroke="#707070" stroke-opacity="0" stroke-width="1.000000"/>
	</g>
	<g style="mix-blend-mode:normal">
		<path id="Path 83" d="M131.34 106.4C128.53 106.02 126.08 106.86 124.04 108.75C122.94 109.78 122.03 111.04 121.02 112.23L121.02 106.98L110.94 106.98L110.94 108.61C112.1 108.81 113.16 108.97 114.21 109.19C114.99 109.35 115.43 109.86 115.53 110.65C115.62 111.5 115.75 112.37 115.75 113.22C115.76 119.15 115.75 125.07 115.75 131C115.75 131.69 115.7 132.4 115.59 133.1C115.37 134.57 115.07 134.87 113.61 135.14C112.71 135.31 111.81 135.41 110.93 135.53L110.93 137.16L126.51 137.16L126.51 135.61C125.13 135.39 123.84 135.22 122.54 134.98C121.83 134.85 121.39 134.38 121.31 133.65C121.2 132.64 121.04 131.61 121.04 130.59C121.01 125.96 121.07 121.33 120.99 116.7C120.98 115.43 121.37 114.47 122.13 113.54C123.5 111.88 125.19 110.82 127.41 110.79C128.21 110.79 128.69 111.14 128.8 111.94C128.94 112.89 129.08 113.85 129.21 114.8L132.08 114.8C132.1 114.53 132.13 114.33 132.13 114.12C132.13 111.85 132.12 109.57 132.15 107.3C132.15 106.67 131.92 106.48 131.34 106.4Z" fill="#FFFFFF" fill-opacity="1.000000" fill-rule="nonzero"/>
		<path id="Path 83" d="M124.04 108.75C122.94 109.78 122.03 111.04 121.02 112.23L121.02 106.98L110.94 106.98L110.94 108.61C112.1 108.81 113.16 108.97 114.21 109.19C114.99 109.35 115.43 109.86 115.53 110.65C115.62 111.5 115.75 112.37 115.75 113.22C115.76 119.15 115.75 125.07 115.75 131C115.75 131.69 115.7 132.4 115.59 133.1C115.37 134.57 115.07 134.87 113.61 135.14C112.71 135.31 111.81 135.41 110.93 135.53L110.93 137.16L126.51 137.16L126.51 135.61C125.13 135.39 123.84 135.22 122.54 134.98C121.83 134.85 121.39 134.38 121.31 133.65C121.2 132.64 121.04 131.61 121.04 130.59C121.01 125.96 121.07 121.33 120.99 116.7C120.98 115.43 121.37 114.47 122.13 113.54C123.5 111.88 125.19 110.82 127.41 110.79C128.21 110.79 128.69 111.14 128.8 111.94C128.94 112.89 129.08 113.85 129.21 114.8L132.08 114.8C132.1 114.53 132.13 114.33 132.13 114.12C132.13 111.85 132.12 109.57 132.15 107.3C132.15 106.67 131.92 106.48 131.34 106.4C128.53 106.02 126.08 106.86 124.04 108.75Z" stroke="#707070" stroke-opacity="0" stroke-width="1.000000"/>
	</g>
	<g style="mix-blend-mode:normal">
		<path id="Path 84" d="M242.92 100.09C241.09 100.57 239.38 101.03 237.61 101.48L237.61 106.95L233.46 106.95L233.46 109.27L237.61 109.27L237.61 110.22C237.61 115.96 237.6 121.69 237.61 127.43C237.61 128.77 237.72 130.13 237.94 131.46C238.29 133.53 239.07 135.47 240.99 136.59C243.95 138.3 247.04 138.31 250.19 137.1L250.19 134.89C249.46 135.12 248.78 135.37 248.09 135.55C245.78 136.09 243.98 135.04 243.35 132.77C243.13 131.99 242.95 131.17 242.95 130.38C242.92 123.46 242.92 116.52 242.9 109.6C242.9 109.51 242.95 109.42 243 109.21L250.84 109.21L250.84 106.93L242.87 106.93L242.92 100.09Z" fill="#FFFFFF" fill-opacity="1.000000" fill-rule="nonzero"/>
		<path id="Path 84" d="M237.61 101.48L237.61 106.95L233.46 106.95L233.46 109.27L237.61 109.27L237.61 110.22C237.61 115.96 237.6 121.69 237.61 127.43C237.61 128.77 237.72 130.13 237.94 131.46C238.29 133.53 239.07 135.47 240.99 136.59C243.95 138.3 247.04 138.31 250.19 137.1L250.19 134.89C249.46 135.12 248.78 135.37 248.09 135.55C245.78 136.09 243.98 135.04 243.35 132.77C243.13 131.99 242.95 131.17 242.95 130.38C242.92 123.46 242.92 116.52 242.9 109.6C242.9 109.51 242.95 109.42 243 109.21L250.84 109.21L250.84 106.93L242.87 106.93L242.92 100.09C241.09 100.57 239.38 101.03 237.61 101.48Z" stroke="#707070" stroke-opacity="0" stroke-width="1.000000"/>
	</g>
	<g style="mix-blend-mode:normal">
		<path id="Path 85" d="M225.7 132.61C225.65 132.26 225.62 131.92 225.62 131.57C225.62 123.7 225.6 115.83 225.59 107.96C225.59 107.65 225.59 107.33 225.59 107L215.51 107L215.51 108.63C216.58 108.82 217.62 108.97 218.65 109.16C219.54 109.32 220.04 109.84 220.12 110.76C220.22 111.97 220.37 113.18 220.37 114.39C220.41 119.53 220.39 124.66 220.37 129.81C220.37 130.92 220.31 132.03 220.17 133.13C219.98 134.6 219.66 134.9 218.21 135.19C217.31 135.36 216.41 135.45 215.54 135.58L215.54 137.22L230.45 137.22L230.45 135.56C229.7 135.49 228.97 135.44 228.26 135.31C226.16 134.96 225.95 134.71 225.7 132.61Z" fill="#FFFFFF" fill-opacity="1.000000" fill-rule="nonzero"/>
		<path id="Path 85" d="M225.62 131.57C225.62 123.7 225.6 115.83 225.59 107.96C225.59 107.65 225.59 107.33 225.59 107L215.51 107L215.51 108.63C216.58 108.82 217.62 108.97 218.65 109.16C219.54 109.32 220.04 109.84 220.12 110.76C220.22 111.97 220.37 113.18 220.37 114.39C220.41 119.53 220.39 124.66 220.37 129.81C220.37 130.92 220.31 132.03 220.17 133.13C219.98 134.6 219.66 134.9 218.21 135.19C217.31 135.36 216.41 135.45 215.54 135.58L215.54 137.22L230.45 137.22L230.45 135.56C229.7 135.49 228.97 135.44 228.26 135.31C226.16 134.96 225.95 134.71 225.7 132.61C225.65 132.26 225.62 131.92 225.62 131.57Z" stroke="#707070" stroke-opacity="0" stroke-width="1.000000"/>
	</g>
	<g style="mix-blend-mode:normal">
		<path id="Path 86" d="M225.52 96.06L220.39 96.06L220.39 101.44L225.52 101.44L225.52 96.06Z" fill="#FFFFFF" fill-opacity="1.000000" fill-rule="nonzero"/>
		<path id="Path 86" d="M220.39 96.06L220.39 101.44L225.52 101.44L225.52 96.06L220.39 96.06Z" stroke="#707070" stroke-opacity="0" stroke-width="1.000000"/>
	</g>
	<g style="mix-blend-mode:normal">
		<path id="Path 88" d="M294.9 129.7C292.79 129.73 290.87 131.39 290.87 133.64C290.87 135.88 292.71 137.51 294.84 137.54C296.86 137.54 298.84 135.91 298.84 133.64C298.84 131.36 296.94 129.7 294.9 129.7ZM294.9 136.91C293.07 136.88 291.63 135.5 291.63 133.64C291.63 131.77 293.01 130.4 294.84 130.37C296.61 130.37 298.05 131.74 298.05 133.64C298.05 135.53 296.67 136.91 294.9 136.91Z" fill="#FFFFFF" fill-opacity="1.000000" fill-rule="nonzero"/>
		<path id="Path 88" d="M290.87 133.64C290.87 135.88 292.71 137.51 294.84 137.54C296.86 137.54 298.84 135.91 298.84 133.64C298.84 131.36 296.94 129.7 294.9 129.7C292.79 129.73 290.87 131.39 290.87 133.64ZM291.63 133.64C291.63 131.77 293.01 130.4 294.84 130.37C296.61 130.37 298.05 131.74 298.05 133.64C298.05 135.53 296.67 136.91 294.9 136.91C293.07 136.88 291.63 135.5 291.63 133.64Z" stroke="#707070" stroke-opacity="0" stroke-width="1.000000"/>
	</g>
	<g style="mix-blend-mode:normal">
		<path id="Path 89" d="M296.69 132.61C296.69 131.74 296.18 131.36 295.03 131.36L293.4 131.36L293.4 135.91L294.02 135.91L294.02 133.89L294.76 133.89L296.04 135.91L296.78 135.91L295.53 133.89C296.15 133.76 296.69 133.51 296.69 132.61ZM294.79 133.38L294.05 133.38L294.05 131.98L294.92 131.98C295.44 131.98 295.95 131.98 295.95 132.59C295.95 133.21 295.41 133.35 294.79 133.38Z" fill="#FFFFFF" fill-opacity="1.000000" fill-rule="nonzero"/>
		<path id="Path 89" d="M295.03 131.36L293.4 131.36L293.4 135.91L294.02 135.91L294.02 133.89L294.76 133.89L296.04 135.91L296.78 135.91L295.53 133.89C296.15 133.76 296.69 133.51 296.69 132.61C296.69 131.74 296.18 131.36 295.03 131.36ZM294.05 133.38L294.05 131.98L294.92 131.98C295.44 131.98 295.95 131.98 295.95 132.59C295.95 133.21 295.41 133.35 294.79 133.38L294.05 133.38Z" stroke="#707070" stroke-opacity="0" stroke-width="1.000000"/>
	</g>
	<g style="mix-blend-mode:normal">
		<path id="Path 90" d="M77.43 129.7C75.31 129.73 73.4 131.39 73.4 133.64C73.4 135.88 75.23 137.51 77.37 137.54C79.39 137.54 81.37 135.91 81.37 133.64C81.37 131.36 79.47 129.7 77.43 129.7ZM77.43 136.91C75.6 136.88 74.16 135.5 74.16 133.64C74.16 131.77 75.53 130.4 77.37 130.37C79.14 130.37 80.58 131.74 80.58 133.64C80.58 135.53 79.2 136.91 77.43 136.91Z" fill="#FFFFFF" fill-opacity="1.000000" fill-rule="nonzero"/>
		<path id="Path 90" d="M73.4 133.64C73.4 135.88 75.23 137.51 77.37 137.54C79.39 137.54 81.37 135.91 81.37 133.64C81.37 131.36 79.47 129.7 77.43 129.7C75.31 129.73 73.4 131.39 73.4 133.64ZM74.16 133.64C74.16 131.77 75.53 130.4 77.37 130.37C79.14 130.37 80.58 131.74 80.58 133.64C80.58 135.53 79.2 136.91 77.43 136.91C75.6 136.88 74.16 135.5 74.16 133.64Z" stroke="#707070" stroke-opacity="0" stroke-width="1.000000"/>
	</g>
	<g style="mix-blend-mode:normal">
		<path id="Path 87" d="M47.76 84.64C47.19 84.47 45.69 84.29 43.79 84.23C40.4 84.06 35.69 83.95 32.46 84.06C32.46 89.74 32.29 100.22 32.64 108.5C32.87 115.45 36.6 120.98 43.79 122.18C44.95 122.36 46.21 122.47 47.58 122.42L47.58 129.61C46.26 129.56 44.99 129.5 43.79 129.32C40.52 128.93 37.69 128.12 35.75 127.02C26.9 121.72 24.94 115.62 24.94 104.31L24.94 84.07L17.19 84.07L17.19 106.95C17.36 119.72 21.15 127.82 32.76 133.92C35.12 135.14 39.26 136.34 43.81 136.8C45.07 136.91 46.34 137.03 47.6 137.03L55.36 137.03L55.36 122.31C55.93 110.98 54.95 101.2 43.79 99.26C42.7 99.02 41.49 98.91 40.17 98.91L40.17 91.78C41.33 91.72 42.53 91.78 43.79 91.96C52.31 93.05 62.59 99.21 62.59 109.91L62.59 137.05C65.3 137.05 68.28 137.16 70.87 137.05L70.87 109.51C69.15 96.11 58.63 86.88 47.76 84.64ZM43.79 107.01C46.56 108.1 47.93 111.33 47.3 114.42C45.86 114.42 44.71 114.19 43.79 113.85C40.46 112.48 40.22 109.08 40.17 106.73C41.55 106.44 42.77 106.62 43.79 107.01Z" fill="#FFFFFF" fill-opacity="1.000000" fill-rule="nonzero"/>
		<path id="Path 87" d="M43.79 84.23C40.4 84.06 35.69 83.95 32.46 84.06C32.46 89.74 32.29 100.22 32.64 108.5C32.87 115.45 36.6 120.98 43.79 122.18C44.95 122.36 46.21 122.47 47.58 122.42L47.58 129.61C46.26 129.56 44.99 129.5 43.79 129.32C40.52 128.93 37.69 128.12 35.75 127.02C26.9 121.72 24.94 115.62 24.94 104.31L24.94 84.07L17.19 84.07L17.19 106.95C17.36 119.72 21.15 127.82 32.76 133.92C35.12 135.14 39.26 136.34 43.81 136.8C45.07 136.91 46.34 137.03 47.6 137.03L55.36 137.03L55.36 122.31C55.93 110.98 54.95 101.2 43.79 99.26C42.7 99.02 41.49 98.91 40.17 98.91L40.17 91.78C41.33 91.72 42.53 91.78 43.79 91.96C52.31 93.05 62.59 99.21 62.59 109.91L62.59 137.05C65.3 137.05 68.28 137.16 70.87 137.05L70.87 109.51C69.15 96.11 58.63 86.88 47.76 84.64C47.19 84.47 45.69 84.29 43.79 84.23ZM47.3 114.42C45.86 114.42 44.71 114.19 43.79 113.85C40.46 112.48 40.22 109.08 40.17 106.73C41.55 106.44 42.77 106.62 43.79 107.01C46.56 108.1 47.93 111.33 47.3 114.42Z" stroke="#707070" stroke-opacity="0" stroke-width="1.000000"/>
	</g>
	<g style="mix-blend-mode:normal">
		<path id="Path 91" d="M79.22 132.61C79.22 131.74 78.71 131.36 77.56 131.36L75.93 131.36L75.93 135.91L76.55 135.91L76.55 133.89L77.29 133.89L78.57 135.91L79.31 135.91L78.06 133.89C78.68 133.76 79.22 133.51 79.22 132.61ZM77.32 133.38L76.58 133.38L76.58 131.98L77.45 131.98C77.97 131.98 78.47 131.98 78.47 132.59C78.47 133.21 77.94 133.35 77.32 133.38Z" fill="#FFFFFF" fill-opacity="1.000000" fill-rule="nonzero"/>
		<path id="Path 91" d="M77.56 131.36L75.93 131.36L75.93 135.91L76.55 135.91L76.55 133.89L77.29 133.89L78.57 135.91L79.31 135.91L78.06 133.89C78.68 133.76 79.22 133.51 79.22 132.61C79.22 131.74 78.71 131.36 77.56 131.36ZM76.58 133.38L76.58 131.98L77.45 131.98C77.97 131.98 78.47 131.98 78.47 132.59C78.47 133.21 77.94 133.35 77.32 133.38L76.58 133.38Z" stroke="#707070" stroke-opacity="0" stroke-width="1.000000"/>
	</g>
</svg>
